if (_typeface_js && _typeface_js.loadFace) _typeface_js.loadFace({"glyphs":{"¦":{"x_min":364,"x_max":471,"ha":833,"o":"m 364 504 l 364 1023 l 471 1023 l 471 542 l 364 504 m 364 -270 l 364 347 l 471 384 l 471 -270 l 364 -270 "},"ǻ":{"x_min":60,"x_max":824,"ha":918,"o":"m 639 738 l 824 738 l 824 0 l 639 0 l 639 78 q 530 3 584 26 q 411 -19 475 -19 q 164 91 268 -19 q 60 367 60 202 q 160 647 60 538 q 406 757 261 757 q 531 731 472 757 q 639 656 589 706 l 639 738 m 444 586 q 301 525 358 586 q 244 369 244 464 q 302 212 244 274 q 445 151 360 151 q 590 211 532 151 q 648 370 648 272 q 590 526 648 466 q 444 586 532 586 m 458 1144 q 563 1099 520 1144 q 607 992 607 1055 q 563 885 607 929 q 458 841 519 841 q 353 885 397 841 q 310 992 310 929 q 353 1099 310 1055 q 458 1144 396 1144 m 458 1056 q 419 1038 435 1056 q 403 995 403 1020 q 419 952 403 970 q 458 935 436 935 q 497 952 480 935 q 514 995 514 970 q 497 1038 514 1020 q 458 1056 481 1056 m 490 1470 l 710 1470 l 461 1205 l 329 1205 l 490 1470 "},"Ő":{"x_min":65,"x_max":1101,"ha":1166,"o":"m 585 1023 q 948 869 796 1023 q 1101 495 1101 716 q 950 126 1101 277 q 586 -25 800 -25 q 213 130 361 -25 q 65 499 65 285 q 134 762 65 642 q 324 952 203 882 q 585 1023 445 1023 m 582 837 q 350 740 444 837 q 256 495 256 644 q 374 234 256 330 q 586 159 466 159 q 816 256 721 159 q 911 497 911 354 q 815 738 911 639 q 582 837 719 837 m 537 1341 l 756 1341 l 508 1075 l 375 1075 l 537 1341 m 839 1341 l 1058 1341 l 811 1075 l 677 1075 l 839 1341 "},"Ž":{"x_min":31.84375,"x_max":665.0625,"ha":695,"o":"m 61 998 l 665 998 l 308 182 l 642 182 l 642 0 l 31 0 l 386 810 l 61 810 l 61 998 m 69 1267 l 273 1267 l 348 1177 l 422 1267 l 624 1267 l 422 1075 l 273 1075 l 69 1267 "},"Á":{"x_min":33.234375,"x_max":994.203125,"ha":1027,"o":"m 417 998 l 610 998 l 994 0 l 796 0 l 718 206 l 311 206 l 230 0 l 33 0 l 417 998 m 515 733 l 382 391 l 647 391 l 515 733 m 545 1341 l 764 1341 l 516 1076 l 383 1076 l 545 1341 "},"ĥ":{"x_min":93,"x_max":747,"ha":834,"o":"m 93 1023 l 277 1023 l 277 663 q 386 733 331 710 q 497 757 441 757 q 682 680 607 757 q 747 487 747 615 l 747 0 l 565 0 l 565 323 q 552 496 565 451 q 511 564 540 542 q 437 587 481 587 q 341 549 381 587 q 285 448 300 512 q 277 296 277 414 l 277 0 l 93 0 l 93 1023 m 143 1074 l 346 1265 l 495 1265 l 697 1074 l 495 1074 l 422 1162 l 346 1074 l 143 1074 "},"Î":{"x_min":-83.109375,"x_max":471.421875,"ha":389,"o":"m 100 998 l 289 998 l 289 0 l 100 0 l 100 998 m -83 1075 l 120 1267 l 269 1267 l 471 1075 l 269 1075 l 195 1164 l 120 1075 l -83 1075 "},"e":{"x_min":59,"x_max":833,"ha":889,"o":"m 833 315 l 238 315 q 306 190 250 236 q 449 144 362 144 q 628 216 553 144 l 784 143 q 644 20 725 60 q 451 -19 563 -19 q 168 90 277 -19 q 59 364 59 200 q 167 645 59 533 q 440 757 276 757 q 723 645 614 757 q 833 350 833 533 l 833 315 m 647 461 q 574 561 628 522 q 449 600 520 600 q 314 556 372 600 q 246 461 277 529 l 647 461 "},"»":{"x_min":16.953125,"x_max":621.875,"ha":639,"o":"m 497 0 l 324 0 l 450 371 l 324 738 l 497 738 l 621 371 l 497 0 m 189 0 l 16 0 l 142 371 l 16 738 l 189 738 l 314 371 l 189 0 "},"∆":{"x_min":17.625,"x_max":831.4375,"ha":850,"o":"m 831 0 l 17 0 l 443 941 l 831 0 m 671 56 l 400 711 l 102 56 l 671 56 "},"ļ":{"x_min":-1.953125,"x_max":304,"ha":333,"o":"m 74 1023 l 259 1023 l 259 0 l 74 0 l 74 1023 m 80 -52 q 145 -52 121 -52 q 264 -87 224 -52 q 304 -170 304 -122 q 259 -262 304 -221 q 129 -303 215 -303 q -1 -278 73 -303 l 21 -190 q 96 -201 69 -201 q 168 -152 168 -201 q 113 -114 168 -114 q 62 -117 97 -114 l 80 -52 "},"Ĕ":{"x_min":111.609375,"x_max":664.109375,"ha":723,"o":"m 115 998 l 660 998 l 660 812 l 304 812 l 304 631 l 660 631 l 660 449 l 304 449 l 304 187 l 660 187 l 660 0 l 115 0 l 115 998 m 111 1266 l 261 1266 q 311 1224 279 1238 q 388 1210 342 1210 q 471 1226 434 1210 q 514 1266 495 1237 l 664 1266 q 581 1127 651 1179 q 387 1075 512 1075 q 246 1098 303 1075 q 155 1165 189 1121 q 111 1266 120 1209 "},"ò":{"x_min":58,"x_max":832,"ha":890,"o":"m 440 757 q 636 704 545 757 q 780 562 728 652 q 832 369 832 473 q 780 174 832 265 q 638 32 728 83 q 441 -19 549 -19 q 170 93 282 -19 q 58 368 58 206 q 184 656 58 541 q 440 757 296 757 m 443 583 q 299 522 357 583 q 242 369 242 462 q 299 213 242 272 q 442 153 355 153 q 587 213 529 153 q 645 369 645 274 q 588 523 645 464 q 443 583 531 583 m 412 1138 l 574 873 l 441 873 l 192 1138 l 412 1138 "},"ţ":{"x_min":21,"x_max":410,"ha":416,"o":"m 116 1010 l 300 1010 l 300 738 l 410 738 l 410 579 l 300 579 l 300 0 l 116 0 l 116 579 l 21 579 l 21 738 l 116 738 l 116 1010 m 147 -82 l 269 -82 l 269 -101 q 256 -222 269 -189 q 201 -290 243 -255 l 165 -253 q 206 -194 197 -227 l 147 -194 l 147 -82 "},"^":{"x_min":73.921875,"x_max":758.875,"ha":833,"o":"m 337 998 l 494 998 l 758 248 l 594 248 l 417 755 l 238 248 l 73 248 l 337 998 "},"«":{"x_min":16.953125,"x_max":621.875,"ha":639,"o":"m 141 738 l 314 738 l 188 366 l 314 0 l 141 0 l 16 366 l 141 738 m 448 738 l 621 738 l 496 366 l 621 0 l 448 0 l 324 366 l 448 738 "},"∙":{"x_min":88,"x_max":301,"ha":388,"o":"m 194 605 q 269 573 238 605 q 301 498 301 542 q 269 423 301 454 q 194 392 238 392 q 119 423 150 392 q 88 498 88 454 q 119 573 88 542 q 194 605 150 605 "},"ⁿ":{"x_min":52,"x_max":428,"ha":475,"o":"m 52 852 l 188 852 l 188 815 q 292 864 238 864 q 390 818 353 864 q 428 692 428 773 l 428 390 l 292 390 l 292 593 q 283 714 292 685 q 247 743 274 743 q 201 705 215 743 q 188 577 188 668 l 188 390 l 52 390 l 52 852 "},"í":{"x_min":37.046875,"x_max":418.375,"ha":333,"o":"m 73 738 l 259 738 l 259 0 l 73 0 l 73 738 m 199 1138 l 418 1138 l 170 873 l 37 873 l 199 1138 "},"ˆ":{"x_min":97.65625,"x_max":651.71875,"ha":750,"o":"m 97 873 l 301 1065 l 449 1065 l 651 873 l 449 873 l 376 961 l 301 873 l 97 873 "},"ū":{"x_min":93,"x_max":741,"ha":833,"o":"m 93 738 l 280 738 l 280 382 q 294 238 280 278 q 339 175 308 198 q 417 153 371 153 q 495 175 463 153 q 543 240 527 197 q 555 376 555 272 l 555 738 l 741 738 l 741 425 q 710 160 741 231 q 600 27 673 73 q 416 -19 528 -19 q 220 35 295 -19 q 114 186 145 89 q 93 430 93 253 l 93 738 m 224 873 l 224 1023 l 610 1023 l 610 873 l 224 873 "},"Ẅ":{"x_min":37.890625,"x_max":1215.125,"ha":1250,"o":"m 37 997 l 225 997 l 368 360 l 547 997 l 704 997 l 885 360 l 1027 997 l 1215 997 l 990 0 l 808 0 l 624 644 l 444 0 l 263 0 l 37 997 m 476 1269 q 545 1240 516 1269 q 574 1171 574 1211 q 545 1102 574 1131 q 476 1074 516 1074 q 407 1102 436 1074 q 379 1171 379 1131 q 407 1240 379 1211 q 476 1269 436 1269 m 776 1269 q 845 1240 816 1269 q 874 1171 874 1211 q 845 1102 874 1131 q 776 1074 816 1074 q 707 1102 736 1074 q 679 1171 679 1131 q 707 1240 679 1211 q 776 1269 736 1269 "},"ņ":{"x_min":94,"x_max":748,"ha":833,"o":"m 94 738 l 278 738 l 278 662 q 392 736 341 715 q 497 757 443 757 q 683 680 607 757 q 748 487 748 615 l 748 0 l 565 0 l 565 323 q 553 499 565 455 q 511 565 541 542 q 439 588 482 588 q 342 550 382 588 q 286 446 302 512 q 278 296 278 411 l 278 0 l 94 0 l 94 738 m 339 -52 q 404 -52 380 -52 q 523 -87 483 -52 q 563 -170 563 -122 q 518 -262 563 -221 q 388 -303 474 -303 q 257 -278 332 -303 l 281 -190 q 355 -201 328 -201 q 427 -152 427 -201 q 372 -114 427 -114 q 321 -117 356 -114 l 339 -52 "},"µ":{"x_min":60,"x_max":740,"ha":800,"o":"m 60 -270 l 60 738 l 248 738 l 248 350 q 264 225 248 263 q 319 162 281 187 q 401 137 357 137 q 479 160 445 137 q 532 226 514 183 q 550 355 550 270 l 550 738 l 740 738 l 740 0 l 550 0 l 550 85 q 483 4 520 29 q 399 -20 445 -20 q 315 3 352 -20 q 248 80 277 27 l 248 -270 l 60 -270 "},"ỳ":{"x_min":11.53125,"x_max":794.140625,"ha":806,"o":"m 11 738 l 200 738 l 392 274 l 604 738 l 794 738 l 331 -270 l 140 -270 l 292 54 l 11 738 m 370 1138 l 532 873 l 399 873 l 151 1138 l 370 1138 "},"č":{"x_min":58,"x_max":816.03125,"ha":889,"o":"m 816 588 l 662 504 q 576 567 618 549 q 476 584 533 584 q 309 522 373 584 q 245 363 245 460 q 306 209 245 269 q 468 150 368 150 q 662 234 592 150 l 807 135 q 472 -19 689 -19 q 168 96 278 -19 q 58 366 58 211 q 111 563 58 473 q 261 705 165 653 q 475 757 357 757 q 672 713 585 757 q 816 588 760 669 m 192 1064 l 395 1064 l 470 975 l 544 1065 l 746 1065 l 544 873 l 395 873 l 192 1064 "},"’":{"x_min":105,"x_max":276,"ha":389,"o":"m 105 1023 l 276 1023 l 276 929 q 253 775 276 839 q 179 642 231 710 l 113 694 q 150 758 138 731 q 173 829 162 784 l 105 829 l 105 1023 "},"-":{"x_min":119,"x_max":464,"ha":583,"o":"m 119 454 l 464 454 l 464 282 l 119 282 l 119 454 "},"Q":{"x_min":65,"x_max":1143.046875,"ha":1166,"o":"m 969 146 l 1143 -79 l 917 -79 l 829 34 q 586 -25 720 -25 q 213 129 361 -25 q 65 499 65 284 q 134 762 65 642 q 324 952 203 881 q 584 1023 445 1023 q 948 869 796 1023 q 1101 496 1101 716 q 969 146 1101 293 m 850 299 q 911 497 911 388 q 815 738 911 639 q 584 837 719 837 q 350 740 444 837 q 256 495 256 644 q 374 234 256 330 q 585 159 467 159 q 713 185 653 159 l 534 415 l 761 415 l 850 299 "},"M":{"x_min":37.984375,"x_max":1211.890625,"ha":1250,"o":"m 210 998 l 396 998 l 626 301 l 860 998 l 1043 998 l 1211 0 l 1028 0 l 921 630 l 709 0 l 541 0 l 332 630 l 223 0 l 37 0 l 210 998 "},"œ":{"x_min":56,"x_max":1446,"ha":1500,"o":"m 1446 313 l 847 313 q 916 188 859 235 q 1061 141 974 141 q 1233 210 1157 141 l 1394 136 q 1248 19 1330 57 q 1059 -19 1165 -19 q 752 122 860 -19 q 620 16 695 51 q 449 -19 544 -19 q 169 93 282 -19 q 56 370 56 206 q 171 642 56 528 q 449 757 287 757 q 570 739 512 757 q 678 688 629 721 q 752 614 714 664 q 1057 757 869 757 q 1263 703 1174 757 q 1398 556 1351 649 q 1446 313 1446 462 m 1261 458 q 1187 561 1240 525 q 1060 598 1134 598 q 928 559 985 598 q 853 458 872 520 l 1261 458 m 451 589 q 344 560 392 589 q 268 481 295 532 q 241 367 241 429 q 267 254 241 305 q 341 175 294 202 q 447 148 387 148 q 598 209 539 148 q 658 370 658 270 q 597 526 658 463 q 451 589 537 589 "},"ě":{"x_min":59,"x_max":833,"ha":889,"o":"m 833 315 l 238 315 q 306 190 250 236 q 449 144 362 144 q 628 216 553 144 l 784 143 q 644 20 725 60 q 451 -19 563 -19 q 168 90 277 -19 q 59 364 59 200 q 167 645 59 533 q 440 757 276 757 q 723 645 614 757 q 833 350 833 533 l 833 315 m 647 461 q 574 561 628 522 q 449 600 520 600 q 314 556 372 600 q 246 461 277 529 l 647 461 m 167 1064 l 371 1064 l 446 975 l 519 1064 l 721 1064 l 519 873 l 371 873 l 167 1064 "},"ũ":{"x_min":93,"x_max":741,"ha":833,"o":"m 93 738 l 280 738 l 280 382 q 294 238 280 278 q 339 175 308 198 q 417 153 371 153 q 495 175 463 153 q 543 240 527 197 q 555 376 555 272 l 555 738 l 741 738 l 741 425 q 710 160 741 231 q 600 27 673 73 q 416 -19 528 -19 q 220 35 294 -19 q 114 186 145 89 q 93 430 93 253 l 93 738 m 208 875 l 134 987 q 309 1055 221 1055 q 423 1031 343 1055 q 510 1017 478 1017 q 629 1052 567 1017 l 699 946 q 534 873 614 873 q 431 891 491 873 q 370 908 382 905 q 328 911 352 911 q 208 875 268 911 "},"ŭ":{"x_min":93,"x_max":741,"ha":833,"o":"m 93 738 l 280 738 l 280 382 q 294 238 280 278 q 339 175 308 198 q 417 153 371 153 q 495 175 463 153 q 543 240 527 197 q 555 376 555 272 l 555 738 l 741 738 l 741 425 q 710 160 741 231 q 600 27 673 73 q 416 -19 528 -19 q 220 35 294 -19 q 114 186 145 89 q 93 430 93 253 l 93 738 m 141 1064 l 290 1064 q 339 1022 308 1036 q 416 1008 371 1008 q 500 1024 462 1008 q 542 1064 524 1035 l 692 1064 q 610 925 679 977 q 416 873 540 873 q 275 896 332 873 q 184 963 219 919 q 141 1064 149 1006 "},"―":{"x_min":-8,"x_max":1050,"ha":1042,"o":"m -8 318 l -8 482 l 1050 482 l 1050 318 l -8 318 "},"{":{"x_min":9,"x_max":473,"ha":472,"o":"m 9 263 l 9 429 q 98 450 69 429 q 142 516 127 471 q 158 668 158 561 q 170 851 158 802 q 209 930 182 900 q 287 978 235 959 q 437 998 339 998 l 473 998 l 473 835 q 375 827 400 835 q 339 801 351 819 q 328 736 328 784 q 328 546 328 651 q 292 423 328 477 q 207 345 265 383 q 287 273 256 317 q 327 162 317 229 q 332 -27 332 133 q 341 -101 332 -86 q 374 -133 350 -122 q 473 -144 398 -144 l 473 -306 l 437 -306 q 291 -290 338 -306 q 214 -243 244 -274 q 171 -165 184 -212 q 158 -2 158 -118 q 144 172 158 126 q 100 240 130 217 q 9 263 70 263 "},"¼":{"x_min":62.125,"x_max":1142,"ha":1166,"o":"m 140 1010 l 321 1010 l 321 497 l 193 497 l 193 904 l 62 904 l 140 1010 m 314 -24 l 738 1023 l 854 1023 l 430 -24 l 314 -24 m 966 526 l 1090 526 l 1090 197 l 1142 197 l 1142 102 l 1090 102 l 1090 0 l 975 0 l 975 102 l 707 102 l 707 202 l 966 526 m 975 197 l 975 379 l 827 197 l 975 197 "},"#":{"x_min":41,"x_max":791,"ha":833,"o":"m 752 460 l 752 325 l 595 325 l 547 0 l 411 0 l 458 325 l 329 325 l 281 0 l 146 0 l 193 325 l 41 325 l 41 460 l 214 460 l 235 588 l 84 588 l 84 723 l 254 723 l 298 1023 l 430 1023 l 388 723 l 517 723 l 561 1023 l 697 1023 l 653 723 l 791 723 l 791 588 l 634 588 l 616 460 l 752 460 m 498 588 l 367 588 l 349 460 l 477 460 l 498 588 "},"Ĳ":{"x_min":100,"x_max":941,"ha":1055,"o":"m 100 998 l 289 998 l 289 0 l 100 0 l 100 998 m 750 998 l 941 998 l 941 335 q 922 131 941 197 q 843 19 903 64 q 694 -25 783 -25 q 414 119 530 -25 l 550 247 q 690 161 625 161 q 737 190 724 161 q 750 300 750 220 l 750 998 "},"Ê":{"x_min":108.890625,"x_max":663.4375,"ha":723,"o":"m 115 998 l 660 998 l 660 812 l 304 812 l 304 631 l 660 631 l 660 449 l 304 449 l 304 187 l 660 187 l 660 0 l 115 0 l 115 998 m 108 1075 l 312 1267 l 461 1267 l 663 1075 l 461 1075 l 388 1164 l 312 1075 l 108 1075 "},")":{"x_min":35.59375,"x_max":465,"ha":527,"o":"m 270 -289 l 35 -289 q 215 6 156 -152 q 275 371 275 165 q 209 760 275 592 q 35 1042 157 890 l 270 1042 q 421 719 378 869 q 465 365 465 569 q 419 16 465 166 q 270 -289 374 -133 "},"Å":{"x_min":33.375,"x_max":994.3125,"ha":1028,"o":"m 417 998 l 610 998 l 994 0 l 796 0 l 718 206 l 312 206 l 230 0 l 33 0 l 417 998 m 515 733 l 382 391 l 647 391 l 515 733 m 513 1379 q 618 1334 575 1379 q 662 1227 662 1290 q 618 1120 662 1164 q 513 1076 574 1076 q 408 1120 452 1076 q 365 1227 365 1164 q 408 1334 365 1290 q 513 1379 451 1379 m 513 1291 q 474 1273 490 1291 q 458 1230 458 1255 q 474 1187 458 1205 q 513 1170 491 1170 q 552 1187 535 1170 q 569 1230 569 1205 q 552 1273 569 1255 q 513 1291 536 1291 "},"¸":{"x_min":56.46875,"x_max":381,"ha":471,"o":"m 177 11 l 291 11 l 283 -20 q 354 -59 328 -30 q 381 -124 381 -89 q 334 -218 381 -179 q 206 -258 288 -258 q 56 -226 140 -258 l 80 -139 q 176 -155 129 -155 q 228 -141 211 -155 q 245 -107 245 -128 q 232 -80 245 -90 q 191 -70 219 -70 l 153 -70 l 177 11 "},"a":{"x_min":60,"x_max":824,"ha":918,"o":"m 639 738 l 824 738 l 824 0 l 639 0 l 639 78 q 530 3 584 26 q 412 -19 475 -19 q 164 91 268 -19 q 60 367 60 202 q 161 647 60 538 q 406 757 262 757 q 531 731 473 757 q 639 656 589 706 l 639 738 m 444 586 q 301 525 358 586 q 244 369 244 464 q 302 212 244 274 q 445 151 360 151 q 590 211 532 151 q 648 370 648 272 q 590 526 648 466 q 444 586 532 586 "},"Ę":{"x_min":115,"x_max":660.046875,"ha":723,"o":"m 115 998 l 660 998 l 660 812 l 304 812 l 304 631 l 660 631 l 660 449 l 304 449 l 304 186 l 660 186 l 660 0 l 115 0 l 115 998 m 470 0 l 567 0 q 473 -112 473 -56 q 492 -157 473 -139 q 543 -175 512 -175 q 602 -156 566 -175 l 602 -264 q 515 -275 555 -275 q 392 -238 435 -275 q 350 -146 350 -201 q 380 -66 350 -105 q 470 0 411 -26 "},"=":{"x_min":78,"x_max":756,"ha":834,"o":"m 78 729 l 756 729 l 756 559 l 78 559 l 78 729 m 78 439 l 756 439 l 756 269 l 78 269 l 78 439 "},"˚":{"x_min":101,"x_max":398,"ha":500,"o":"m 249 1176 q 354 1131 311 1176 q 398 1024 398 1087 q 354 917 398 961 q 249 873 310 873 q 144 917 188 873 q 101 1024 101 961 q 144 1131 101 1087 q 249 1176 187 1176 m 249 1088 q 210 1070 226 1088 q 194 1027 194 1052 q 210 984 194 1002 q 249 967 227 967 q 288 984 271 967 q 305 1027 305 1002 q 288 1070 305 1052 q 249 1088 272 1088 "},"ú":{"x_min":93,"x_max":741,"ha":833,"o":"m 93 738 l 280 738 l 280 382 q 294 238 280 278 q 339 175 308 198 q 417 153 371 153 q 495 175 463 153 q 543 240 527 197 q 555 376 555 272 l 555 738 l 741 738 l 741 425 q 710 160 741 231 q 600 27 673 73 q 416 -19 528 -19 q 220 35 294 -19 q 114 186 145 89 q 93 430 93 253 l 93 738 m 449 1138 l 668 1138 l 420 873 l 287 873 l 449 1138 "},"¯":{"x_min":-8,"x_max":703,"ha":695,"o":"m -8 1143 l 703 1143 l 703 1074 l -8 1074 l -8 1143 "},"Z":{"x_min":31.84375,"x_max":665.0625,"ha":695,"o":"m 61 998 l 665 998 l 308 182 l 642 182 l 642 0 l 31 0 l 386 810 l 61 810 l 61 998 "},"u":{"x_min":93,"x_max":741,"ha":833,"o":"m 93 738 l 280 738 l 280 382 q 294 238 280 278 q 339 175 308 198 q 417 153 371 153 q 495 175 463 153 q 543 240 527 197 q 555 376 555 272 l 555 738 l 741 738 l 741 425 q 710 160 741 231 q 600 27 673 73 q 416 -19 528 -19 q 220 35 294 -19 q 114 186 145 89 q 93 430 93 253 l 93 738 "},"k":{"x_min":95,"x_max":823.21875,"ha":806,"o":"m 95 1023 l 280 1023 l 280 433 l 552 738 l 784 738 l 467 383 l 823 0 l 593 0 l 280 339 l 280 0 l 95 0 l 95 1023 "},"Ù":{"x_min":107,"x_max":783,"ha":889,"o":"m 107 998 l 298 998 l 298 352 q 312 233 298 268 q 360 178 327 199 q 441 158 394 158 q 527 181 491 158 q 578 239 564 204 q 592 375 592 275 l 592 998 l 783 998 l 783 403 q 766 194 783 252 q 701 81 749 135 q 590 1 653 27 q 445 -25 528 -25 q 256 24 337 -25 q 141 149 176 74 q 107 403 107 224 l 107 998 m 411 1340 l 573 1075 l 440 1075 l 192 1340 l 411 1340 "},"⅝":{"x_min":19.03125,"x_max":1140,"ha":1166,"o":"m 312 -24 l 738 1022 l 854 1022 l 428 -24 l 312 -24 m 139 1010 l 430 1010 l 430 908 l 235 908 l 215 832 q 250 835 239 835 q 382 786 326 835 q 438 664 438 738 q 377 537 438 589 q 228 485 316 485 q 93 523 152 485 q 19 631 34 561 l 151 631 q 230 589 177 589 q 287 608 263 589 q 312 660 312 627 q 289 710 312 691 q 237 730 267 730 q 169 703 202 730 l 65 723 l 139 1010 m 1057 277 q 1140 146 1140 227 q 1086 35 1140 82 q 930 -12 1033 -12 q 772 29 829 -12 q 715 146 715 71 q 795 277 715 226 q 743 381 743 321 q 794 484 743 443 q 927 526 845 526 q 1060 482 1010 526 q 1111 379 1111 438 q 1057 277 1111 326 m 986 373 q 923 421 986 421 q 882 407 897 421 q 867 373 867 393 q 883 335 867 350 q 926 320 900 320 q 970 335 954 320 q 986 373 986 350 m 1012 153 q 986 200 1012 183 q 928 218 961 218 q 867 200 893 218 q 841 155 841 182 q 863 111 841 130 q 926 93 885 93 q 1012 153 1012 93 "},"Ů":{"x_min":107,"x_max":783,"ha":889,"o":"m 107 998 l 298 998 l 298 352 q 312 233 298 268 q 360 178 327 199 q 441 158 394 158 q 527 181 491 158 q 578 239 564 204 q 592 375 592 275 l 592 998 l 783 998 l 783 403 q 766 194 783 252 q 701 81 749 135 q 590 1 653 27 q 445 -25 528 -25 q 256 24 337 -25 q 141 149 176 74 q 107 403 107 224 l 107 998 m 452 1379 q 557 1334 514 1379 q 601 1227 601 1289 q 557 1119 601 1164 q 452 1075 513 1075 q 347 1119 391 1075 q 304 1227 304 1164 q 347 1334 304 1289 q 452 1379 390 1379 m 452 1291 q 413 1273 429 1291 q 397 1230 397 1255 q 413 1186 397 1204 q 452 1169 430 1169 q 491 1186 474 1169 q 508 1230 508 1204 q 491 1273 508 1255 q 452 1291 475 1291 "},"¢":{"x_min":57,"x_max":713,"ha":778,"o":"m 557 899 l 662 853 l 598 711 q 713 599 673 664 l 561 510 q 526 550 546 531 l 353 159 q 426 145 390 145 q 576 211 510 145 l 694 96 q 568 8 636 36 q 413 -19 500 -19 q 284 0 348 -19 l 209 -164 l 105 -120 l 186 58 q 57 369 57 186 q 104 571 57 483 q 236 708 151 659 q 426 757 321 757 q 491 751 455 757 l 557 899 m 420 587 q 288 529 336 587 q 241 366 241 471 q 266 241 241 299 l 420 587 "},"Ş":{"x_min":28.21875,"x_max":655,"ha":723,"o":"m 637 862 l 496 737 q 346 841 423 841 q 285 820 309 841 q 262 775 262 800 q 278 728 262 750 q 417 600 302 698 q 549 485 526 509 q 630 374 606 427 q 655 257 655 320 q 570 55 655 135 q 349 -25 485 -25 q 163 27 242 -25 q 28 191 84 79 l 187 287 q 353 155 259 155 q 434 183 401 155 q 468 249 468 212 q 443 317 468 283 q 333 421 418 351 q 122 626 170 554 q 75 770 75 698 q 154 948 75 874 q 349 1023 233 1023 q 491 988 423 1023 q 637 862 558 953 m 304 11 l 418 11 l 410 -20 q 481 -59 455 -30 q 508 -124 508 -89 q 461 -218 508 -179 q 333 -258 415 -258 q 183 -226 267 -258 l 207 -139 q 303 -155 256 -155 q 355 -141 338 -155 q 372 -107 372 -128 q 359 -79 372 -89 q 318 -69 346 -69 l 280 -69 l 304 11 "},"é":{"x_min":59,"x_max":833,"ha":889,"o":"m 833 315 l 238 315 q 306 190 250 236 q 449 144 362 144 q 628 216 553 144 l 784 143 q 644 20 725 60 q 451 -19 563 -19 q 168 90 277 -19 q 59 364 59 200 q 167 645 59 533 q 440 757 276 757 q 723 645 614 757 q 833 350 833 533 l 833 315 m 647 461 q 574 561 628 522 q 449 600 520 600 q 314 556 372 600 q 246 461 277 529 l 647 461 m 476 1138 l 695 1138 l 447 873 l 314 873 l 476 1138 "},"B":{"x_min":114,"x_max":738,"ha":806,"o":"m 114 0 l 114 998 l 270 998 q 469 980 406 998 q 612 892 559 956 q 665 740 665 827 q 641 637 665 683 q 563 549 617 590 q 695 442 653 507 q 738 291 738 378 q 694 137 738 207 q 582 34 651 68 q 393 0 514 0 l 114 0 m 304 817 l 304 607 l 345 607 q 447 636 414 607 q 481 715 481 665 q 449 789 481 762 q 352 817 417 817 l 304 817 m 304 437 l 304 181 l 351 181 q 510 210 469 181 q 552 297 552 240 q 503 399 552 362 q 343 437 455 437 l 304 437 "},"…":{"x_min":125,"x_max":1264,"ha":1389,"o":"m 693 193 q 768 162 737 193 q 800 87 800 131 q 768 12 800 43 q 693 -19 737 -19 q 618 12 649 -19 q 588 87 588 43 q 618 162 588 131 q 693 193 649 193 m 231 193 q 306 162 275 193 q 338 87 338 131 q 306 12 338 43 q 231 -19 275 -19 q 156 12 187 -19 q 125 87 125 43 q 156 162 125 131 q 231 193 187 193 m 1157 193 q 1232 162 1201 193 q 1264 87 1264 131 q 1232 12 1264 43 q 1157 -19 1201 -19 q 1082 12 1113 -19 q 1051 87 1051 43 q 1082 162 1051 131 q 1157 193 1113 193 "},"ē":{"x_min":59,"x_max":833,"ha":889,"o":"m 833 315 l 238 315 q 307 190 251 236 q 450 144 363 144 q 628 216 553 144 l 784 143 q 644 20 725 60 q 451 -19 563 -19 q 168 90 277 -19 q 59 364 59 200 q 167 645 59 533 q 440 757 276 757 q 723 645 614 757 q 833 350 833 533 l 833 315 m 647 461 q 575 561 629 522 q 450 600 521 600 q 314 556 372 600 q 246 461 277 529 l 647 461 m 254 873 l 254 1023 l 640 1023 l 640 873 l 254 873 "},"H":{"x_min":113,"x_max":831,"ha":944,"o":"m 113 998 l 306 998 l 306 621 l 639 621 l 639 998 l 831 998 l 831 0 l 639 0 l 639 437 l 306 437 l 306 0 l 113 0 l 113 998 "},"î":{"x_min":-110.796875,"x_max":443.453125,"ha":333,"o":"m 73 738 l 259 738 l 259 0 l 73 0 l 73 738 m -110 873 l 92 1064 l 241 1064 l 443 873 l 241 873 l 168 961 l 92 873 l -110 873 "},"−":{"x_min":78,"x_max":756,"ha":834,"o":"m 78 584 l 756 584 l 756 414 l 78 414 l 78 584 "},"⅜":{"x_min":26.671875,"x_max":1140,"ha":1166,"o":"m 171 869 l 47 869 q 239 1023 73 1023 q 366 982 316 1023 q 417 886 417 941 q 353 785 417 821 q 423 732 397 768 q 449 655 449 696 q 388 535 449 586 q 230 485 327 485 q 82 534 137 485 q 26 665 26 583 l 151 665 q 237 590 161 590 q 294 606 268 590 q 321 652 321 623 q 188 723 321 723 l 188 817 q 292 872 292 817 q 278 904 292 890 q 241 918 264 918 q 171 869 195 918 m 313 -25 l 739 1023 l 854 1023 l 429 -25 l 313 -25 m 1058 277 q 1140 146 1140 227 q 1087 35 1140 82 q 931 -12 1034 -12 q 766 35 817 -12 q 716 146 716 82 q 795 277 716 226 q 744 381 744 321 q 795 484 744 443 q 929 526 847 526 q 1063 481 1014 526 q 1112 379 1112 437 q 1058 277 1112 326 m 987 373 q 924 421 987 421 q 883 407 898 421 q 868 373 868 393 q 885 335 868 350 q 927 320 902 320 q 971 335 955 320 q 987 373 987 350 m 1013 153 q 987 200 1013 183 q 929 218 961 218 q 868 200 894 218 q 842 155 842 182 q 864 111 842 130 q 927 93 886 93 q 1013 153 1013 93 "},"≠":{"x_min":42,"x_max":719,"ha":762,"o":"m 544 729 l 719 729 l 719 559 l 471 559 l 420 439 l 719 439 l 719 269 l 347 269 l 221 -24 l 90 -24 l 216 269 l 42 269 l 42 439 l 289 439 l 340 559 l 42 559 l 42 729 l 413 729 l 539 1023 l 670 1023 l 544 729 "},"‼":{"x_min":75,"x_max":709,"ha":783,"o":"m 97 1023 l 284 1023 l 284 294 l 97 294 l 97 1023 m 499 1023 l 686 1023 l 686 294 l 499 294 l 499 1023 m 191 213 q 273 179 238 213 q 308 97 308 146 q 273 15 308 49 q 191 -19 239 -19 q 109 15 143 -19 q 75 97 75 49 q 109 180 75 147 q 191 213 144 213 m 592 213 q 674 179 639 213 q 709 97 709 146 q 675 15 709 49 q 592 -19 641 -19 q 509 14 543 -19 q 476 97 476 48 q 510 179 476 145 q 592 213 544 213 "},"¥":{"x_min":32.484375,"x_max":745.875,"ha":778,"o":"m 32 997 l 229 997 l 389 642 l 548 997 l 745 997 l 535 528 l 714 528 l 714 417 l 485 417 l 485 331 l 714 331 l 714 216 l 485 216 l 485 0 l 293 0 l 293 216 l 63 216 l 63 331 l 293 331 l 293 417 l 63 417 l 63 528 l 242 528 l 32 997 "},"Ĥ":{"x_min":113,"x_max":831,"ha":944,"o":"m 113 998 l 306 998 l 306 621 l 639 621 l 639 998 l 831 998 l 831 0 l 639 0 l 639 437 l 306 437 l 306 0 l 113 0 l 113 998 m 195 1075 l 398 1266 l 547 1266 l 749 1075 l 547 1075 l 474 1163 l 398 1075 l 195 1075 "},"U":{"x_min":107,"x_max":783,"ha":889,"o":"m 107 998 l 298 998 l 298 352 q 312 233 298 268 q 360 178 327 199 q 441 158 394 158 q 527 181 491 158 q 578 239 564 204 q 592 375 592 275 l 592 998 l 783 998 l 783 403 q 766 194 783 252 q 701 81 749 135 q 590 1 653 27 q 445 -25 528 -25 q 256 24 337 -25 q 141 149 176 74 q 107 403 107 224 l 107 998 "},"Ñ":{"x_min":115,"x_max":915,"ha":1028,"o":"m 115 998 l 296 998 l 725 341 l 725 998 l 915 998 l 915 0 l 732 0 l 305 654 l 305 0 l 115 0 l 115 998 m 307 1077 l 232 1189 q 408 1257 319 1257 q 522 1233 441 1257 q 609 1219 577 1219 q 727 1254 666 1219 l 798 1148 q 632 1075 712 1075 q 530 1093 589 1075 q 468 1110 481 1107 q 426 1113 450 1113 q 307 1077 366 1113 "},"F":{"x_min":117,"x_max":612.203125,"ha":667,"o":"m 117 998 l 612 998 l 612 813 l 305 813 l 305 631 l 612 631 l 612 449 l 305 449 l 305 0 l 117 0 l 117 998 "},"ĵ":{"x_min":-96.453125,"x_max":457.78125,"ha":361,"o":"m -96 873 l 107 1065 l 255 1065 l 457 873 l 255 873 l 182 962 l 107 873 l -96 873 m 88 738 l 274 738 l 274 -24 q 217 -238 274 -187 q 79 -289 160 -289 q -59 -261 21 -289 l -59 -114 q 17 -136 -16 -136 q 70 -114 53 -136 q 88 -37 88 -93 l 88 738 "},"ā":{"x_min":60,"x_max":824,"ha":918,"o":"m 639 738 l 824 738 l 824 0 l 639 0 l 639 78 q 529 3 584 26 q 411 -19 475 -19 q 164 91 268 -19 q 60 367 60 202 q 160 647 60 538 q 406 757 261 757 q 530 731 472 757 q 639 656 589 706 l 639 738 m 444 586 q 301 525 358 586 q 244 369 244 464 q 302 212 244 274 q 445 151 360 151 q 590 211 532 151 q 648 370 648 272 q 590 526 648 466 q 444 586 532 586 m 248 873 l 248 1023 l 634 1023 l 634 873 l 248 873 "},"Ĩ":{"x_min":-88.53125,"x_max":477.53125,"ha":389,"o":"m 100 998 l 289 998 l 289 0 l 100 0 l 100 998 m -13 1077 l -88 1189 q 87 1257 -1 1257 q 201 1233 120 1257 q 288 1219 256 1219 q 407 1254 345 1219 l 477 1148 q 312 1075 392 1075 q 209 1093 269 1075 q 147 1110 160 1107 q 105 1113 129 1113 q -13 1077 45 1113 "},"ă":{"x_min":60,"x_max":824,"ha":918,"o":"m 639 738 l 824 738 l 824 0 l 639 0 l 639 78 q 530 3 584 26 q 412 -19 475 -19 q 164 91 268 -19 q 60 367 60 202 q 161 647 60 538 q 406 757 262 757 q 531 731 473 757 q 639 656 589 706 l 639 738 m 444 586 q 301 525 358 586 q 244 369 244 464 q 302 212 244 274 q 445 151 360 151 q 590 211 532 151 q 648 370 648 272 q 590 526 648 466 q 444 586 532 586 m 170 1064 l 320 1064 q 369 1022 338 1036 q 446 1008 401 1008 q 530 1024 492 1008 q 572 1064 554 1035 l 722 1064 q 640 925 709 977 q 445 873 570 873 q 305 896 361 873 q 213 963 248 919 q 170 1064 179 1006 "},"*":{"x_min":35.265625,"x_max":575.765625,"ha":611,"o":"m 224 1023 l 396 1023 l 343 818 l 496 963 l 575 814 l 368 761 l 575 702 l 486 555 l 338 702 l 390 499 l 224 499 l 276 702 l 125 555 l 35 702 l 242 761 l 35 818 l 125 970 l 276 818 l 224 1023 "},"†":{"x_min":27.421875,"x_max":755.9375,"ha":778,"o":"m 300 1023 l 481 1023 l 448 651 l 755 684 l 755 500 l 465 537 l 465 -270 l 317 -270 l 317 537 l 27 500 l 27 684 l 333 651 l 300 1023 "},"∕":{"x_min":-159.375,"x_max":381.125,"ha":222,"o":"m -159 -25 l 265 1023 l 381 1023 l -43 -25 l -159 -25 "},"°":{"x_min":44,"x_max":512,"ha":555,"o":"m 512 789 q 443 623 512 691 q 277 556 375 556 q 111 623 179 556 q 44 791 44 691 q 113 955 44 887 q 279 1023 183 1023 q 443 955 375 1023 q 512 789 512 887 m 431 787 q 387 900 431 855 q 280 946 343 946 q 170 900 215 946 q 125 789 125 854 q 170 678 125 725 q 279 632 216 632 q 386 677 341 632 q 431 787 431 723 "},"å":{"x_min":60,"x_max":824,"ha":918,"o":"m 639 738 l 824 738 l 824 0 l 639 0 l 639 78 q 530 3 584 26 q 411 -19 475 -19 q 164 91 268 -19 q 60 367 60 202 q 160 647 60 538 q 406 757 261 757 q 531 731 472 757 q 639 656 589 706 l 639 738 m 444 586 q 301 525 358 586 q 244 369 244 464 q 302 212 244 274 q 445 151 360 151 q 590 211 532 151 q 648 370 648 272 q 590 526 648 466 q 444 586 532 586 m 458 1176 q 563 1131 520 1176 q 607 1024 607 1087 q 563 917 607 961 q 458 873 519 873 q 353 917 397 873 q 310 1024 310 961 q 353 1131 310 1087 q 458 1176 396 1176 m 458 1088 q 419 1070 435 1088 q 403 1027 403 1052 q 419 984 403 1002 q 458 967 436 967 q 497 984 480 967 q 514 1027 514 1002 q 497 1070 514 1052 q 458 1088 481 1088 "},"0":{"x_min":39,"x_max":739,"ha":778,"o":"m 386 1023 q 574 969 495 1023 q 695 805 652 915 q 739 498 739 695 q 695 189 739 299 q 577 26 651 78 q 391 -25 503 -25 q 202 27 278 -25 q 82 186 125 79 q 39 489 39 292 q 123 887 39 764 q 386 1023 218 1023 m 390 843 q 305 812 342 843 q 248 705 268 781 q 229 485 229 630 q 274 223 229 295 q 390 151 319 151 q 500 219 459 151 q 550 496 550 302 q 505 768 550 693 q 390 843 461 843 "},"ō":{"x_min":58,"x_max":832,"ha":890,"o":"m 440 757 q 636 704 545 757 q 780 562 728 652 q 832 369 832 473 q 780 174 832 265 q 638 32 728 83 q 441 -19 549 -19 q 170 93 282 -19 q 58 368 58 206 q 184 656 58 541 q 440 757 296 757 m 443 583 q 299 522 357 583 q 242 369 242 462 q 299 213 242 272 q 442 153 355 153 q 587 213 529 153 q 645 369 645 274 q 588 523 645 464 q 443 583 531 583 m 252 873 l 252 1023 l 638 1023 l 638 873 l 252 873 "},"”":{"x_min":108,"x_max":556,"ha":667,"o":"m 385 1023 l 556 1023 l 556 929 q 533 775 556 839 q 458 642 511 710 l 393 694 q 430 758 418 731 q 452 829 442 784 l 385 829 l 385 1023 m 108 1023 l 279 1023 l 279 929 q 256 775 279 839 q 182 642 234 710 l 116 694 q 153 758 141 731 q 176 829 165 784 l 108 829 l 108 1023 "},"ŵ":{"x_min":11.53125,"x_max":1099.3125,"ha":1111,"o":"m 11 738 l 192 738 l 341 318 l 501 738 l 611 738 l 768 322 l 916 738 l 1099 738 l 830 0 l 712 0 l 555 420 l 393 0 l 277 0 l 11 738 m 278 873 l 481 1065 l 630 1065 l 832 873 l 630 873 l 556 961 l 481 873 l 278 873 "},"Ķ":{"x_min":115,"x_max":840.625,"ha":862,"o":"m 115 998 l 307 998 l 307 654 l 578 998 l 806 998 l 457 552 l 840 0 l 615 0 l 307 443 l 307 0 l 115 0 l 115 998 m 343 -52 q 408 -52 385 -52 q 528 -87 488 -52 q 568 -170 568 -122 q 523 -262 568 -221 q 393 -303 479 -303 q 261 -278 336 -303 l 285 -190 q 359 -201 332 -201 q 432 -152 432 -201 q 376 -114 432 -114 q 326 -117 360 -114 l 343 -52 "},"ö":{"x_min":58,"x_max":832,"ha":890,"o":"m 440 757 q 636 704 545 757 q 780 562 728 652 q 832 369 832 473 q 780 174 832 265 q 638 32 728 83 q 441 -19 549 -19 q 170 93 282 -19 q 58 368 58 206 q 184 656 58 541 q 440 757 296 757 m 443 583 q 299 522 357 583 q 242 369 242 462 q 299 213 242 272 q 442 153 355 153 q 587 213 529 153 q 645 369 645 274 q 588 523 645 464 q 443 583 531 583 m 294 1067 q 363 1038 334 1067 q 392 969 392 1009 q 363 900 392 929 q 294 872 334 872 q 225 900 254 872 q 197 969 197 929 q 225 1038 197 1009 q 294 1067 254 1067 m 594 1067 q 663 1038 634 1067 q 692 969 692 1009 q 663 900 692 929 q 594 872 634 872 q 525 900 554 872 q 497 969 497 929 q 525 1038 497 1009 q 594 1067 554 1067 "},"ǽ":{"x_min":60,"x_max":1446,"ha":1500,"o":"m 673 738 l 843 738 l 843 683 q 1060 757 935 757 q 1257 705 1167 757 q 1396 561 1347 653 q 1446 356 1446 470 l 1446 314 l 851 314 q 923 187 868 233 q 1067 142 979 142 q 1158 158 1118 142 q 1240 216 1198 175 l 1396 143 q 1311 55 1359 89 q 1201 0 1263 20 q 1065 -19 1139 -19 q 843 53 930 -19 l 843 0 l 673 0 l 673 93 q 561 7 619 33 q 428 -19 503 -19 q 165 90 271 -19 q 60 366 60 200 q 168 643 60 530 q 426 757 276 757 q 578 721 508 757 q 673 641 626 696 l 673 738 m 1261 458 q 1192 560 1244 521 q 1067 599 1140 599 q 939 562 992 599 q 860 458 885 526 l 1261 458 m 463 589 q 310 526 371 589 q 249 367 249 463 q 308 211 249 273 q 461 150 368 150 q 615 211 556 150 q 674 373 674 272 q 614 527 674 466 q 463 589 554 589 m 786 1138 l 1005 1138 l 757 873 l 624 873 l 786 1138 "},"Ļ":{"x_min":114,"x_max":580.703125,"ha":611,"o":"m 114 997 l 304 997 l 304 181 l 580 181 l 580 0 l 114 0 l 114 997 m 227 -52 q 292 -52 268 -52 q 411 -87 371 -52 q 451 -170 451 -122 q 406 -262 451 -221 q 276 -303 362 -303 q 145 -278 220 -303 l 168 -190 q 243 -201 216 -201 q 315 -152 315 -201 q 260 -114 315 -114 q 209 -117 244 -114 l 227 -52 "},"Õ":{"x_min":65,"x_max":1101,"ha":1166,"o":"m 585 1023 q 948 869 796 1023 q 1101 495 1101 716 q 950 126 1101 277 q 586 -25 800 -25 q 213 130 361 -25 q 65 499 65 285 q 134 762 65 642 q 324 952 203 882 q 585 1023 445 1023 m 582 837 q 350 740 444 837 q 256 495 256 644 q 374 234 256 330 q 586 159 466 159 q 816 256 721 159 q 911 497 911 354 q 815 738 911 639 q 582 837 719 837 m 374 1077 l 300 1189 q 475 1257 386 1257 q 589 1233 508 1257 q 677 1219 644 1219 q 795 1254 734 1219 l 865 1148 q 700 1075 780 1075 q 597 1093 657 1075 q 536 1110 548 1107 q 494 1113 518 1113 q 374 1077 434 1113 "},"№":{"x_min":113,"x_max":1490,"ha":1542,"o":"m 113 998 l 294 998 l 723 341 l 723 998 l 913 998 l 913 0 l 730 0 l 303 654 l 303 0 l 113 0 l 113 998 m 1489 446 q 1418 278 1489 348 q 1251 209 1348 209 q 1083 278 1152 209 q 1014 446 1014 348 q 1083 614 1014 544 q 1251 684 1153 684 q 1418 614 1348 684 q 1489 446 1489 544 m 1366 446 q 1332 527 1366 493 q 1251 561 1298 561 q 1169 527 1203 561 q 1136 446 1136 493 q 1169 364 1136 398 q 1251 331 1202 331 q 1332 364 1298 331 q 1366 446 1366 398 m 1014 119 l 1490 119 l 1490 0 l 1014 0 l 1014 119 "},"ć":{"x_min":58,"x_max":816.03125,"ha":889,"o":"m 816 588 l 662 504 q 576 567 618 549 q 476 584 533 584 q 309 522 373 584 q 245 363 245 460 q 306 209 245 269 q 468 150 368 150 q 662 234 592 150 l 807 135 q 472 -19 689 -19 q 168 96 278 -19 q 58 366 58 211 q 111 563 58 473 q 261 705 165 653 q 475 757 357 757 q 672 713 585 757 q 816 588 760 669 m 502 1138 l 721 1138 l 472 873 l 339 873 l 502 1138 "},"þ":{"x_min":94,"x_max":857.46875,"ha":917,"o":"m 278 1023 l 278 656 q 386 731 328 706 q 511 757 444 757 q 756 647 655 757 q 857 367 857 538 q 753 91 857 202 q 505 -19 648 -19 q 387 3 442 -19 q 278 78 332 26 l 278 -270 l 94 -270 l 94 1023 l 278 1023 m 472 586 q 327 526 385 586 q 270 370 270 466 q 327 211 270 272 q 472 151 385 151 q 615 212 557 151 q 673 369 673 274 q 616 525 673 464 q 472 586 559 586 "},"]":{"x_min":32.125,"x_max":329,"ha":444,"o":"m 329 -270 l 32 -270 l 32 -97 l 142 -97 l 142 850 l 32 850 l 32 1023 l 329 1023 l 329 -270 "},"′":{"x_min":94,"x_max":279.8125,"ha":306,"o":"m 194 681 l 94 681 l 94 1023 l 279 1023 l 194 681 "},"ẁ":{"x_min":11.53125,"x_max":1099.3125,"ha":1111,"o":"m 11 738 l 192 738 l 341 318 l 501 738 l 611 738 l 768 322 l 916 738 l 1099 738 l 830 0 l 712 0 l 555 420 l 393 0 l 277 0 l 11 738 m 522 1139 l 684 873 l 552 873 l 303 1139 l 522 1139 "},"ĭ":{"x_min":-109.78125,"x_max":442.4375,"ha":333,"o":"m 74 738 l 260 738 l 260 0 l 74 0 l 74 738 m -109 1064 l 40 1064 q 89 1022 57 1036 q 166 1008 120 1008 q 249 1024 212 1008 q 292 1064 274 1035 l 442 1064 q 360 925 429 977 q 165 873 290 873 q 24 896 81 873 q -66 963 -31 919 q -109 1064 -100 1006 "},"8":{"x_min":43,"x_max":735,"ha":778,"o":"m 593 541 q 698 429 661 497 q 735 281 735 361 q 691 122 735 195 q 576 11 648 48 q 391 -25 503 -25 q 199 10 270 -25 q 85 118 128 46 q 43 281 43 190 q 77 425 43 360 q 180 541 111 490 q 112 637 135 586 q 90 745 90 688 q 127 887 90 823 q 233 987 165 951 q 389 1023 300 1023 q 543 987 477 1023 q 648 885 610 951 q 687 743 687 818 q 666 643 687 689 q 593 541 646 598 m 383 840 q 307 809 337 840 q 277 730 277 778 q 308 649 277 682 q 387 617 340 617 q 466 648 435 617 q 497 731 497 680 q 465 809 497 779 q 383 840 434 840 m 390 440 q 275 398 322 440 q 229 298 229 356 q 272 196 229 238 q 388 155 316 155 q 504 194 461 155 q 547 294 547 233 q 502 398 547 356 q 390 440 457 440 "},"R":{"x_min":127,"x_max":766.796875,"ha":806,"o":"m 127 998 l 328 998 q 564 968 494 998 q 677 870 634 939 q 720 708 720 802 q 672 544 720 610 q 530 444 625 477 l 766 0 l 559 0 l 334 423 l 317 423 l 317 0 l 127 0 l 127 998 m 317 608 l 376 608 q 501 631 467 608 q 536 710 536 655 q 519 766 536 742 q 473 801 502 790 q 369 812 445 812 l 317 812 l 317 608 "},"ť":{"x_min":21,"x_max":542,"ha":499,"o":"m 404 1023 l 542 1023 l 542 989 q 463 759 542 854 l 410 800 q 458 908 454 855 l 404 908 l 404 1023 m 116 1010 l 300 1010 l 300 738 l 410 738 l 410 579 l 300 579 l 300 0 l 116 0 l 116 579 l 21 579 l 21 738 l 116 738 l 116 1010 "},"Ľ":{"x_min":114,"x_max":580.703125,"ha":611,"o":"m 114 997 l 304 997 l 304 181 l 580 181 l 580 0 l 114 0 l 114 997 m 393 1023 l 564 1023 l 564 929 q 541 775 564 839 q 467 642 519 710 l 401 694 q 438 758 426 731 q 461 829 450 784 l 393 829 l 393 1023 "},"Ż":{"x_min":31.84375,"x_max":665.0625,"ha":695,"o":"m 61 998 l 665 998 l 309 182 l 642 182 l 642 0 l 31 0 l 387 810 l 61 810 l 61 998 m 330 1269 q 399 1240 370 1269 q 428 1171 428 1211 q 399 1102 428 1131 q 330 1074 370 1074 q 261 1102 290 1074 q 233 1171 233 1131 q 261 1240 233 1211 q 330 1269 290 1269 "},"o":{"x_min":58,"x_max":832,"ha":890,"o":"m 440 757 q 636 704 545 757 q 780 562 728 652 q 832 369 832 473 q 780 174 832 265 q 638 32 728 83 q 441 -19 549 -19 q 170 93 282 -19 q 58 368 58 206 q 184 656 58 541 q 440 757 296 757 m 443 583 q 299 522 357 583 q 242 369 242 462 q 299 213 242 272 q 442 153 355 153 q 587 213 529 153 q 645 369 645 274 q 588 523 645 464 q 443 583 531 583 "},"5":{"x_min":32.609375,"x_max":713,"ha":778,"o":"m 232 998 l 699 998 l 699 823 l 373 823 l 333 641 q 366 648 350 646 q 397 651 382 651 q 623 558 533 651 q 713 321 713 465 q 613 75 713 175 q 371 -25 514 -25 q 152 47 244 -25 q 32 246 61 119 l 232 246 q 292 175 255 199 q 375 151 330 151 q 482 196 438 151 q 527 313 527 242 q 485 427 527 382 q 386 472 444 472 q 325 456 355 472 q 265 409 295 440 l 111 444 l 232 998 "},"ħ":{"x_min":0,"x_max":750,"ha":833,"o":"m 278 939 l 496 939 l 496 828 l 278 828 l 278 663 q 497 757 381 757 q 679 687 608 757 q 750 487 750 617 l 750 0 l 565 0 l 565 323 q 555 484 565 435 q 516 560 546 533 q 438 587 486 587 q 341 549 382 587 q 289 462 301 512 q 278 296 278 413 l 278 0 l 93 0 l 93 828 l 0 828 l 0 939 l 93 939 l 93 1023 l 278 1023 l 278 939 "},"õ":{"x_min":58,"x_max":832,"ha":890,"o":"m 440 757 q 636 704 545 757 q 780 562 728 652 q 832 369 832 473 q 780 174 832 265 q 638 32 728 83 q 441 -19 549 -19 q 170 93 282 -19 q 58 368 58 206 q 184 656 58 541 q 440 757 296 757 m 443 583 q 299 522 357 583 q 242 369 242 462 q 299 213 242 272 q 442 153 355 153 q 587 213 529 153 q 645 369 645 274 q 588 523 645 464 q 443 583 531 583 m 237 875 l 162 987 q 338 1055 249 1055 q 452 1031 371 1055 q 539 1017 507 1017 q 657 1052 596 1017 l 728 946 q 562 873 642 873 q 460 891 520 873 q 398 908 411 905 q 356 911 380 911 q 237 875 296 911 "},",":{"x_min":54.9375,"x_max":314.671875,"ha":389,"o":"m 182 187 l 314 121 l 147 -164 l 54 -120 l 182 187 "},"d":{"x_min":60,"x_max":824,"ha":918,"o":"m 639 1023 l 824 1023 l 824 0 l 639 0 l 639 78 q 530 3 584 26 q 412 -19 475 -19 q 164 91 268 -19 q 60 367 60 202 q 161 647 60 538 q 406 757 262 757 q 531 731 473 757 q 639 656 589 706 l 639 1023 m 444 586 q 301 525 358 586 q 244 369 244 464 q 302 212 244 274 q 445 151 360 151 q 590 211 532 151 q 648 370 648 272 q 590 526 648 466 q 444 586 532 586 "},"\"":{"x_min":21.015625,"x_max":480.828125,"ha":500,"o":"m 442 681 l 337 681 l 299 1023 l 480 1023 l 442 681 m 164 681 l 58 681 l 21 1023 l 202 1023 l 164 681 "},"˙":{"x_min":97,"x_max":292,"ha":389,"o":"m 194 1067 q 263 1038 234 1067 q 292 969 292 1009 q 263 900 292 929 q 194 872 234 872 q 125 900 154 872 q 97 969 97 929 q 125 1038 97 1009 q 194 1067 154 1067 "},"ê":{"x_min":59,"x_max":833,"ha":889,"o":"m 833 315 l 238 315 q 306 190 250 236 q 449 144 362 144 q 628 216 553 144 l 784 143 q 644 20 725 60 q 451 -19 563 -19 q 168 90 277 -19 q 59 364 59 200 q 167 645 59 533 q 440 757 276 757 q 723 645 614 757 q 833 350 833 533 l 833 315 m 647 461 q 574 561 628 522 q 449 600 520 600 q 314 556 372 600 q 246 461 277 529 l 647 461 m 167 873 l 371 1064 l 519 1064 l 721 873 l 519 873 l 446 961 l 371 873 l 167 873 "},"″":{"x_min":52,"x_max":517.484375,"ha":500,"o":"m 431 681 l 331 681 l 331 1023 l 517 1023 l 431 681 m 152 681 l 52 681 l 52 1023 l 238 1023 l 152 681 "},"„":{"x_min":108,"x_max":556,"ha":667,"o":"m 385 194 l 556 194 l 556 100 q 533 -53 556 10 q 458 -185 511 -118 l 393 -134 q 430 -70 418 -97 q 452 0 442 -44 l 385 0 l 385 194 m 108 194 l 279 194 l 279 100 q 256 -53 279 10 q 182 -185 234 -118 l 116 -134 q 153 -70 141 -97 q 176 0 165 -44 l 108 0 l 108 194 "},"ľ":{"x_min":74,"x_max":497,"ha":438,"o":"m 74 1023 l 259 1023 l 259 0 l 74 0 l 74 1023 m 326 1023 l 497 1023 l 497 929 q 474 775 497 839 q 400 642 452 710 l 334 694 q 371 758 359 731 q 394 829 383 784 l 326 829 l 326 1023 "},"Â":{"x_min":33.234375,"x_max":994.203125,"ha":1027,"o":"m 417 998 l 610 998 l 994 0 l 796 0 l 718 206 l 311 206 l 230 0 l 33 0 l 417 998 m 515 733 l 382 391 l 647 391 l 515 733 m 236 1076 l 440 1267 l 588 1267 l 790 1076 l 588 1076 l 515 1164 l 440 1076 l 236 1076 "},"Į":{"x_min":71,"x_max":323.53125,"ha":389,"o":"m 100 997 l 289 997 l 289 0 l 100 0 l 100 997 m 191 0 l 289 0 q 194 -112 194 -56 q 213 -157 194 -139 q 264 -175 233 -175 q 323 -156 287 -175 l 323 -264 q 236 -275 276 -275 q 113 -238 156 -275 q 71 -146 71 -201 q 101 -66 71 -105 q 191 0 132 -26 "},"ė":{"x_min":59,"x_max":833,"ha":889,"o":"m 833 315 l 237 315 q 306 190 250 236 q 449 144 362 144 q 628 216 553 144 l 784 143 q 644 20 725 60 q 451 -19 563 -19 q 168 90 277 -19 q 59 364 59 200 q 167 645 59 533 q 440 757 276 757 q 723 645 614 757 q 833 350 833 533 l 833 315 m 647 461 q 574 561 628 522 q 449 600 520 600 q 313 556 372 600 q 246 461 277 529 l 647 461 m 446 1067 q 515 1038 486 1067 q 544 969 544 1009 q 515 900 544 929 q 446 872 486 872 q 377 900 406 872 q 349 969 349 929 q 377 1038 349 1009 q 446 1067 406 1067 "},"Ţ":{"x_min":16,"x_max":567,"ha":583,"o":"m 16 998 l 567 998 l 567 811 l 389 811 l 389 0 l 196 0 l 196 811 l 16 811 l 16 998 m 231 -82 l 353 -82 l 353 -101 q 340 -222 353 -189 q 285 -290 327 -255 l 249 -253 q 290 -194 281 -227 l 231 -194 l 231 -82 "},"Í":{"x_min":64.734375,"x_max":446.328125,"ha":389,"o":"m 100 998 l 289 998 l 289 0 l 100 0 l 100 998 m 227 1341 l 446 1341 l 197 1075 l 64 1075 l 227 1341 "},"´":{"x_min":162.078125,"x_max":543.21875,"ha":583,"o":"m 324 1139 l 543 1139 l 295 873 l 162 873 l 324 1139 "},"Ú":{"x_min":107,"x_max":783,"ha":889,"o":"m 107 998 l 298 998 l 298 352 q 312 233 298 268 q 360 178 327 199 q 441 158 394 158 q 527 181 491 158 q 578 239 564 204 q 592 375 592 275 l 592 998 l 783 998 l 783 403 q 766 194 783 252 q 701 81 749 135 q 590 1 653 27 q 445 -25 528 -25 q 256 24 337 -25 q 141 149 176 74 q 107 403 107 224 l 107 998 m 476 1340 l 696 1340 l 447 1075 l 314 1075 l 476 1340 "},"Ŷ":{"x_min":43.03125,"x_max":818.609375,"ha":861,"o":"m 43 998 l 247 998 l 432 639 l 617 998 l 818 998 l 527 432 l 527 0 l 336 0 l 336 432 l 43 998 m 153 1075 l 357 1267 l 505 1267 l 707 1075 l 505 1075 l 432 1163 l 357 1075 l 153 1075 "},"ŝ":{"x_min":20.28125,"x_max":573.921875,"ha":611,"o":"m 545 634 l 431 519 q 304 589 361 589 q 255 575 273 589 q 238 542 238 562 q 249 515 238 528 q 304 481 260 503 l 372 447 q 519 339 479 394 q 559 210 559 284 q 486 46 559 112 q 293 -19 414 -19 q 35 107 132 -19 l 149 231 q 226 170 182 193 q 303 147 269 147 q 362 164 340 147 q 385 205 385 182 q 304 288 385 247 l 242 319 q 63 545 63 409 q 130 694 63 632 q 302 757 197 757 q 438 725 374 757 q 545 634 501 693 m 20 873 l 223 1064 l 372 1064 l 573 873 l 372 873 l 298 961 l 223 873 l 20 873 "},"Ý":{"x_min":43.03125,"x_max":818.609375,"ha":861,"o":"m 43 998 l 247 998 l 432 639 l 617 998 l 818 998 l 527 432 l 527 0 l 336 0 l 336 432 l 43 998 m 463 1341 l 682 1341 l 434 1075 l 301 1075 l 463 1341 "},"Ĉ":{"x_min":64,"x_max":1030.171875,"ha":1082,"o":"m 1030 821 l 897 694 q 592 838 761 838 q 350 740 448 838 q 253 499 253 642 q 296 322 253 399 q 419 201 339 245 q 595 157 498 157 q 746 187 678 157 q 897 300 815 218 l 1026 165 q 817 16 915 58 q 592 -25 718 -25 q 212 122 360 -25 q 64 500 64 270 q 131 765 64 649 q 324 952 198 881 q 595 1023 450 1023 q 833 970 718 1023 q 1030 821 947 918 m 295 1075 l 498 1267 l 647 1267 l 849 1075 l 647 1075 l 573 1163 l 498 1075 l 295 1075 "},"ą":{"x_min":60,"x_max":867.53125,"ha":917,"o":"m 639 737 l 824 737 l 824 0 l 639 0 l 639 77 q 529 2 584 25 q 411 -20 475 -20 q 164 91 268 -20 q 60 367 60 202 q 160 647 60 538 q 406 757 261 757 q 530 731 472 757 q 639 656 589 706 l 639 737 m 444 586 q 301 525 358 586 q 244 369 244 464 q 302 211 244 273 q 445 150 360 150 q 590 210 532 150 q 648 370 648 271 q 590 526 648 466 q 444 586 532 586 m 735 0 l 833 0 q 738 -112 738 -57 q 757 -157 738 -139 q 808 -175 777 -175 q 867 -156 832 -175 l 867 -264 q 780 -275 820 -275 q 657 -238 700 -275 q 615 -146 615 -201 q 645 -66 615 -105 q 735 0 676 -26 "},"Ö":{"x_min":65,"x_max":1101,"ha":1166,"o":"m 585 1023 q 948 869 796 1023 q 1101 495 1101 716 q 950 126 1101 277 q 586 -25 800 -25 q 213 130 361 -25 q 65 499 65 285 q 134 762 65 642 q 324 952 203 882 q 585 1023 445 1023 m 582 837 q 350 740 444 837 q 256 495 256 644 q 374 234 256 330 q 586 159 466 159 q 816 256 721 159 q 911 497 911 354 q 815 738 911 639 q 582 837 719 837 m 432 1269 q 501 1240 472 1269 q 530 1171 530 1211 q 501 1102 530 1131 q 432 1074 472 1074 q 363 1102 392 1074 q 335 1171 335 1131 q 363 1240 335 1211 q 432 1269 392 1269 m 733 1269 q 802 1240 773 1269 q 831 1171 831 1211 q 802 1102 831 1131 q 733 1074 773 1074 q 664 1102 693 1074 q 636 1171 636 1131 q 664 1240 636 1211 q 733 1269 693 1269 "},"z":{"x_min":11.125,"x_max":627.984375,"ha":639,"o":"m 62 738 l 627 738 l 295 157 l 609 157 l 609 0 l 11 0 l 344 581 l 62 581 l 62 738 "},"™":{"x_min":68,"x_max":1291,"ha":1388,"o":"m 1291 998 l 1291 428 l 1172 428 l 1172 896 l 985 428 l 925 428 l 745 896 l 745 428 l 626 428 l 626 998 l 806 998 l 955 631 l 1111 998 l 1291 998 m 548 998 l 548 898 l 370 898 l 370 428 l 247 428 l 247 898 l 68 898 l 68 998 l 548 998 "},"Ř":{"x_min":125.65625,"x_max":766.796875,"ha":806,"o":"m 127 998 l 328 998 q 564 968 494 998 q 677 870 634 939 q 720 708 720 802 q 672 544 720 610 q 530 444 625 477 l 766 0 l 559 0 l 334 423 l 317 423 l 317 0 l 127 0 l 127 998 m 317 608 l 376 608 q 501 631 467 608 q 536 710 536 655 q 519 766 536 742 q 473 801 502 790 q 369 812 445 812 l 317 812 l 317 608 m 125 1267 l 329 1267 l 404 1177 l 477 1267 l 679 1267 l 477 1075 l 329 1075 l 125 1267 "},"ã":{"x_min":60,"x_max":824,"ha":918,"o":"m 639 738 l 824 738 l 824 0 l 639 0 l 639 78 q 530 3 584 26 q 412 -19 475 -19 q 164 91 268 -19 q 60 367 60 202 q 161 647 60 538 q 406 757 262 757 q 531 731 473 757 q 639 656 589 706 l 639 738 m 444 586 q 301 525 358 586 q 244 369 244 464 q 302 212 244 274 q 445 151 360 151 q 590 211 532 151 q 648 370 648 272 q 590 526 648 466 q 444 586 532 586 m 250 875 l 175 987 q 351 1055 262 1055 q 465 1031 384 1055 q 553 1017 520 1017 q 671 1052 610 1017 l 741 946 q 576 873 656 873 q 473 891 533 873 q 411 908 424 905 q 369 911 394 911 q 250 875 310 911 "},"Ň":{"x_min":115,"x_max":915,"ha":1028,"o":"m 115 998 l 296 998 l 725 341 l 725 998 l 915 998 l 915 0 l 732 0 l 305 654 l 305 0 l 115 0 l 115 998 m 211 1267 l 414 1267 l 490 1177 l 563 1267 l 765 1267 l 563 1075 l 414 1075 l 211 1267 "},"æ":{"x_min":60,"x_max":1446,"ha":1500,"o":"m 673 738 l 843 738 l 843 683 q 1060 757 935 757 q 1257 705 1167 757 q 1396 561 1347 653 q 1446 356 1446 470 l 1446 314 l 851 314 q 923 187 868 233 q 1067 142 979 142 q 1158 158 1118 142 q 1240 216 1198 175 l 1396 143 q 1311 55 1359 89 q 1201 0 1263 20 q 1065 -19 1139 -19 q 843 53 930 -19 l 843 0 l 673 0 l 673 93 q 561 7 619 33 q 428 -19 503 -19 q 165 90 271 -19 q 60 366 60 200 q 168 643 60 530 q 426 757 276 757 q 578 721 508 757 q 673 641 626 696 l 673 738 m 1261 458 q 1192 560 1244 521 q 1067 599 1140 599 q 939 562 992 599 q 860 458 885 526 l 1261 458 m 463 589 q 310 526 371 589 q 249 367 249 463 q 308 211 249 273 q 461 150 368 150 q 615 211 556 150 q 674 373 674 272 q 614 527 674 466 q 463 589 554 589 "},"ĩ":{"x_min":-115.890625,"x_max":449.890625,"ha":333,"o":"m 74 738 l 260 738 l 260 0 l 74 0 l 74 738 m -41 875 l -115 987 q 59 1055 -29 1055 q 173 1031 93 1055 q 261 1017 228 1017 q 379 1052 318 1017 l 449 946 q 284 873 364 873 q 181 891 241 873 q 120 908 133 905 q 78 911 102 911 q -41 875 18 911 "},"É":{"x_min":115,"x_max":660.046875,"ha":723,"o":"m 115 998 l 660 998 l 660 812 l 304 812 l 304 631 l 660 631 l 660 449 l 304 449 l 304 187 l 660 187 l 660 0 l 115 0 l 115 998 m 419 1341 l 638 1341 l 390 1075 l 257 1075 l 419 1341 "},"ŀ":{"x_min":74,"x_max":502,"ha":482,"o":"m 74 1023 l 259 1023 l 259 0 l 74 0 l 74 1023 m 404 608 q 473 579 444 608 q 502 510 502 551 q 473 442 502 470 q 404 414 444 414 q 335 442 364 414 q 307 510 307 470 q 335 579 307 551 q 404 608 364 608 "},"~":{"x_min":68,"x_max":767,"ha":834,"o":"m 68 382 l 68 599 q 237 650 171 650 q 333 635 281 650 q 471 579 384 620 q 545 546 527 551 q 591 540 568 540 q 767 616 667 540 l 767 397 q 599 349 681 349 q 509 361 554 349 q 361 418 463 373 q 273 453 296 447 q 229 459 251 459 q 160 444 195 459 q 68 382 126 429 "},"Ċ":{"x_min":64,"x_max":1030.96875,"ha":1083,"o":"m 1030 821 l 898 694 q 592 838 762 838 q 351 740 449 838 q 253 499 253 642 q 296 322 253 399 q 419 201 339 245 q 595 157 498 157 q 747 187 678 157 q 898 300 816 218 l 1026 165 q 817 16 916 58 q 593 -25 719 -25 q 212 122 360 -25 q 64 500 64 270 q 131 765 64 649 q 324 952 199 881 q 596 1023 450 1023 q 833 970 719 1023 q 1030 821 948 918 m 581 1269 q 650 1240 621 1269 q 679 1171 679 1211 q 650 1102 679 1131 q 581 1074 621 1074 q 512 1102 541 1074 q 484 1171 484 1131 q 512 1240 484 1211 q 581 1269 541 1269 "},"³":{"x_min":20.671875,"x_max":443,"ha":466,"o":"m 165 869 l 41 869 q 94 976 56 943 q 231 1023 147 1023 q 361 982 311 1023 q 411 886 411 941 q 347 785 411 821 q 417 731 392 767 q 443 655 443 696 q 383 535 443 586 q 224 485 323 485 q 76 534 131 485 q 20 665 20 583 l 145 665 q 230 590 158 590 q 291 608 267 590 q 315 652 315 627 q 182 721 315 721 l 182 817 q 263 832 241 817 q 286 872 286 847 q 272 904 286 891 q 235 918 258 918 q 165 869 190 918 "},"¡":{"x_min":78,"x_max":311,"ha":389,"o":"m 194 772 q 276 738 242 772 q 311 655 311 704 q 276 573 311 607 q 194 540 242 540 q 111 573 145 540 q 78 655 78 607 q 111 738 78 704 q 194 772 145 772 m 288 -270 l 101 -270 l 101 459 l 288 459 l 288 -270 "},"ẅ":{"x_min":11.640625,"x_max":1099.359375,"ha":1111,"o":"m 11 738 l 192 738 l 341 317 l 501 738 l 611 738 l 768 322 l 916 738 l 1099 738 l 830 0 l 712 0 l 555 420 l 393 0 l 277 0 l 11 738 m 405 1067 q 474 1038 445 1067 q 503 969 503 1009 q 474 900 503 929 q 405 872 445 872 q 336 900 365 872 q 308 969 308 929 q 336 1038 308 1009 q 405 1067 365 1067 m 705 1067 q 774 1038 745 1067 q 803 969 803 1009 q 774 900 803 929 q 705 872 745 872 q 636 900 665 872 q 608 969 608 929 q 636 1038 608 1009 q 705 1067 665 1067 "},"[":{"x_min":115,"x_max":411.875,"ha":444,"o":"m 115 1023 l 411 1023 l 411 850 l 302 850 l 302 -97 l 411 -97 l 411 -270 l 115 -270 l 115 1023 "},"%":{"x_min":28,"x_max":1165,"ha":1193,"o":"m 916 1042 l 1053 1042 l 262 -67 l 125 -67 l 801 885 q 686 870 740 875 q 588 865 633 865 q 489 869 541 865 q 504 783 504 822 q 435 615 504 684 q 267 546 366 546 q 97 615 167 546 q 28 782 28 684 q 59 901 28 846 q 147 989 90 955 q 259 1023 203 1023 q 375 1006 301 1023 q 605 978 506 978 q 773 994 695 978 q 916 1042 851 1010 m 266 899 q 184 865 218 899 q 151 784 151 831 q 184 703 151 737 q 266 670 218 670 q 347 703 313 670 q 381 784 381 737 q 347 865 381 832 q 266 899 313 899 m 927 450 q 1095 380 1025 450 q 1165 211 1165 310 q 1095 42 1165 112 q 927 -27 1025 -27 q 758 42 828 -27 q 689 211 689 112 q 758 380 689 310 q 927 450 828 450 m 926 327 q 844 293 878 327 q 811 211 811 259 q 844 129 811 163 q 926 96 878 96 q 1007 129 973 96 q 1041 211 1041 163 q 1007 293 1041 259 q 926 327 973 327 "},"P":{"x_min":113,"x_max":706,"ha":778,"o":"m 113 998 l 314 998 q 550 967 478 998 q 664 870 622 937 q 706 708 706 802 q 651 534 706 604 q 503 438 596 465 q 303 423 448 423 l 303 0 l 113 0 l 113 998 m 303 608 l 363 608 q 462 618 434 608 q 506 651 490 628 q 522 708 522 675 q 477 792 522 765 q 356 812 444 812 l 303 812 l 303 608 "},"∏":{"x_min":110,"x_max":1034,"ha":1143,"o":"m 110 1023 l 1034 1023 l 1034 -269 l 904 -269 l 904 905 l 241 905 l 241 -269 l 110 -269 l 110 1023 "},"_":{"x_min":-8,"x_max":703,"ha":695,"o":"m -8 -105 l 703 -105 l 703 -174 l -8 -174 l -8 -105 "},"Ŕ":{"x_min":127,"x_max":766.796875,"ha":806,"o":"m 127 998 l 328 998 q 564 968 494 998 q 677 870 634 939 q 720 708 720 802 q 672 544 720 610 q 530 444 625 477 l 766 0 l 559 0 l 334 423 l 317 423 l 317 0 l 127 0 l 127 998 m 317 608 l 376 608 q 501 631 467 608 q 536 710 536 655 q 519 766 536 742 q 473 801 502 790 q 369 812 445 812 l 317 812 l 317 608 m 460 1341 l 679 1341 l 430 1075 l 298 1075 l 460 1341 "},"ñ":{"x_min":94,"x_max":748,"ha":833,"o":"m 94 738 l 278 738 l 278 662 q 392 736 341 715 q 497 757 443 757 q 683 680 607 757 q 748 487 748 615 l 748 0 l 565 0 l 565 323 q 553 499 565 455 q 511 565 541 542 q 439 588 482 588 q 342 550 382 588 q 286 446 302 512 q 278 296 278 411 l 278 0 l 94 0 l 94 738 m 209 875 l 134 987 q 310 1055 221 1055 q 424 1031 343 1055 q 511 1017 478 1017 q 629 1052 568 1017 l 699 946 q 534 873 614 873 q 432 891 491 873 q 370 908 383 905 q 328 911 352 911 q 209 875 268 911 "},"‚":{"x_min":105,"x_max":276,"ha":389,"o":"m 105 194 l 276 194 l 276 100 q 253 -53 276 10 q 179 -185 231 -118 l 113 -134 q 150 -70 138 -97 q 173 0 162 -44 l 105 0 l 105 194 "},"⅞":{"x_min":50,"x_max":1140,"ha":1166,"o":"m 270 -24 l 695 1023 l 810 1023 l 386 -24 l 270 -24 m 50 1010 l 453 1010 l 453 955 l 182 485 l 81 538 l 291 908 l 50 908 l 50 1010 m 1057 277 q 1140 146 1140 227 q 1086 35 1140 82 q 930 -12 1033 -12 q 765 35 816 -12 q 715 146 715 82 q 794 277 715 226 q 742 381 742 321 q 793 484 742 443 q 927 526 845 526 q 1060 482 1010 526 q 1111 379 1111 438 q 1057 277 1111 326 m 986 373 q 923 421 986 421 q 881 407 896 421 q 866 373 866 393 q 882 335 866 350 q 925 320 899 320 q 970 335 954 320 q 986 373 986 350 m 1012 153 q 986 200 1012 183 q 928 218 961 218 q 867 200 893 218 q 841 155 841 182 q 863 111 841 130 q 926 93 885 93 q 1012 153 1012 93 "},"Æ":{"x_min":38.5,"x_max":1177.625,"ha":1250,"o":"m 524 998 l 1177 998 l 1177 812 l 827 812 l 827 631 l 1177 631 l 1177 449 l 827 449 l 827 186 l 1177 186 l 1177 0 l 638 0 l 638 206 l 333 206 l 233 0 l 38 0 l 524 998 m 638 393 l 638 829 l 423 393 l 638 393 "},"₣":{"x_min":0,"x_max":612.203125,"ha":667,"o":"m 305 281 l 458 281 l 458 170 l 305 170 l 305 0 l 117 0 l 117 170 l 0 170 l 0 281 l 117 281 l 117 998 l 612 998 l 612 813 l 305 813 l 305 632 l 612 632 l 612 450 l 305 450 l 305 281 "},"ğ":{"x_min":61.3125,"x_max":824,"ha":918,"o":"m 639 738 l 824 738 l 824 105 q 748 -169 824 -81 q 444 -289 647 -289 q 261 -261 335 -289 q 136 -182 187 -234 q 61 -54 85 -129 l 265 -54 q 335 -101 292 -85 q 436 -117 378 -117 q 556 -93 511 -117 q 620 -34 602 -70 q 639 91 639 2 q 537 21 590 42 q 415 0 483 0 q 164 107 266 0 q 62 378 62 214 q 170 660 62 554 q 405 757 268 757 q 525 733 469 757 q 639 656 582 710 l 639 738 m 447 584 q 302 525 359 584 q 246 378 246 466 q 304 226 246 285 q 450 168 362 168 q 593 225 537 168 q 649 376 649 283 q 592 526 649 468 q 447 584 536 584 m 207 1064 l 357 1064 q 406 1022 374 1036 q 483 1008 438 1008 q 566 1024 529 1008 q 609 1064 591 1035 l 759 1064 q 677 925 746 977 q 482 873 607 873 q 341 896 398 873 q 250 963 285 919 q 207 1064 216 1006 "},"Ū":{"x_min":107,"x_max":783,"ha":889,"o":"m 107 998 l 298 998 l 298 352 q 312 233 298 268 q 360 178 327 199 q 441 158 394 158 q 527 181 491 158 q 578 239 564 204 q 592 375 592 275 l 592 998 l 783 998 l 783 403 q 766 194 783 252 q 701 81 749 135 q 590 1 653 27 q 445 -25 528 -25 q 256 24 337 -25 q 141 149 176 74 q 107 403 107 224 l 107 998 m 252 1075 l 252 1225 l 638 1225 l 638 1075 l 252 1075 "},"ª":{"x_min":32,"x_max":447,"ha":500,"o":"m 311 1012 l 447 1012 l 447 550 l 311 550 l 311 588 q 262 551 288 563 q 207 539 236 539 q 85 605 139 539 q 32 780 32 672 q 84 957 32 891 q 204 1023 136 1023 q 261 1010 234 1023 q 311 972 287 998 l 311 1012 m 241 902 q 190 870 212 902 q 168 782 168 838 q 193 687 168 724 q 242 660 212 660 q 293 691 271 660 q 316 782 316 723 q 293 871 316 840 q 241 902 271 902 "},"Œ":{"x_min":64,"x_max":1412,"ha":1472,"o":"m 885 998 l 1412 998 l 1412 811 l 1077 811 l 1077 630 l 1412 630 l 1412 448 l 1077 448 l 1077 186 l 1412 186 l 1412 0 l 885 0 l 885 91 q 740 3 816 31 q 569 -25 663 -25 q 312 41 427 -25 q 131 229 198 107 q 64 497 64 351 q 130 763 64 642 q 316 953 197 883 q 570 1023 435 1023 q 733 995 655 1023 q 885 909 811 968 l 885 998 m 566 841 q 348 742 440 841 q 256 499 256 644 q 298 322 256 399 q 415 201 340 245 q 579 157 491 157 q 795 252 707 157 q 884 493 884 347 q 842 671 884 591 q 725 795 800 750 q 566 841 650 841 "},"Ą":{"x_min":32.828125,"x_max":1022.515625,"ha":1027,"o":"m 417 997 l 609 997 l 994 0 l 796 0 l 718 205 l 311 205 l 230 0 l 32 0 l 417 997 m 515 732 l 382 390 l 647 390 l 515 732 m 890 0 l 987 0 q 893 -112 893 -56 q 912 -157 893 -139 q 963 -175 932 -175 q 1022 -156 986 -175 l 1022 -264 q 935 -275 975 -275 q 812 -238 855 -275 q 770 -146 770 -201 q 800 -65 770 -105 q 890 0 831 -26 "},"T":{"x_min":16,"x_max":567,"ha":583,"o":"m 16 998 l 567 998 l 567 811 l 386 811 l 386 0 l 193 0 l 193 811 l 16 811 l 16 998 "},"š":{"x_min":28.09375,"x_max":581.734375,"ha":610,"o":"m 544 634 l 430 519 q 303 589 360 589 q 254 575 272 589 q 237 542 237 562 q 248 515 237 528 q 303 481 259 503 l 371 447 q 518 339 478 394 q 558 210 558 284 q 485 46 558 112 q 292 -19 413 -19 q 34 107 131 -19 l 148 231 q 225 170 181 193 q 302 147 268 147 q 361 164 339 147 q 384 205 384 182 q 303 288 384 247 l 241 319 q 62 545 62 409 q 129 694 62 632 q 301 757 196 757 q 437 725 373 757 q 544 634 500 693 m 28 1065 l 231 1065 l 306 975 l 379 1065 l 581 1065 l 379 873 l 231 873 l 28 1065 "},"Þ":{"x_min":113,"x_max":706,"ha":778,"o":"m 113 998 l 303 998 l 303 786 q 548 756 476 786 q 663 659 621 727 q 706 497 706 592 q 651 323 706 392 q 503 227 596 254 q 303 211 448 211 l 303 0 l 113 0 l 113 998 m 303 396 l 363 396 q 462 406 434 396 q 506 440 490 416 q 522 497 522 463 q 477 581 522 554 q 356 601 444 601 l 303 601 l 303 396 "},"j":{"x_min":-59.15625,"x_max":300,"ha":361,"o":"m 180 1042 q 265 1006 230 1042 q 300 921 300 971 q 265 836 300 871 q 182 801 230 801 q 97 836 132 801 q 63 923 63 872 q 97 1007 63 972 q 180 1042 131 1042 m 88 738 l 273 738 l 273 -24 q 252 -181 273 -129 q 186 -261 231 -233 q 79 -289 142 -289 q -59 -261 23 -289 l -59 -114 q 17 -136 -15 -136 q 70 -114 52 -136 q 88 -37 88 -93 l 88 738 "},"1":{"x_min":118.5,"x_max":513,"ha":778,"o":"m 228 997 l 513 997 l 513 0 l 324 0 l 324 819 l 118 819 l 228 997 "},"›":{"x_min":18.3125,"x_max":315.34375,"ha":333,"o":"m 191 0 l 18 0 l 143 371 l 18 738 l 191 738 l 315 371 l 191 0 "},"ℓ":{"x_min":14.625,"x_max":628,"ha":671,"o":"m 44 251 l 14 426 l 115 474 q 142 794 115 700 q 239 949 169 888 q 404 1011 309 1011 q 566 943 505 1011 q 628 775 628 876 q 562 590 628 678 q 306 381 497 502 q 335 179 306 227 q 426 131 365 131 q 607 214 497 131 l 607 51 q 406 -16 509 -16 q 121 286 157 -16 q 44 251 83 268 m 308 582 q 432 693 399 649 q 466 782 466 737 q 447 835 466 815 q 401 856 428 856 q 336 814 364 856 q 308 638 308 773 l 308 582 "},"<":{"x_min":78,"x_max":756,"ha":834,"o":"m 756 248 l 756 78 l 78 423 l 78 573 l 756 918 l 756 749 l 272 498 l 756 248 "},"t":{"x_min":21,"x_max":410,"ha":416,"o":"m 116 1010 l 300 1010 l 300 738 l 410 738 l 410 579 l 300 579 l 300 0 l 116 0 l 116 579 l 21 579 l 21 738 l 116 738 l 116 1010 "},"¬":{"x_min":78.375,"x_max":756,"ha":834,"o":"m 78 729 l 756 729 l 756 268 l 587 268 l 587 559 l 78 559 l 78 729 "},"ù":{"x_min":93,"x_max":741,"ha":833,"o":"m 93 738 l 280 738 l 280 382 q 294 238 280 278 q 339 175 308 198 q 417 153 371 153 q 495 175 463 153 q 543 240 527 197 q 555 376 555 272 l 555 738 l 741 738 l 741 425 q 710 160 741 231 q 600 27 673 73 q 416 -19 528 -19 q 220 35 294 -19 q 114 186 145 89 q 93 430 93 253 l 93 738 m 384 1138 l 546 873 l 413 873 l 165 1138 l 384 1138 "},"ĉ":{"x_min":58,"x_max":816.03125,"ha":889,"o":"m 816 588 l 662 504 q 576 567 618 549 q 476 584 533 584 q 309 522 373 584 q 245 363 245 460 q 306 209 245 269 q 468 150 368 150 q 662 234 592 150 l 807 135 q 472 -19 689 -19 q 168 96 278 -19 q 58 366 58 211 q 111 563 58 473 q 261 705 165 653 q 475 757 357 757 q 672 713 585 757 q 816 588 760 669 m 159 873 l 363 1064 l 511 1064 l 713 873 l 511 873 l 438 961 l 363 873 l 159 873 "},"ï":{"x_min":-81,"x_max":414,"ha":333,"o":"m 73 738 l 259 738 l 259 0 l 73 0 l 73 738 m 16 1067 q 85 1038 56 1067 q 114 969 114 1009 q 85 900 114 929 q 16 872 56 872 q -52 900 -23 872 q -81 969 -81 929 q -52 1038 -81 1009 q 16 1067 -23 1067 m 316 1067 q 385 1038 356 1067 q 414 969 414 1009 q 385 900 414 929 q 316 872 356 872 q 247 900 276 872 q 219 969 219 929 q 247 1038 219 1009 q 316 1067 276 1067 "},"ī":{"x_min":-26,"x_max":360,"ha":334,"o":"m 74 738 l 260 738 l 260 0 l 74 0 l 74 738 m -26 873 l -26 1023 l 360 1023 l 360 873 l -26 873 "},"Ò":{"x_min":65,"x_max":1101,"ha":1166,"o":"m 585 1023 q 948 869 796 1023 q 1101 495 1101 716 q 950 126 1101 277 q 586 -25 800 -25 q 213 130 361 -25 q 65 499 65 285 q 134 762 65 642 q 324 952 203 882 q 585 1023 445 1023 m 582 837 q 350 740 444 837 q 256 495 256 644 q 374 234 256 330 q 586 159 466 159 q 816 256 721 159 q 911 497 911 354 q 815 738 911 639 q 582 837 719 837 m 550 1341 l 712 1075 l 579 1075 l 331 1341 l 550 1341 "},"Ď":{"x_min":108.890625,"x_max":906,"ha":972,"o":"m 115 998 l 340 998 q 663 944 557 998 q 837 768 769 890 q 906 485 906 647 q 867 273 906 369 q 761 112 829 176 q 615 24 694 48 q 343 0 537 0 l 115 0 l 115 998 m 304 815 l 304 186 l 392 186 q 580 215 522 186 q 676 316 639 245 q 714 489 714 386 q 625 736 714 648 q 368 815 545 815 l 304 815 m 108 1267 l 312 1267 l 387 1177 l 460 1267 l 662 1267 l 460 1075 l 312 1075 l 108 1267 "},"&":{"x_min":66,"x_max":910.703125,"ha":945,"o":"m 739 392 l 853 262 l 801 216 l 750 170 l 910 0 l 680 0 l 614 68 q 322 -25 457 -25 q 136 42 207 -25 q 66 214 66 109 q 105 364 66 293 q 243 510 145 435 q 147 739 147 639 q 210 885 147 813 q 390 957 274 957 q 571 885 508 957 q 634 742 634 814 q 605 632 634 685 q 472 478 576 580 q 629 300 593 335 q 739 392 650 316 m 378 611 q 454 725 454 676 q 436 767 454 751 q 392 784 419 784 q 348 765 366 784 q 330 723 330 747 q 378 611 330 674 m 491 199 q 343 370 439 251 q 243 224 243 287 q 270 171 243 195 q 340 147 297 147 q 491 199 400 147 "},"˝":{"x_min":223.125,"x_max":906.71875,"ha":973,"o":"m 385 1139 l 604 1139 l 356 873 l 223 873 l 385 1139 m 687 1139 l 906 1139 l 659 873 l 525 873 l 687 1139 "},"I":{"x_min":100,"x_max":289,"ha":389,"o":"m 100 998 l 289 998 l 289 0 l 100 0 l 100 998 "},"G":{"x_min":69,"x_max":1105,"ha":1166,"o":"m 1034 834 l 900 702 q 605 837 773 837 q 359 739 458 837 q 260 502 260 641 q 362 257 260 357 q 616 157 465 157 q 782 198 715 157 q 891 328 849 239 l 602 328 l 602 506 l 1105 506 l 1105 463 q 1037 215 1105 333 q 861 36 969 98 q 609 -25 754 -25 q 332 42 453 -25 q 139 234 210 109 q 69 504 69 359 q 199 848 69 702 q 603 1023 355 1023 q 847 974 734 1023 q 1034 834 942 934 "},"`":{"x_min":40.015625,"x_max":421.140625,"ha":583,"o":"m 259 1139 l 421 873 l 288 873 l 40 1139 l 259 1139 "},"·":{"x_min":375,"x_max":570,"ha":463,"o":"m 472 608 q 541 579 512 608 q 570 510 570 551 q 541 442 570 470 q 472 414 512 414 q 403 442 432 414 q 375 510 375 470 q 403 579 375 551 q 472 608 432 608 "},"ŏ":{"x_min":58,"x_max":832,"ha":890,"o":"m 440 757 q 636 704 545 757 q 780 562 728 652 q 832 369 832 473 q 780 174 832 265 q 638 32 728 83 q 441 -19 549 -19 q 170 93 282 -19 q 58 368 58 206 q 184 656 58 541 q 440 757 296 757 m 443 583 q 299 522 357 583 q 242 369 242 462 q 299 213 242 272 q 442 153 355 153 q 587 213 529 153 q 645 369 645 274 q 588 523 645 464 q 443 583 531 583 m 168 1063 l 318 1063 q 367 1021 336 1035 q 444 1008 399 1008 q 528 1024 490 1008 q 571 1064 552 1035 l 720 1064 q 638 925 708 977 q 444 873 568 873 q 303 896 359 873 q 211 963 246 919 q 168 1063 177 1006 "},"¿":{"x_min":66,"x_max":706,"ha":777,"o":"m 398 539 q 313 572 348 539 q 279 655 279 606 q 313 737 279 703 q 396 772 348 772 q 479 737 444 772 q 514 655 514 703 q 480 572 514 606 q 398 539 446 539 m 527 12 l 706 12 q 615 -203 706 -118 q 376 -289 524 -289 q 213 -254 280 -289 q 105 -152 145 -219 q 66 -12 66 -85 q 78 66 66 27 q 118 145 91 105 q 197 225 135 169 q 271 301 256 279 q 297 360 287 323 q 308 462 308 397 l 493 462 l 493 431 q 460 266 493 340 q 352 126 427 191 q 266 39 281 63 q 251 -15 251 15 q 286 -88 251 -58 q 384 -119 322 -119 q 486 -82 446 -119 q 527 12 527 -45 "},"ý":{"x_min":11.53125,"x_max":794.140625,"ha":806,"o":"m 11 738 l 200 738 l 392 274 l 604 738 l 794 738 l 331 -270 l 140 -270 l 292 54 l 11 738 m 434 1139 l 653 1139 l 405 873 l 272 873 l 434 1139 "},"ſ":{"x_min":74,"x_max":383.78125,"ha":333,"o":"m 383 1015 l 383 874 q 317 886 344 886 q 270 872 281 886 q 259 801 259 858 l 259 0 l 74 0 l 74 777 q 83 938 74 896 q 136 1011 93 980 q 253 1042 179 1042 q 383 1015 315 1042 "},"º":{"x_min":31,"x_max":470,"ha":500,"o":"m 247 1023 q 404 953 338 1023 q 470 781 470 884 q 405 607 470 676 q 248 539 340 539 q 95 608 159 539 q 31 780 31 677 q 96 953 31 883 q 247 1023 161 1023 m 249 900 q 192 868 216 900 q 168 781 168 836 q 192 692 168 724 q 249 661 216 661 q 308 692 283 661 q 333 781 333 724 q 308 868 333 836 q 249 900 284 900 "},"∞":{"x_min":102,"x_max":888,"ha":990,"o":"m 460 571 q 565 692 513 657 q 679 727 618 727 q 829 663 770 727 q 888 489 888 599 q 829 316 888 380 q 679 253 770 253 q 566 287 618 253 q 460 407 513 321 q 367 321 420 351 q 266 291 314 291 q 149 345 196 291 q 102 489 102 399 q 149 634 102 580 q 266 688 196 688 q 367 657 314 688 q 460 571 420 627 m 523 490 q 603 383 580 403 q 681 353 639 353 q 760 392 732 353 q 789 492 789 431 q 759 590 789 554 q 683 627 729 627 q 612 600 647 627 q 523 490 577 574 m 402 492 q 273 588 334 588 q 219 562 241 588 q 197 492 197 537 q 219 421 197 447 q 273 395 241 395 q 323 410 300 395 q 402 492 358 435 "},"ź":{"x_min":11.125,"x_max":627.984375,"ha":639,"o":"m 62 738 l 627 738 l 295 157 l 609 157 l 609 0 l 11 0 l 344 581 l 62 581 l 62 738 m 324 1138 l 543 1138 l 295 873 l 162 873 l 324 1138 "},"ű":{"x_min":93,"x_max":838.65625,"ha":833,"o":"m 93 738 l 280 738 l 280 382 q 294 238 280 278 q 339 175 308 198 q 417 153 371 153 q 495 175 463 153 q 543 240 527 197 q 555 376 555 272 l 555 738 l 741 738 l 741 425 q 710 160 741 231 q 600 27 673 73 q 416 -19 528 -19 q 220 35 294 -19 q 114 186 145 89 q 93 430 93 253 l 93 738 m 317 1139 l 536 1139 l 288 873 l 155 873 l 317 1139 m 619 1139 l 838 1139 l 590 873 l 457 873 l 619 1139 "},"Ǽ":{"x_min":38.5,"x_max":1177.625,"ha":1250,"o":"m 524 998 l 1177 998 l 1177 812 l 827 812 l 827 631 l 1177 631 l 1177 449 l 827 449 l 827 186 l 1177 186 l 1177 0 l 638 0 l 638 206 l 333 206 l 233 0 l 38 0 l 524 998 m 638 393 l 638 829 l 423 393 l 638 393 m 784 1341 l 1003 1341 l 755 1075 l 622 1075 l 784 1341 "},"ń":{"x_min":94,"x_max":748,"ha":833,"o":"m 94 738 l 278 738 l 278 662 q 392 736 341 715 q 497 757 443 757 q 683 680 607 757 q 748 487 748 615 l 748 0 l 565 0 l 565 323 q 553 499 565 455 q 511 565 541 542 q 439 588 482 588 q 342 550 382 588 q 286 446 302 512 q 278 296 278 411 l 278 0 l 94 0 l 94 738 m 441 1138 l 660 1138 l 412 873 l 279 873 l 441 1138 "},";":{"x_min":54.09375,"x_max":313.203125,"ha":388,"o":"m 194 757 q 269 725 238 757 q 301 650 301 694 q 269 575 301 606 q 194 545 238 545 q 119 575 150 545 q 88 650 88 606 q 119 725 88 694 q 194 757 150 757 m 183 188 l 313 121 l 147 -164 l 54 -119 l 183 188 "},"Ġ":{"x_min":69,"x_max":1105,"ha":1166,"o":"m 1034 834 l 901 702 q 605 837 774 837 q 359 739 458 837 q 260 502 260 641 q 363 257 260 357 q 617 157 466 157 q 782 198 715 157 q 891 328 850 239 l 602 328 l 602 506 l 1105 506 l 1105 463 q 1037 215 1105 333 q 861 36 969 98 q 609 -25 754 -25 q 332 42 453 -25 q 139 234 210 109 q 69 504 69 359 q 199 848 69 702 q 603 1023 355 1023 q 847 974 734 1023 q 1034 834 943 934 m 587 1269 q 656 1240 627 1269 q 685 1171 685 1211 q 656 1102 685 1131 q 587 1074 627 1074 q 518 1102 547 1074 q 490 1171 490 1131 q 518 1240 490 1211 q 587 1269 547 1269 "},"6":{"x_min":68,"x_max":694,"ha":777,"o":"m 402 1022 l 563 942 l 389 603 q 605 512 516 603 q 694 286 694 421 q 602 65 694 156 q 382 -25 511 -25 q 157 68 247 -25 q 68 284 68 162 q 81 377 68 330 q 145 520 95 423 l 402 1022 m 378 423 q 289 384 325 423 q 254 289 254 346 q 291 192 254 231 q 379 153 329 153 q 470 191 432 153 q 508 289 508 230 q 471 384 508 346 q 378 423 434 423 "},"n":{"x_min":94,"x_max":748,"ha":833,"o":"m 94 738 l 278 738 l 278 662 q 392 736 341 715 q 497 757 443 757 q 683 680 607 757 q 748 487 748 615 l 748 0 l 565 0 l 565 323 q 553 499 565 455 q 511 565 541 542 q 439 588 482 588 q 342 550 382 588 q 286 446 302 512 q 278 296 278 411 l 278 0 l 94 0 l 94 738 "},"ģ":{"x_min":61.3125,"x_max":824,"ha":918,"o":"m 639 738 l 824 738 l 824 105 q 748 -169 824 -81 q 444 -289 647 -289 q 261 -261 335 -289 q 136 -182 187 -234 q 61 -54 85 -129 l 265 -54 q 335 -101 292 -85 q 436 -117 378 -117 q 556 -93 511 -117 q 620 -34 602 -70 q 639 91 639 2 q 536 21 590 42 q 415 0 483 0 q 164 107 266 0 q 62 378 62 214 q 170 660 62 554 q 405 757 268 757 q 525 733 469 757 q 639 656 582 710 l 639 738 m 447 584 q 302 525 359 584 q 246 378 246 466 q 304 226 246 285 q 450 168 362 168 q 593 225 537 168 q 649 376 649 283 q 592 526 649 468 q 447 584 536 584 m 545 846 l 374 846 l 374 940 q 396 1094 374 1029 q 470 1226 418 1158 l 536 1174 q 499 1111 511 1138 q 476 1041 488 1085 l 545 1041 l 545 846 "},"¤":{"x_min":64.859375,"x_max":771.109375,"ha":834,"o":"m 65 288 l 135 358 q 86 457 100 412 q 73 554 73 501 q 87 657 73 610 q 136 752 101 703 l 64 822 l 146 907 l 218 835 q 316 884 266 868 q 419 901 366 901 q 518 886 470 901 q 616 837 566 871 l 688 907 l 769 822 l 698 754 q 749 657 734 705 q 765 554 765 610 q 750 453 765 499 q 700 358 735 407 l 771 288 l 690 205 l 618 276 q 520 223 569 239 q 418 208 472 208 q 316 223 364 208 q 218 276 267 239 l 146 205 l 65 288 m 206 553 q 268 400 206 463 q 418 338 331 338 q 568 401 506 338 q 631 555 631 464 q 568 708 631 645 q 419 772 506 772 q 269 708 332 772 q 206 553 206 644 "},"∂":{"x_min":31,"x_max":664,"ha":687,"o":"m 258 761 l 165 818 q 266 962 200 914 q 416 1011 333 1011 q 541 972 486 1011 q 630 850 596 933 q 664 639 664 766 q 594 259 664 441 q 446 52 542 122 q 242 -17 351 -17 q 89 45 147 -17 q 31 222 31 108 q 91 430 31 335 q 267 582 152 525 q 533 639 381 639 l 561 639 q 519 828 561 769 q 412 888 477 888 q 332 862 367 888 q 258 761 296 836 m 553 514 l 523 514 q 349 476 427 514 q 228 369 270 438 q 186 229 186 301 q 214 144 186 177 q 281 112 242 112 q 448 214 370 112 q 553 514 527 317 "},"Ĝ":{"x_min":69,"x_max":1105,"ha":1166,"o":"m 1034 834 l 900 702 q 605 837 773 837 q 359 739 458 837 q 260 502 260 641 q 362 257 260 357 q 616 157 465 157 q 782 198 715 157 q 891 328 849 239 l 602 328 l 602 506 l 1105 506 l 1105 463 q 1037 215 1105 333 q 861 36 969 98 q 609 -25 754 -25 q 332 42 453 -25 q 139 234 210 109 q 69 504 69 359 q 199 848 69 702 q 603 1023 355 1023 q 847 974 734 1023 q 1034 834 942 934 m 310 1075 l 513 1267 l 661 1267 l 864 1075 l 661 1075 l 588 1163 l 513 1075 l 310 1075 "},"p":{"x_min":94,"x_max":857.46875,"ha":917,"o":"m 278 738 l 278 656 q 386 731 328 706 q 511 757 444 757 q 756 647 655 757 q 857 367 857 538 q 753 91 857 202 q 505 -19 648 -19 q 387 3 442 -19 q 278 78 332 26 l 278 -270 l 94 -270 l 94 738 l 278 738 m 472 586 q 327 526 385 586 q 270 370 270 466 q 327 211 270 272 q 472 151 385 151 q 615 212 557 151 q 673 369 673 274 q 616 525 673 464 q 472 586 559 586 "},"‡":{"x_min":26,"x_max":753,"ha":777,"o":"m 297 1023 l 479 1023 l 445 705 l 753 738 l 753 555 l 445 591 l 479 371 l 445 153 l 753 191 l 753 5 l 445 41 l 479 -270 l 297 -270 l 330 41 l 26 5 l 26 191 l 330 153 l 297 371 l 330 591 l 26 555 l 26 738 l 330 705 l 297 1023 "},"ň":{"x_min":94,"x_max":755.46875,"ha":833,"o":"m 94 738 l 278 738 l 278 662 q 392 736 341 715 q 497 757 443 757 q 683 680 607 757 q 748 487 748 615 l 748 0 l 565 0 l 565 323 q 553 499 565 455 q 511 565 541 542 q 439 588 482 588 q 342 550 382 588 q 286 446 302 512 q 278 296 278 411 l 278 0 l 94 0 l 94 738 m 201 1064 l 405 1064 l 480 975 l 553 1065 l 755 1065 l 553 873 l 405 873 l 201 1064 "},"√":{"x_min":54.9375,"x_max":760.234375,"ha":762,"o":"m 710 1268 l 760 1268 l 548 -52 l 212 639 l 77 578 l 54 621 l 259 723 l 533 165 l 710 1268 "},"ę":{"x_min":59,"x_max":833,"ha":889,"o":"m 833 315 l 238 315 q 307 190 251 236 q 450 143 363 143 q 628 216 554 143 l 784 143 q 644 20 725 60 q 451 -19 563 -19 q 168 90 277 -19 q 59 364 59 200 q 167 645 59 533 q 440 757 276 757 q 723 645 614 757 q 833 350 833 533 l 833 315 m 647 461 q 575 561 629 522 q 450 600 521 600 q 314 556 372 600 q 246 461 277 529 l 647 461 m 433 0 l 530 0 q 436 -111 436 -56 q 455 -157 436 -139 q 506 -175 475 -175 q 565 -156 529 -175 l 565 -264 q 478 -275 518 -275 q 355 -238 398 -275 q 313 -146 313 -201 q 343 -65 313 -105 q 433 0 374 -26 "},"S":{"x_min":28.21875,"x_max":655,"ha":723,"o":"m 637 862 l 496 737 q 346 841 422 841 q 285 820 309 841 q 262 775 262 800 q 278 728 262 750 q 417 600 301 698 q 548 485 525 509 q 630 373 606 427 q 655 257 655 320 q 570 54 655 134 q 349 -25 485 -25 q 163 27 242 -25 q 28 190 84 79 l 187 287 q 353 155 259 155 q 434 183 401 155 q 468 249 468 212 q 443 317 468 283 q 332 420 418 351 q 122 626 170 553 q 75 770 75 698 q 154 948 75 874 q 349 1023 233 1023 q 491 988 423 1023 q 637 862 558 953 "},"/":{"x_min":29.84375,"x_max":609.671875,"ha":639,"o":"m 29 -178 l 478 1026 l 609 1026 l 160 -178 l 29 -178 "},"į":{"x_min":41,"x_max":293.53125,"ha":333,"o":"m 166 1042 q 250 1006 215 1042 q 285 921 285 971 q 250 836 285 871 q 167 802 215 802 q 82 837 117 802 q 48 924 48 873 q 82 1007 48 972 q 166 1042 117 1042 m 73 737 l 259 737 l 259 0 l 73 0 l 73 737 m 161 0 l 259 0 q 164 -112 164 -56 q 183 -157 164 -139 q 234 -175 203 -175 q 293 -156 257 -175 l 293 -264 q 206 -275 246 -275 q 83 -238 126 -275 q 41 -146 41 -201 q 71 -66 41 -105 q 161 0 102 -26 "},"Ŧ":{"x_min":16,"x_max":567,"ha":583,"o":"m 389 538 l 535 538 l 535 427 l 389 427 l 389 0 l 196 0 l 196 427 l 49 427 l 49 538 l 196 538 l 196 811 l 16 811 l 16 998 l 567 998 l 567 811 l 389 811 l 389 538 "},"y":{"x_min":11.53125,"x_max":794.140625,"ha":806,"o":"m 11 738 l 200 738 l 392 274 l 604 738 l 794 738 l 331 -270 l 140 -270 l 292 54 l 11 738 "},"≈":{"x_min":32,"x_max":731,"ha":763,"o":"m 32 546 l 32 762 q 201 812 135 812 q 297 797 245 812 q 435 742 348 783 q 509 709 491 714 q 555 703 532 703 q 731 779 631 703 l 731 560 q 563 512 645 512 q 473 524 518 512 q 325 581 427 536 q 237 615 260 609 q 193 622 215 622 q 124 606 159 622 q 32 546 90 591 m 32 218 l 32 435 q 201 486 135 486 q 297 471 245 486 q 435 414 348 456 q 509 382 491 387 q 555 376 532 376 q 731 452 631 376 l 731 233 q 563 185 645 185 q 473 196 518 185 q 325 254 427 208 q 237 289 260 283 q 193 295 215 295 q 124 279 159 295 q 32 218 90 264 "},"‗":{"x_min":-8,"x_max":703,"ha":695,"o":"m -8 -77 l 703 -77 l 703 -146 l -8 -146 l -8 -77 m -8 -197 l 703 -197 l 703 -266 l -8 -266 l -8 -197 "},"ǿ":{"x_min":72,"x_max":848.71875,"ha":917,"o":"m 761 610 q 846 369 846 502 q 794 174 846 265 q 652 32 742 83 q 455 -19 563 -19 q 250 40 342 -19 l 162 -57 l 77 14 l 165 113 q 72 368 72 221 q 198 655 72 540 q 455 757 309 757 q 680 687 576 757 l 765 782 l 848 707 l 761 610 m 287 249 l 562 556 q 458 583 516 583 q 314 522 371 583 q 256 369 256 462 q 287 249 256 305 m 637 472 l 369 172 q 458 153 411 153 q 601 213 543 153 q 659 369 659 274 q 637 472 659 424 m 493 1138 l 712 1138 l 464 873 l 331 873 l 493 1138 "},"g":{"x_min":61.3125,"x_max":824,"ha":918,"o":"m 639 738 l 824 738 l 824 105 q 748 -169 824 -81 q 444 -289 647 -289 q 261 -261 335 -289 q 136 -182 187 -234 q 61 -54 85 -129 l 265 -54 q 335 -101 292 -85 q 436 -117 378 -117 q 556 -93 511 -117 q 620 -34 602 -70 q 639 91 639 2 q 537 21 590 42 q 415 0 483 0 q 164 107 266 0 q 62 378 62 214 q 170 660 62 554 q 405 757 268 757 q 525 733 469 757 q 639 656 582 710 l 639 738 m 447 584 q 302 525 359 584 q 246 378 246 466 q 304 226 246 285 q 450 168 362 168 q 593 225 537 168 q 649 376 649 283 q 592 526 649 468 q 447 584 536 584 "},"ĸ":{"x_min":95,"x_max":823.21875,"ha":806,"o":"m 95 738 l 280 738 l 280 433 l 552 738 l 784 738 l 467 383 l 823 0 l 593 0 l 280 339 l 280 0 l 95 0 l 95 738 "},"²":{"x_min":13,"x_max":437,"ha":467,"o":"m 154 832 l 31 832 q 87 972 31 922 q 238 1023 143 1023 q 382 972 333 1023 q 432 866 432 922 q 402 769 432 821 q 291 645 372 716 l 243 603 l 437 603 l 437 497 l 13 497 l 13 556 l 197 714 q 283 802 263 770 q 304 859 304 834 q 284 900 304 884 q 231 916 265 916 q 175 894 196 916 q 154 832 154 872 "},"–":{"x_min":-8,"x_max":703,"ha":695,"o":"m -8 318 l -8 482 l 703 482 l 703 318 l -8 318 "},"ë":{"x_min":59,"x_max":833,"ha":889,"o":"m 833 315 l 237 315 q 306 190 250 236 q 449 144 362 144 q 628 216 553 144 l 784 143 q 644 20 725 60 q 451 -19 563 -19 q 168 90 277 -19 q 59 364 59 200 q 167 645 59 533 q 440 757 276 757 q 723 645 614 757 q 833 350 833 533 l 833 315 m 647 461 q 575 561 629 522 q 449 600 521 600 q 313 556 372 600 q 245 461 277 529 l 647 461 m 294 1067 q 363 1038 334 1067 q 392 969 392 1009 q 363 900 392 929 q 294 872 334 872 q 225 900 254 872 q 197 969 197 929 q 225 1038 197 1009 q 294 1067 254 1067 m 595 1067 q 664 1038 635 1067 q 693 969 693 1009 q 664 900 693 929 q 595 872 635 872 q 526 900 555 872 q 498 969 498 929 q 526 1038 498 1009 q 595 1067 555 1067 "},"ƒ":{"x_min":48.828125,"x_max":731.0625,"ha":778,"o":"m 731 985 l 708 823 q 614 864 653 864 q 570 840 586 864 q 542 735 554 817 l 528 634 l 680 634 l 657 475 l 503 475 l 432 -38 q 391 -186 418 -137 q 322 -262 365 -236 q 229 -289 280 -289 q 149 -276 190 -289 q 48 -227 109 -263 l 71 -63 q 180 -114 136 -114 q 221 -94 206 -114 q 246 -4 236 -74 l 318 475 l 164 475 l 187 634 l 341 634 l 364 802 q 428 985 381 929 q 563 1042 476 1042 q 643 1030 607 1042 q 731 985 678 1019 "},"J":{"x_min":25.625,"x_max":553,"ha":667,"o":"m 362 998 l 553 998 l 553 335 q 527 114 553 177 q 445 12 502 50 q 306 -25 387 -25 q 25 119 141 -25 l 162 247 q 239 178 208 196 q 301 161 271 161 q 347 186 332 161 q 362 300 362 212 l 362 998 "},"Ã":{"x_min":33.234375,"x_max":994.203125,"ha":1027,"o":"m 417 998 l 610 998 l 994 0 l 796 0 l 718 206 l 311 206 l 230 0 l 33 0 l 417 998 m 515 733 l 382 391 l 647 391 l 515 733 m 305 1077 l 231 1189 q 406 1257 318 1257 q 520 1233 440 1257 q 608 1219 575 1219 q 726 1254 665 1219 l 796 1148 q 631 1075 711 1075 q 528 1093 588 1075 q 467 1110 480 1107 q 425 1113 449 1113 q 305 1077 365 1113 "},"ŷ":{"x_min":11.53125,"x_max":794.140625,"ha":806,"o":"m 11 738 l 200 738 l 392 274 l 604 738 l 794 738 l 331 -270 l 140 -270 l 292 54 l 11 738 m 126 873 l 329 1065 l 478 1065 l 680 873 l 478 873 l 404 961 l 329 873 l 126 873 "},"ŕ":{"x_min":50,"x_max":492.46875,"ha":444,"o":"m 50 738 l 209 738 l 209 645 q 277 728 234 700 q 371 757 320 757 q 446 738 407 757 l 388 578 q 335 595 356 595 q 262 542 292 595 q 233 334 233 489 l 233 298 l 233 0 l 50 0 l 50 738 m 273 1138 l 492 1138 l 244 873 l 111 873 l 273 1138 "},"‾":{"x_min":-28,"x_max":807,"ha":779,"o":"m -28 1268 l 807 1268 l 807 1218 l -28 1218 l -28 1268 "},"©":{"x_min":-5,"x_max":1034,"ha":1028,"o":"m 1034 513 q 964 254 1034 374 q 774 64 894 133 q 514 -5 653 -5 q 254 64 375 -5 q 64 254 134 133 q -5 513 -5 374 q 64 772 -5 652 q 254 961 134 892 q 514 1031 374 1031 q 774 961 654 1031 q 964 772 894 892 q 1034 513 1034 652 m 927 511 q 806 803 927 683 q 515 924 686 924 q 307 869 403 924 q 156 718 211 814 q 102 514 102 623 q 156 310 102 405 q 307 160 211 215 q 513 106 403 106 q 720 160 624 106 q 872 309 817 215 q 927 511 927 403 m 664 418 l 784 418 q 704 271 772 329 q 536 214 635 214 q 326 299 408 214 q 245 522 245 385 q 325 738 245 655 q 532 821 406 821 q 698 770 633 821 q 784 622 763 719 l 664 622 q 618 699 653 672 q 533 727 584 727 q 408 672 457 727 q 360 524 360 617 q 411 368 360 427 q 535 309 463 309 q 622 339 586 309 q 664 418 658 369 "},"˘":{"x_min":57.640625,"x_max":609.671875,"ha":667,"o":"m 57 1064 l 207 1064 q 256 1022 225 1036 q 333 1008 288 1008 q 417 1024 379 1008 q 459 1064 441 1035 l 609 1064 q 527 925 596 977 q 332 873 457 873 q 192 896 248 873 q 101 963 135 919 q 57 1064 66 1006 "},"≥":{"x_min":42,"x_max":719,"ha":762,"o":"m 42 385 l 525 635 l 42 886 l 42 1055 l 719 711 l 719 561 l 42 215 l 42 385 m 719 140 l 719 -30 l 42 -30 l 42 140 l 719 140 "},"Ă":{"x_min":33.234375,"x_max":994.203125,"ha":1027,"o":"m 417 998 l 610 998 l 994 0 l 796 0 l 718 206 l 311 206 l 230 0 l 33 0 l 417 998 m 515 733 l 382 391 l 647 391 l 515 733 m 244 1266 l 394 1266 q 443 1224 411 1238 q 520 1211 474 1211 q 603 1227 566 1211 q 646 1266 627 1237 l 796 1266 q 713 1128 783 1180 q 519 1076 644 1076 q 378 1099 435 1076 q 287 1165 322 1122 q 244 1266 252 1209 "},"D":{"x_min":115,"x_max":906,"ha":972,"o":"m 115 998 l 340 998 q 663 944 557 998 q 837 768 769 890 q 906 485 906 647 q 867 273 906 369 q 761 112 829 176 q 615 24 694 48 q 343 0 537 0 l 115 0 l 115 998 m 304 815 l 304 186 l 392 186 q 580 215 522 186 q 676 316 639 245 q 714 489 714 386 q 625 736 714 648 q 368 815 545 815 l 304 815 "},"ł":{"x_min":56.078125,"x_max":389.25,"ha":445,"o":"m 316 698 l 389 781 l 389 613 l 316 530 l 316 0 l 130 0 l 130 323 l 56 241 l 56 407 l 130 491 l 130 1023 l 316 1023 l 316 698 "},"ÿ":{"x_min":11.234375,"x_max":793.78125,"ha":805,"o":"m 11 738 l 200 738 l 392 274 l 603 738 l 793 738 l 331 -270 l 140 -270 l 292 54 l 11 738 m 252 1067 q 321 1038 292 1067 q 350 969 350 1009 q 321 900 350 929 q 252 872 292 872 q 183 900 212 872 q 155 969 155 929 q 183 1038 155 1009 q 252 1067 212 1067 m 552 1067 q 621 1038 592 1067 q 650 969 650 1009 q 621 900 650 929 q 552 872 592 872 q 483 900 512 872 q 455 969 455 929 q 483 1038 455 1009 q 552 1067 512 1067 "},"ĺ":{"x_min":12.96875,"x_max":393.953125,"ha":333,"o":"m 74 1023 l 259 1023 l 259 0 l 74 0 l 74 1023 m 174 1341 l 393 1341 l 145 1075 l 12 1075 l 174 1341 "},"Ł":{"x_min":28.078125,"x_max":609.375,"ha":667,"o":"m 332 674 l 483 852 l 483 678 l 332 501 l 332 181 l 609 181 l 609 0 l 142 0 l 142 278 l 28 145 l 28 320 l 142 453 l 142 997 l 332 997 l 332 674 "},"$":{"x_min":47.203125,"x_max":743,"ha":778,"o":"m 704 882 l 573 754 q 396 847 484 847 q 313 819 345 847 q 281 756 281 792 q 309 695 281 725 q 421 630 336 665 q 627 524 572 568 q 713 418 683 480 q 743 280 743 357 q 711 138 743 203 q 629 35 679 73 q 485 -21 578 -2 l 485 -203 l 357 -203 l 357 -25 q 206 18 268 -15 q 47 145 120 66 l 176 277 q 416 145 300 145 q 517 186 475 145 q 560 282 560 227 q 532 364 560 329 q 425 436 505 399 q 207 554 264 510 q 122 653 150 598 q 94 770 94 708 q 168 947 94 873 q 357 1020 243 1020 l 357 1091 l 485 1091 l 485 1014 q 596 972 550 998 q 704 882 642 945 "},"w":{"x_min":11.53125,"x_max":1099.3125,"ha":1111,"o":"m 11 738 l 192 738 l 341 318 l 501 738 l 611 738 l 768 322 l 916 738 l 1099 738 l 830 0 l 712 0 l 555 420 l 393 0 l 277 0 l 11 738 "},"∫":{"x_min":0,"x_max":380,"ha":381,"o":"m 145 643 q 145 981 145 785 q 176 1179 145 1106 q 226 1242 193 1220 q 291 1264 259 1264 q 353 1241 326 1264 q 380 1191 380 1219 q 362 1140 380 1160 q 317 1121 344 1121 q 266 1145 293 1121 q 239 1159 250 1159 q 219 1149 226 1159 q 211 1115 211 1139 q 218 1017 211 1087 q 235 565 235 738 q 235 181 235 520 q 182 -96 235 -25 q 83 -149 143 -149 q 23 -125 46 -149 q 0 -67 0 -102 q 17 -18 0 -37 q 60 0 34 0 q 108 -22 88 0 q 140 -43 127 -43 q 159 -33 152 -43 q 167 -2 167 -23 q 161 79 167 26 q 145 643 145 293 "},"\\":{"x_min":154.625,"x_max":733.78125,"ha":889,"o":"m 733 -178 l 602 -178 l 154 1026 l 285 1026 l 733 -178 "},"Ì":{"x_min":-57.34375,"x_max":324.265625,"ha":389,"o":"m 100 998 l 289 998 l 289 0 l 100 0 l 100 998 m 161 1341 l 324 1075 l 191 1075 l -57 1341 l 161 1341 "},"Ç":{"x_min":64,"x_max":1030.15625,"ha":1082,"o":"m 1030 822 l 897 695 q 592 839 761 839 q 350 741 448 839 q 253 500 253 643 q 296 323 253 400 q 419 201 339 245 q 595 157 498 157 q 746 188 678 157 q 897 300 815 219 l 1026 166 q 817 16 915 58 q 592 -25 718 -25 q 212 122 360 -25 q 64 501 64 270 q 131 766 64 650 q 324 953 198 882 q 595 1024 450 1024 q 833 971 718 1024 q 1030 822 947 919 m 483 11 l 597 11 l 589 -20 q 660 -59 634 -30 q 687 -124 687 -89 q 640 -218 687 -179 q 512 -258 594 -258 q 362 -226 446 -258 l 386 -139 q 482 -155 435 -155 q 534 -141 517 -155 q 551 -107 551 -128 q 538 -79 551 -89 q 497 -69 525 -69 l 459 -69 l 483 11 "},"Ŝ":{"x_min":28.21875,"x_max":655,"ha":723,"o":"m 637 862 l 496 737 q 346 841 422 841 q 285 820 309 841 q 262 775 262 800 q 278 728 262 750 q 417 600 301 698 q 548 485 525 509 q 630 373 606 427 q 655 257 655 320 q 570 54 655 134 q 349 -25 485 -25 q 163 27 242 -25 q 28 190 84 79 l 187 287 q 353 155 259 155 q 434 183 401 155 q 468 249 468 212 q 443 317 468 283 q 332 420 418 351 q 122 626 170 553 q 75 770 75 698 q 154 948 75 874 q 349 1023 233 1023 q 491 988 423 1023 q 637 862 558 953 m 64 1075 l 268 1267 l 416 1267 l 618 1075 l 416 1075 l 343 1163 l 268 1075 l 64 1075 "},"C":{"x_min":64,"x_max":1030.171875,"ha":1082,"o":"m 1030 821 l 897 694 q 592 838 761 838 q 350 740 448 838 q 253 499 253 642 q 296 322 253 399 q 419 201 339 245 q 595 157 498 157 q 746 187 678 157 q 897 300 815 218 l 1026 165 q 817 16 915 58 q 592 -25 718 -25 q 212 122 360 -25 q 64 500 64 270 q 131 765 64 649 q 324 952 198 881 q 595 1023 450 1023 q 833 970 718 1023 q 1030 821 947 918 "},"∩":{"x_min":88,"x_max":731,"ha":818,"o":"m 162 0 l 88 0 l 88 421 l 88 582 q 99 724 88 661 q 139 839 111 787 q 211 930 167 890 q 306 991 255 971 q 408 1012 357 1012 q 561 965 488 1012 q 673 847 633 919 q 721 695 712 775 q 731 421 731 615 l 731 0 l 656 0 l 656 425 q 649 662 656 590 q 613 791 642 733 q 527 885 585 848 q 408 923 469 923 q 290 885 347 923 q 205 792 233 848 q 169 664 176 737 q 162 425 162 591 l 162 0 "},"Ē":{"x_min":115,"x_max":660.046875,"ha":723,"o":"m 115 998 l 660 998 l 660 812 l 304 812 l 304 631 l 660 631 l 660 449 l 304 449 l 304 187 l 660 187 l 660 0 l 115 0 l 115 998 m 194 1075 l 194 1225 l 580 1225 l 580 1075 l 194 1075 "},"!":{"x_min":78,"x_max":311,"ha":389,"o":"m 100 1023 l 287 1023 l 287 294 l 100 294 l 100 1023 m 194 213 q 276 179 242 213 q 311 97 311 145 q 276 15 311 49 q 194 -19 242 -19 q 111 14 145 -19 q 78 97 78 48 q 111 179 78 145 q 194 213 145 213 "},"ç":{"x_min":58,"x_max":816.15625,"ha":889,"o":"m 816 589 l 662 504 q 576 567 618 549 q 477 585 534 585 q 309 522 373 585 q 245 363 245 460 q 306 209 245 269 q 468 150 368 150 q 662 234 593 150 l 808 135 q 473 -19 689 -19 q 168 96 278 -19 q 58 366 58 211 q 111 563 58 473 q 261 705 165 654 q 475 757 357 757 q 673 713 585 757 q 816 589 760 669 m 387 11 l 501 11 l 493 -20 q 564 -59 538 -30 q 591 -124 591 -89 q 544 -218 591 -179 q 416 -258 498 -258 q 266 -226 350 -258 l 290 -139 q 386 -155 339 -155 q 438 -141 421 -155 q 455 -107 455 -128 q 442 -79 455 -89 q 401 -69 429 -69 l 363 -69 l 387 11 "},"Ĵ":{"x_min":25.625,"x_max":660.15625,"ha":667,"o":"m 362 998 l 553 998 l 553 335 q 527 114 553 177 q 445 12 502 50 q 306 -25 387 -25 q 25 119 141 -25 l 162 247 q 239 178 208 196 q 301 161 271 161 q 347 186 332 161 q 362 300 362 212 l 362 998 m 105 1075 l 309 1267 l 457 1267 l 660 1075 l 457 1075 l 384 1164 l 309 1075 l 105 1075 "},"È":{"x_min":115,"x_max":660.046875,"ha":723,"o":"m 115 998 l 660 998 l 660 812 l 304 812 l 304 631 l 660 631 l 660 449 l 304 449 l 304 187 l 660 187 l 660 0 l 115 0 l 115 998 m 353 1341 l 515 1075 l 382 1075 l 134 1341 l 353 1341 "},"ﬁ":{"x_min":3,"x_max":638,"ha":721,"o":"m 3 738 l 71 738 q 101 909 71 850 q 198 1005 132 969 q 357 1042 263 1042 q 497 1015 438 1042 q 591 943 557 989 q 638 821 625 897 l 445 821 q 411 869 435 852 q 355 887 387 887 q 302 870 326 887 q 265 824 278 854 q 257 738 257 803 l 366 738 l 366 582 l 257 582 l 257 0 l 71 0 l 71 582 l 3 582 l 3 738 m 453 738 l 638 738 l 638 0 l 453 0 l 453 738 "},"X":{"x_min":27.8125,"x_max":915.53125,"ha":945,"o":"m 48 998 l 262 998 l 471 678 l 682 998 l 895 998 l 578 514 l 915 0 l 701 0 l 471 350 l 242 0 l 27 0 l 364 514 l 48 998 "},"ô":{"x_min":58,"x_max":832,"ha":890,"o":"m 440 757 q 636 704 545 757 q 780 562 728 652 q 832 369 832 473 q 780 174 832 265 q 638 32 728 83 q 441 -19 549 -19 q 170 93 282 -19 q 58 368 58 206 q 184 656 58 541 q 440 757 296 757 m 443 583 q 299 522 357 583 q 242 369 242 462 q 299 213 242 272 q 442 153 355 153 q 587 213 529 153 q 645 369 645 274 q 588 523 645 464 q 443 583 531 583 m 167 873 l 371 1064 l 520 1064 l 722 873 l 520 873 l 446 961 l 371 873 l 167 873 "},"Ė":{"x_min":115,"x_max":660.046875,"ha":723,"o":"m 115 998 l 660 998 l 660 812 l 304 812 l 304 631 l 660 631 l 660 449 l 304 449 l 304 187 l 660 187 l 660 0 l 115 0 l 115 998 m 387 1269 q 456 1240 427 1269 q 485 1171 485 1211 q 456 1102 485 1131 q 387 1074 427 1074 q 318 1102 347 1074 q 290 1171 290 1131 q 318 1240 290 1211 q 387 1269 347 1269 "},"Ā":{"x_min":33.453125,"x_max":994.546875,"ha":1028,"o":"m 418 998 l 610 998 l 994 0 l 797 0 l 719 206 l 312 206 l 230 0 l 33 0 l 418 998 m 515 733 l 382 391 l 647 391 l 515 733 m 321 1076 l 321 1226 l 707 1226 l 707 1076 l 321 1076 "},"ċ":{"x_min":58,"x_max":816.359375,"ha":890,"o":"m 816 588 l 662 504 q 576 567 619 549 q 477 584 534 584 q 309 522 373 584 q 245 363 245 460 q 306 209 245 269 q 469 150 368 150 q 662 234 593 150 l 808 135 q 473 -19 689 -19 q 168 96 278 -19 q 58 366 58 211 q 111 563 58 473 q 261 705 165 653 q 475 757 357 757 q 673 713 585 757 q 816 588 760 669 m 462 1067 q 531 1038 502 1067 q 560 969 560 1009 q 531 900 560 929 q 462 872 502 872 q 393 900 422 872 q 365 969 365 929 q 393 1038 365 1009 q 462 1067 422 1067 "},"đ":{"x_min":60,"x_max":917,"ha":918,"o":"m 639 1023 l 823 1023 l 823 946 l 917 946 l 917 835 l 824 835 l 824 0 l 639 0 l 639 78 q 530 3 585 26 q 412 -19 475 -19 q 164 91 268 -19 q 60 367 60 202 q 161 647 60 538 q 406 757 262 757 q 531 731 473 757 q 639 656 589 706 l 639 835 l 350 835 l 350 946 l 639 946 l 639 1023 m 444 586 q 301 525 358 586 q 244 369 244 464 q 302 212 244 274 q 445 151 360 151 q 590 211 532 151 q 648 370 648 272 q 590 526 648 466 q 444 586 532 586 "},"Ẃ":{"x_min":37.984375,"x_max":1215.28125,"ha":1250,"o":"m 37 998 l 225 998 l 368 360 l 547 998 l 705 998 l 885 360 l 1028 998 l 1215 998 l 990 0 l 808 0 l 624 645 l 444 0 l 263 0 l 37 998 m 659 1341 l 878 1341 l 630 1075 l 497 1075 l 659 1341 "},"Ŀ":{"x_min":114,"x_max":580.703125,"ha":611,"o":"m 114 997 l 304 997 l 304 181 l 580 181 l 580 0 l 114 0 l 114 997 m 458 608 q 527 579 498 608 q 556 510 556 551 q 527 442 556 470 q 458 414 498 414 q 389 442 418 414 q 361 510 361 470 q 389 579 361 551 q 458 608 418 608 "},"ŋ":{"x_min":93,"x_max":749,"ha":833,"o":"m 749 487 l 749 -24 q 692 -238 749 -187 q 555 -289 636 -289 q 416 -261 497 -289 l 416 -115 q 492 -136 458 -136 q 545 -116 526 -136 q 564 -37 564 -96 l 564 326 q 555 487 564 441 q 516 560 547 533 q 437 588 486 588 q 341 550 382 588 q 289 461 301 512 q 278 296 278 410 l 278 0 l 93 0 l 93 738 l 278 738 l 278 662 q 497 757 385 757 q 678 686 608 757 q 749 487 749 615 "},"}":{"x_min":-1,"x_max":462,"ha":471,"o":"m 462 429 l 462 263 q 373 242 401 263 q 328 175 344 221 q 313 23 313 129 q 301 -160 313 -111 q 262 -238 289 -209 q 184 -287 235 -268 q 34 -306 132 -306 l -1 -306 l -1 -144 q 95 -136 71 -144 q 131 -110 119 -128 q 143 -45 143 -93 q 143 146 143 40 q 178 268 143 214 q 264 346 205 309 q 184 418 214 374 q 143 530 153 462 q 139 719 139 558 q 129 792 139 778 q 96 824 120 813 q -1 835 72 835 l -1 998 l 34 998 q 180 981 133 998 q 257 934 227 965 q 300 856 287 903 q 314 694 314 809 q 327 519 314 565 q 370 451 341 474 q 462 429 399 429 "},"â":{"x_min":60,"x_max":824,"ha":918,"o":"m 639 738 l 824 738 l 824 0 l 639 0 l 639 78 q 530 3 584 26 q 412 -19 475 -19 q 164 91 268 -19 q 60 367 60 202 q 161 647 60 538 q 406 757 262 757 q 531 731 473 757 q 639 656 589 706 l 639 738 m 444 586 q 301 525 358 586 q 244 369 244 464 q 302 212 244 274 q 445 151 360 151 q 590 211 532 151 q 648 370 648 272 q 590 526 648 466 q 444 586 532 586 m 181 873 l 384 1064 l 533 1064 l 735 873 l 533 873 l 460 961 l 384 873 l 181 873 "},"ø":{"x_min":72,"x_max":848.71875,"ha":917,"o":"m 761 610 q 846 369 846 502 q 794 174 846 265 q 652 32 742 83 q 455 -19 563 -19 q 250 40 342 -19 l 162 -57 l 77 14 l 165 113 q 72 368 72 221 q 198 655 72 540 q 455 757 309 757 q 680 687 576 757 l 765 782 l 848 707 l 761 610 m 287 249 l 562 556 q 458 583 516 583 q 314 522 371 583 q 256 369 256 462 q 287 249 256 305 m 637 472 l 369 172 q 458 153 411 153 q 601 213 543 153 q 659 369 659 274 q 637 472 659 424 "},"‰":{"x_min":28,"x_max":1750,"ha":1778,"o":"m 916 1042 l 1053 1042 l 262 -67 l 125 -67 l 801 885 q 686 870 740 875 q 588 865 633 865 q 489 869 541 865 q 504 783 504 822 q 435 615 504 684 q 267 546 366 546 q 97 615 167 546 q 28 782 28 684 q 59 901 28 846 q 147 989 90 955 q 259 1023 203 1023 q 375 1006 301 1023 q 605 978 506 978 q 773 994 695 978 q 916 1042 851 1010 m 266 899 q 184 865 218 899 q 151 784 151 831 q 184 703 151 737 q 266 670 218 670 q 347 703 313 670 q 381 784 381 737 q 347 865 381 832 q 266 899 313 899 m 1512 450 q 1680 380 1611 450 q 1750 211 1750 310 q 1680 42 1750 112 q 1512 -27 1611 -27 q 1343 42 1413 -27 q 1274 211 1274 112 q 1343 380 1274 310 q 1512 450 1413 450 m 1511 327 q 1429 293 1463 327 q 1396 211 1396 259 q 1429 129 1396 163 q 1511 96 1463 96 q 1593 129 1559 96 q 1627 211 1627 163 q 1593 293 1627 259 q 1511 327 1559 327 m 927 450 q 1095 380 1025 450 q 1165 211 1165 310 q 1095 42 1165 112 q 927 -27 1025 -27 q 758 42 828 -27 q 689 211 689 112 q 758 380 689 310 q 927 450 828 450 m 926 327 q 844 293 878 327 q 811 211 811 259 q 844 129 811 163 q 926 96 878 96 q 1007 129 973 96 q 1041 211 1041 163 q 1007 293 1041 259 q 926 327 973 327 "},"Ä":{"x_min":33.390625,"x_max":994.296875,"ha":1028,"o":"m 418 998 l 610 998 l 994 0 l 796 0 l 718 206 l 312 206 l 230 0 l 33 0 l 418 998 m 515 733 l 382 391 l 647 391 l 515 733 m 363 1270 q 432 1241 403 1270 q 461 1172 461 1212 q 432 1103 461 1132 q 363 1075 403 1075 q 294 1103 323 1075 q 266 1172 266 1132 q 294 1241 266 1212 q 363 1270 323 1270 m 663 1270 q 732 1241 703 1270 q 761 1172 761 1212 q 732 1103 761 1132 q 663 1075 703 1075 q 594 1103 623 1075 q 566 1172 566 1132 q 594 1241 566 1212 q 663 1270 623 1270 "},"ř":{"x_min":-55.125,"x_max":499.25,"ha":444,"o":"m 50 738 l 209 738 l 209 645 q 277 728 234 700 q 371 757 320 757 q 446 738 407 757 l 388 578 q 335 595 356 595 q 262 542 292 595 q 233 334 233 489 l 233 298 l 233 0 l 50 0 l 50 738 m -55 1064 l 148 1064 l 223 975 l 297 1064 l 499 1064 l 297 873 l 148 873 l -55 1064 "},"—":{"x_min":-8,"x_max":1397,"ha":1389,"o":"m -8 318 l -8 482 l 1397 482 l 1397 318 l -8 318 "},"N":{"x_min":115,"x_max":915,"ha":1028,"o":"m 115 998 l 296 998 l 725 341 l 725 998 l 915 998 l 915 0 l 732 0 l 305 654 l 305 0 l 115 0 l 115 998 "},"⁄":{"x_min":-159.375,"x_max":381.125,"ha":222,"o":"m -159 -25 l 265 1023 l 381 1023 l -43 -25 l -159 -25 "},"2":{"x_min":30,"x_max":721,"ha":778,"o":"m 244 676 l 61 676 q 155 930 61 837 q 397 1023 249 1023 q 559 984 489 1023 q 671 874 629 946 q 713 727 713 801 q 662 535 713 638 q 477 293 611 433 l 365 176 l 721 176 l 721 0 l 30 0 l 30 91 l 338 405 q 487 587 450 518 q 524 712 524 656 q 485 807 524 769 q 386 845 447 845 q 284 799 325 845 q 244 676 244 754 "},"∟":{"x_min":245,"x_max":1113.921875,"ha":1359,"o":"m 245 867 l 313 867 l 313 68 l 1113 68 l 1113 0 l 245 0 l 245 867 "},"ü":{"x_min":93,"x_max":741,"ha":833,"o":"m 93 738 l 280 738 l 280 382 q 294 238 280 278 q 339 175 308 198 q 417 153 371 153 q 495 175 463 153 q 543 240 527 197 q 555 376 555 272 l 555 738 l 741 738 l 741 425 q 710 160 741 231 q 600 27 673 73 q 416 -19 528 -19 q 219 35 294 -19 q 114 186 144 89 q 93 430 93 253 l 93 738 m 266 1067 q 335 1038 306 1067 q 364 969 364 1009 q 335 900 364 929 q 266 872 306 872 q 197 900 226 872 q 169 969 169 929 q 197 1038 169 1009 q 266 1067 226 1067 m 567 1067 q 636 1038 607 1067 q 665 969 665 1009 q 636 900 665 929 q 567 872 607 872 q 498 900 527 872 q 470 969 470 929 q 498 1038 470 1009 q 567 1067 527 1067 "},"˜":{"x_min":50.859375,"x_max":616.453125,"ha":667,"o":"m 125 875 l 50 987 q 226 1055 137 1055 q 340 1031 259 1055 q 427 1017 395 1017 q 545 1052 484 1017 l 616 946 q 450 873 531 873 q 348 891 408 873 q 286 908 299 905 q 244 911 269 911 q 125 875 185 911 "},"Ó":{"x_min":65,"x_max":1101,"ha":1166,"o":"m 585 1023 q 948 869 796 1023 q 1101 495 1101 716 q 950 126 1101 277 q 586 -25 800 -25 q 213 130 361 -25 q 65 499 65 285 q 134 762 65 642 q 324 952 203 882 q 585 1023 445 1023 m 582 837 q 350 740 444 837 q 256 495 256 644 q 374 234 256 330 q 586 159 466 159 q 816 256 721 159 q 911 497 911 354 q 815 738 911 639 q 582 837 719 837 m 615 1341 l 834 1341 l 586 1075 l 453 1075 l 615 1341 "},"ˇ":{"x_min":97.65625,"x_max":651.71875,"ha":750,"o":"m 97 1065 l 301 1065 l 376 975 l 449 1065 l 651 1065 l 449 873 l 301 873 l 97 1065 "},"Ÿ":{"x_min":42.828125,"x_max":818.59375,"ha":861,"o":"m 42 997 l 247 997 l 432 639 l 617 997 l 818 997 l 527 431 l 527 0 l 336 0 l 336 431 l 42 997 m 287 1269 q 356 1240 327 1269 q 385 1171 385 1211 q 356 1102 385 1131 q 287 1074 327 1074 q 218 1102 247 1074 q 190 1171 190 1131 q 218 1240 190 1211 q 287 1269 247 1269 m 587 1269 q 656 1240 627 1269 q 685 1171 685 1211 q 656 1102 685 1131 q 587 1074 627 1074 q 518 1102 547 1074 q 490 1171 490 1131 q 518 1240 490 1211 q 587 1269 547 1269 "},"ų":{"x_min":93,"x_max":741,"ha":833,"o":"m 93 738 l 280 738 l 280 382 q 294 238 280 278 q 339 175 308 198 q 417 153 371 153 q 495 175 463 153 q 543 240 527 197 q 555 376 555 272 l 555 738 l 741 738 l 741 425 q 710 160 741 231 q 600 27 673 73 q 416 -19 528 -19 q 220 35 294 -19 q 114 186 145 89 q 93 430 93 253 l 93 738 m 435 0 l 532 0 q 438 -111 438 -56 q 457 -157 438 -139 q 508 -175 477 -175 q 567 -156 531 -175 l 567 -264 q 480 -275 520 -275 q 357 -238 400 -275 q 315 -146 315 -201 q 345 -65 315 -105 q 435 0 376 -26 "},"€":{"x_min":7.015625,"x_max":753,"ha":778,"o":"m 304 345 q 428 206 345 255 q 615 157 510 157 q 753 184 682 157 l 753 -6 q 612 -25 690 -25 q 290 72 427 -25 q 104 345 153 170 l 7 345 l 33 456 l 86 456 q 85 500 85 468 q 86 542 85 529 l 7 542 l 34 653 l 106 653 q 297 923 156 825 q 615 1022 438 1022 q 753 1001 684 1022 l 711 823 q 611 840 659 840 q 431 790 513 840 q 306 653 349 741 l 670 653 l 645 542 l 273 542 q 271 500 271 514 q 273 456 271 483 l 625 456 l 599 345 l 304 345 "},"Ŭ":{"x_min":107,"x_max":783,"ha":889,"o":"m 107 998 l 298 998 l 298 352 q 312 233 298 268 q 360 178 327 199 q 441 158 394 158 q 527 181 491 158 q 578 239 564 204 q 592 375 592 275 l 592 998 l 783 998 l 783 403 q 766 194 783 252 q 701 81 749 135 q 590 1 653 27 q 445 -25 528 -25 q 256 24 337 -25 q 141 149 176 74 q 107 403 107 224 l 107 998 m 168 1266 l 319 1266 q 368 1224 336 1238 q 444 1210 399 1210 q 528 1226 491 1210 q 571 1266 552 1237 l 721 1266 q 638 1127 708 1179 q 444 1075 569 1075 q 303 1098 360 1075 q 212 1165 246 1121 q 168 1266 177 1208 "},"≡":{"x_min":78,"x_max":756,"ha":834,"o":"m 78 873 l 756 873 l 756 703 l 78 703 l 78 873 m 78 583 l 756 583 l 756 413 l 78 413 l 78 583 m 78 293 l 756 293 l 756 123 l 78 123 l 78 293 "},"ĝ":{"x_min":61.3125,"x_max":824,"ha":918,"o":"m 639 738 l 824 738 l 824 105 q 748 -169 824 -81 q 444 -289 647 -289 q 261 -261 335 -289 q 136 -182 187 -234 q 61 -54 85 -129 l 265 -54 q 335 -101 292 -85 q 436 -117 378 -117 q 556 -93 511 -117 q 620 -34 602 -70 q 639 91 639 2 q 537 21 590 42 q 415 0 483 0 q 164 107 266 0 q 62 378 62 214 q 170 660 62 554 q 405 757 268 757 q 525 733 469 757 q 639 656 582 710 l 639 738 m 447 584 q 302 525 359 584 q 246 378 246 466 q 304 226 246 285 q 450 168 362 168 q 593 225 537 168 q 649 376 649 283 q 592 526 649 468 q 447 584 536 584 m 165 873 l 368 1064 l 517 1064 l 719 873 l 517 873 l 444 961 l 368 873 l 165 873 "},"Ω":{"x_min":37,"x_max":1037,"ha":1066,"o":"m 313 148 q 168 234 223 178 q 82 371 112 291 q 52 550 52 452 q 181 890 52 760 q 526 1020 311 1020 q 794 964 690 1020 q 961 799 898 908 q 1024 551 1024 689 q 957 302 1024 407 q 765 149 891 197 l 988 149 l 1037 149 l 1037 0 l 602 0 l 602 165 q 716 247 673 199 q 784 370 759 296 q 810 532 810 445 q 733 784 810 697 q 533 871 656 871 q 339 781 415 871 q 263 535 263 692 q 289 373 263 448 q 359 248 315 298 q 474 165 403 198 l 474 0 l 37 0 l 37 148 l 103 148 l 313 148 "},"ß":{"x_min":93,"x_max":774,"ha":834,"o":"m 393 477 l 393 644 q 503 676 462 644 q 544 762 544 709 q 512 838 544 807 q 432 870 480 870 q 349 842 387 870 q 294 767 311 814 q 278 607 278 721 l 278 0 l 93 0 l 93 607 q 132 857 93 772 q 251 992 171 942 q 438 1042 332 1042 q 649 967 568 1042 q 731 788 731 893 q 705 682 731 730 q 638 604 680 634 q 520 562 595 575 q 658 508 602 548 q 744 410 714 468 q 774 278 774 352 q 735 125 774 194 q 628 19 697 57 q 473 -19 559 -19 q 360 4 416 -19 l 360 177 q 445 155 402 155 q 549 198 507 155 q 591 304 591 242 q 566 392 591 353 q 501 454 542 432 q 393 477 460 477 "},"s":{"x_min":34.875,"x_max":558,"ha":610,"o":"m 544 634 l 430 519 q 303 589 360 589 q 254 575 272 589 q 237 542 237 562 q 248 515 237 528 q 303 481 259 503 l 371 447 q 518 339 478 394 q 558 210 558 284 q 485 46 558 112 q 292 -19 413 -19 q 34 107 131 -19 l 148 231 q 225 170 181 193 q 302 147 268 147 q 361 164 339 147 q 384 205 384 182 q 303 288 384 247 l 241 319 q 62 545 62 409 q 129 694 62 632 q 301 757 196 757 q 437 725 373 757 q 544 634 500 693 "},"Ű":{"x_min":107,"x_max":907.109375,"ha":889,"o":"m 107 998 l 298 998 l 298 352 q 312 233 298 268 q 360 178 327 199 q 441 158 394 158 q 527 181 491 158 q 578 239 564 204 q 592 375 592 275 l 592 998 l 783 998 l 783 403 q 766 194 783 252 q 701 81 749 135 q 590 1 653 27 q 445 -25 528 -25 q 256 24 337 -25 q 141 149 176 74 q 107 403 107 224 l 107 998 m 385 1341 l 604 1341 l 356 1075 l 223 1075 l 385 1341 m 687 1341 l 907 1341 l 659 1075 l 525 1075 l 687 1341 "},"?":{"x_min":67,"x_max":707,"ha":778,"o":"m 245 740 l 67 740 q 157 956 67 870 q 396 1042 248 1042 q 559 1006 492 1042 q 666 904 626 971 q 707 765 707 838 q 694 686 707 725 q 653 606 681 647 q 575 526 637 583 q 501 451 516 473 q 475 392 485 429 q 465 290 465 355 l 279 290 l 279 321 q 312 486 279 412 q 420 625 345 560 q 506 712 491 689 q 522 768 522 736 q 485 841 522 811 q 387 872 449 872 q 285 835 325 872 q 245 740 245 798 m 374 214 q 459 180 424 214 q 494 97 494 146 q 459 15 494 49 q 376 -19 424 -19 q 293 15 327 -19 q 259 97 259 49 q 292 180 259 146 q 374 214 326 214 "},"Ņ":{"x_min":115,"x_max":915,"ha":1028,"o":"m 115 998 l 296 998 l 725 341 l 725 998 l 915 998 l 915 0 l 732 0 l 305 654 l 305 0 l 115 0 l 115 998 m 428 -52 q 493 -52 469 -52 q 612 -87 572 -52 q 652 -170 652 -122 q 607 -262 652 -221 q 477 -303 563 -303 q 346 -278 421 -303 l 369 -190 q 444 -201 417 -201 q 516 -152 516 -201 q 461 -114 516 -114 q 410 -117 444 -114 l 428 -52 "},"c":{"x_min":58,"x_max":816.03125,"ha":889,"o":"m 816 588 l 662 504 q 576 567 618 549 q 476 584 533 584 q 309 522 373 584 q 245 363 245 460 q 306 209 245 269 q 468 150 368 150 q 662 234 592 150 l 807 135 q 472 -19 689 -19 q 168 96 278 -19 q 58 366 58 211 q 111 563 58 473 q 261 705 165 653 q 475 757 357 757 q 672 713 585 757 q 816 588 760 669 "},"¶":{"x_min":110.203125,"x_max":716,"ha":833,"o":"m 374 -256 l 374 482 q 179 552 249 482 q 110 749 110 623 q 185 957 110 887 q 431 1027 261 1027 l 716 1027 l 716 948 l 660 948 l 660 -256 l 566 -256 l 566 948 l 468 948 l 468 -256 l 374 -256 "},"Ī":{"x_min":1,"x_max":387,"ha":388,"o":"m 100 998 l 289 998 l 289 0 l 100 0 l 100 998 m 1 1075 l 1 1225 l 387 1225 l 387 1075 l 1 1075 "},"•":{"x_min":208,"x_max":624,"ha":833,"o":"m 416 714 q 563 652 502 714 q 624 505 624 591 q 563 358 624 419 q 416 297 502 297 q 268 358 329 297 q 208 505 208 419 q 268 652 208 591 q 416 714 329 714 "},"(":{"x_min":63,"x_max":492.390625,"ha":528,"o":"m 257 1042 l 492 1042 q 312 746 371 905 q 253 381 253 586 q 318 -8 253 160 q 492 -289 370 -137 l 257 -289 q 106 33 149 -116 q 63 387 63 183 q 108 736 63 586 q 257 1042 153 886 "},"­":{"x_min":119,"x_max":464,"ha":583,"o":"m 119 454 l 464 454 l 464 282 l 119 282 l 119 454 "},"Ħ":{"x_min":23,"x_max":921,"ha":945,"o":"m 305 877 l 639 877 l 639 998 l 831 998 l 831 877 l 921 877 l 921 766 l 831 766 l 831 0 l 639 0 l 639 437 l 305 437 l 305 0 l 113 0 l 113 766 l 23 766 l 23 877 l 113 877 l 113 998 l 305 998 l 305 877 m 305 766 l 305 621 l 639 621 l 639 766 l 305 766 "},":":{"x_min":88,"x_max":301,"ha":388,"o":"m 194 757 q 269 725 238 757 q 301 650 301 694 q 269 576 301 607 q 194 545 238 545 q 119 575 150 545 q 88 650 88 606 q 119 725 88 694 q 194 757 150 757 m 194 193 q 269 162 238 193 q 301 87 301 131 q 269 12 301 43 q 194 -19 238 -19 q 119 12 150 -19 q 88 87 88 43 q 119 162 88 131 q 194 193 150 193 "},"Û":{"x_min":107,"x_max":783,"ha":889,"o":"m 107 998 l 298 998 l 298 352 q 312 233 298 268 q 360 178 327 199 q 441 158 394 158 q 527 181 491 158 q 578 239 564 204 q 592 375 592 275 l 592 998 l 783 998 l 783 403 q 766 194 783 252 q 701 81 749 135 q 590 1 653 27 q 445 -25 528 -25 q 256 24 337 -25 q 141 149 176 74 q 107 403 107 224 l 107 998 m 167 1075 l 371 1267 l 519 1267 l 721 1075 l 519 1075 l 446 1163 l 371 1075 l 167 1075 "},"ś":{"x_min":34.875,"x_max":558,"ha":610,"o":"m 544 634 l 430 519 q 303 589 360 589 q 254 575 272 589 q 237 542 237 562 q 248 515 237 528 q 303 481 259 503 l 371 447 q 518 339 478 394 q 558 210 558 284 q 485 46 558 112 q 292 -19 413 -19 q 34 107 131 -19 l 148 231 q 225 170 181 193 q 302 147 268 147 q 361 164 339 147 q 384 205 384 182 q 303 288 384 247 l 241 319 q 62 545 62 409 q 129 694 62 632 q 301 757 196 757 q 437 725 373 757 q 544 634 500 693 m 323 1138 l 542 1138 l 294 873 l 161 873 l 323 1138 "},"V":{"x_min":37.984375,"x_max":933.84375,"ha":973,"o":"m 37 998 l 233 998 l 484 289 l 738 998 l 933 998 l 574 0 l 391 0 l 37 998 "},"Ŗ":{"x_min":127,"x_max":766.796875,"ha":806,"o":"m 127 998 l 328 998 q 564 968 494 998 q 677 870 634 939 q 720 708 720 802 q 672 544 720 610 q 530 444 625 477 l 766 0 l 559 0 l 334 423 l 317 423 l 317 0 l 127 0 l 127 998 m 317 608 l 376 608 q 501 631 467 608 q 536 710 536 655 q 519 766 536 742 q 473 801 502 790 q 369 812 445 812 l 317 812 l 317 608 m 325 -52 q 390 -52 366 -52 q 509 -87 469 -52 q 549 -170 549 -122 q 504 -262 549 -221 q 374 -303 460 -303 q 243 -278 318 -303 l 266 -190 q 341 -201 314 -201 q 413 -152 413 -201 q 358 -114 413 -114 q 307 -117 342 -114 l 325 -52 "}," ":{"x_min":0,"x_max":0,"ha":389},"@":{"x_min":5,"x_max":1022,"ha":1027,"o":"m 832 204 l 962 204 q 830 71 888 112 q 697 5 773 29 q 539 -18 621 -18 q 270 52 394 -18 q 75 245 146 123 q 5 511 5 367 q 75 781 5 656 q 269 975 146 906 q 538 1045 391 1045 q 881 914 741 1045 q 1022 609 1022 783 q 963 389 1022 481 q 803 246 904 297 q 674 207 726 207 q 610 228 634 207 q 592 279 592 243 q 445 214 531 214 q 285 282 349 214 q 221 465 221 351 q 299 689 221 590 q 509 788 378 788 q 604 765 562 788 q 676 698 646 743 l 690 770 l 823 770 l 756 374 q 750 327 750 332 q 757 313 750 319 q 773 307 764 307 q 837 339 797 307 q 903 434 878 372 q 929 570 929 496 q 880 764 929 680 q 742 896 832 848 q 535 945 652 945 q 315 890 412 945 q 161 735 217 835 q 105 515 105 635 q 161 292 105 392 q 321 137 218 193 q 550 82 423 82 q 691 109 625 82 q 832 204 758 137 m 500 357 q 598 405 559 357 q 637 515 637 453 q 605 601 637 567 q 526 635 574 635 q 429 589 470 635 q 388 478 388 543 q 419 390 388 423 q 500 357 450 357 "},"¾":{"x_min":26.671875,"x_max":1142,"ha":1166,"o":"m 171 869 l 47 869 q 100 976 62 943 q 237 1023 153 1023 q 367 982 317 1023 q 417 886 417 941 q 353 785 417 821 q 423 731 398 767 q 449 655 449 696 q 389 535 449 586 q 230 485 329 485 q 82 534 137 485 q 26 665 26 583 l 151 665 q 236 590 164 590 q 297 608 273 590 q 321 652 321 627 q 188 721 321 721 l 188 817 q 269 832 247 817 q 292 872 292 847 q 278 904 292 891 q 241 918 264 918 q 171 869 195 918 m 329 -25 l 754 1023 l 870 1023 l 445 -25 l 329 -25 m 966 526 l 1090 526 l 1090 197 l 1142 197 l 1142 102 l 1090 102 l 1090 0 l 975 0 l 975 102 l 707 102 l 707 202 l 966 526 m 975 197 l 975 379 l 827 197 l 975 197 "},"℅":{"x_min":28,"x_max":1194,"ha":1223,"o":"m 469 908 l 354 849 q 268 900 320 900 q 193 864 221 900 q 166 776 166 828 q 192 691 166 724 q 263 658 218 658 q 354 711 323 658 l 464 641 q 266 538 394 538 q 91 609 154 538 q 28 778 28 681 q 96 952 28 882 q 268 1022 164 1022 q 469 908 403 1022 m 344 -25 l 770 1022 l 886 1022 l 460 -25 l 344 -25 m 972 473 q 1129 402 1064 473 q 1194 230 1194 331 q 1130 59 1194 130 q 973 -12 1067 -12 q 818 59 881 -12 q 756 229 756 130 q 821 402 756 332 q 972 473 886 473 m 974 349 q 916 315 939 349 q 893 231 893 282 q 915 144 893 178 q 974 111 938 111 q 1033 143 1009 111 q 1058 230 1058 176 q 1036 314 1058 279 q 974 349 1014 349 "},"ŉ":{"x_min":-35,"x_max":807,"ha":892,"o":"m 153 738 l 337 738 l 337 662 q 451 736 400 715 q 556 757 502 757 q 742 680 666 757 q 807 487 807 615 l 807 0 l 624 0 l 624 323 q 612 499 624 455 q 570 565 600 542 q 498 588 541 588 q 401 550 441 588 q 345 446 361 512 q 337 296 337 411 l 337 0 l 153 0 l 153 738 m -35 1023 l 136 1023 l 136 929 q 113 775 136 839 q 39 642 91 710 l -26 694 q 10 758 -1 731 q 33 829 22 784 l -35 829 l -35 1023 "},"i":{"x_min":48,"x_max":285,"ha":333,"o":"m 166 1042 q 250 1006 215 1042 q 285 921 285 971 q 250 836 285 871 q 167 802 215 802 q 82 837 117 802 q 48 924 48 873 q 82 1007 48 972 q 166 1042 117 1042 m 73 738 l 259 738 l 259 0 l 73 0 l 73 738 "},"≤":{"x_min":42,"x_max":719,"ha":762,"o":"m 719 385 l 719 215 l 42 561 l 42 711 l 719 1055 l 719 886 l 236 635 l 719 385 m 42 140 l 719 140 l 719 -30 l 42 -30 l 42 140 "},"Ģ":{"x_min":69,"x_max":1105,"ha":1166,"o":"m 1034 834 l 901 702 q 605 837 774 837 q 359 739 458 837 q 260 502 260 641 q 363 257 260 357 q 617 156 466 156 q 782 198 715 156 q 891 328 850 239 l 602 328 l 602 506 l 1105 506 l 1105 463 q 1037 215 1105 333 q 861 36 969 98 q 609 -25 754 -25 q 332 42 453 -25 q 139 234 210 109 q 69 504 69 359 q 199 848 69 702 q 604 1023 355 1023 q 847 974 734 1023 q 1034 834 943 934 m 534 11 l 647 11 l 639 -20 q 711 -59 685 -30 q 738 -124 738 -89 q 691 -218 738 -179 q 563 -258 645 -258 q 413 -226 497 -258 l 437 -139 q 533 -155 486 -155 q 585 -141 568 -155 q 602 -107 602 -128 q 589 -79 602 -89 q 548 -69 576 -69 l 510 -69 l 534 11 "},"m":{"x_min":92,"x_max":1222,"ha":1305,"o":"m 92 738 l 278 738 l 278 653 q 383 731 325 705 q 509 757 441 757 q 634 723 578 757 q 724 624 690 689 q 832 723 768 689 q 972 757 896 757 q 1110 720 1050 757 q 1195 624 1169 683 q 1222 432 1222 565 l 1222 0 l 1036 0 l 1036 374 q 1004 544 1036 500 q 911 589 973 589 q 826 561 863 589 q 770 486 788 534 q 752 333 752 439 l 752 0 l 565 0 l 565 357 q 550 501 565 456 q 506 567 535 545 q 436 589 477 589 q 352 561 390 589 q 296 484 315 534 q 278 328 278 434 l 278 0 l 92 0 l 92 738 "},"ĕ":{"x_min":59,"x_max":833,"ha":889,"o":"m 833 315 l 238 315 q 306 190 250 236 q 449 144 362 144 q 628 216 553 144 l 784 143 q 644 20 725 60 q 451 -19 563 -19 q 168 90 277 -19 q 59 364 59 200 q 167 645 59 533 q 440 757 276 757 q 723 645 614 757 q 833 350 833 533 l 833 315 m 647 461 q 574 561 628 522 q 449 600 520 600 q 314 556 372 600 q 246 461 277 529 l 647 461 m 170 1063 l 320 1063 q 369 1021 337 1035 q 446 1008 400 1008 q 529 1024 492 1008 q 572 1063 554 1035 l 722 1063 q 640 925 709 977 q 445 873 570 873 q 304 896 361 873 q 213 963 248 919 q 170 1063 179 1006 "},"ż":{"x_min":11.125,"x_max":627.984375,"ha":639,"o":"m 62 738 l 627 738 l 296 157 l 609 157 l 609 0 l 11 0 l 345 581 l 62 581 l 62 738 m 330 1067 q 399 1038 370 1067 q 428 969 428 1009 q 399 900 428 929 q 330 872 370 872 q 261 900 290 872 q 233 969 233 929 q 261 1038 233 1009 q 330 1067 290 1067 "},"ő":{"x_min":58,"x_max":936.4375,"ha":890,"o":"m 440 757 q 636 704 545 757 q 780 562 728 652 q 832 369 832 473 q 780 174 832 265 q 638 32 728 83 q 441 -19 549 -19 q 170 93 282 -19 q 58 368 58 206 q 184 656 58 541 q 440 757 296 757 m 443 583 q 299 522 357 583 q 242 369 242 462 q 299 213 242 272 q 442 153 355 153 q 587 213 529 153 q 645 369 645 274 q 588 523 645 464 q 443 583 531 583 m 414 1139 l 634 1139 l 385 873 l 252 873 l 414 1139 m 717 1139 l 936 1139 l 689 873 l 555 873 l 717 1139 "},"ž":{"x_min":11.125,"x_max":627.984375,"ha":639,"o":"m 62 738 l 627 738 l 295 157 l 609 157 l 609 0 l 11 0 l 344 581 l 62 581 l 62 738 m 42 1064 l 245 1064 l 320 975 l 394 1065 l 596 1065 l 394 873 l 245 873 l 42 1064 "},"Ŏ":{"x_min":65,"x_max":1101,"ha":1166,"o":"m 585 1023 q 948 869 796 1023 q 1101 495 1101 716 q 950 126 1101 277 q 586 -25 800 -25 q 213 130 361 -25 q 65 499 65 285 q 134 762 65 642 q 324 952 203 882 q 585 1023 445 1023 m 582 837 q 350 740 444 837 q 256 495 256 644 q 374 234 256 330 q 586 159 466 159 q 816 256 721 159 q 911 497 911 354 q 815 738 911 639 q 582 837 719 837 m 306 1265 l 456 1265 q 505 1223 474 1237 q 582 1210 537 1210 q 666 1226 628 1210 q 708 1265 690 1237 l 858 1265 q 776 1127 845 1179 q 582 1075 706 1075 q 441 1098 498 1075 q 350 1165 384 1121 q 306 1265 315 1208 "},"á":{"x_min":60,"x_max":824,"ha":918,"o":"m 639 738 l 824 738 l 824 0 l 639 0 l 639 78 q 530 3 584 26 q 412 -19 475 -19 q 164 91 268 -19 q 60 367 60 202 q 161 647 60 538 q 406 757 262 757 q 531 731 473 757 q 639 656 589 706 l 639 738 m 444 586 q 301 525 358 586 q 244 369 244 464 q 302 212 244 274 q 445 151 360 151 q 590 211 532 151 q 648 370 648 272 q 590 526 648 466 q 444 586 532 586 m 491 1138 l 710 1138 l 462 873 l 329 873 l 491 1138 "},"×":{"x_min":100.375,"x_max":730.390625,"ha":833,"o":"m 415 398 l 200 184 l 100 284 l 315 499 l 100 714 l 200 814 l 415 599 l 630 814 l 730 714 l 515 499 l 730 284 l 630 184 l 415 398 "},"İ":{"x_min":97,"x_max":292,"ha":389,"o":"m 100 998 l 289 998 l 289 0 l 100 0 l 100 998 m 194 1268 q 263 1239 234 1268 q 292 1170 292 1210 q 263 1101 292 1130 q 194 1073 234 1073 q 125 1101 154 1073 q 97 1170 97 1130 q 125 1239 97 1210 q 194 1268 154 1268 "},"Ě":{"x_min":115,"x_max":686.484375,"ha":723,"o":"m 115 998 l 660 998 l 660 812 l 304 812 l 304 631 l 660 631 l 660 449 l 304 449 l 304 187 l 660 187 l 660 0 l 115 0 l 115 998 m 132 1267 l 335 1267 l 411 1177 l 484 1267 l 686 1267 l 484 1075 l 335 1075 l 132 1267 "},"Ǻ":{"x_min":33.375,"x_max":994.3125,"ha":1028,"o":"m 417 998 l 610 998 l 994 0 l 796 0 l 718 206 l 312 206 l 230 0 l 33 0 l 417 998 m 515 733 l 382 391 l 647 391 l 515 733 m 513 1261 q 618 1216 575 1261 q 662 1109 662 1171 q 618 1001 662 1046 q 513 957 574 957 q 408 1001 452 957 q 365 1109 365 1046 q 408 1216 365 1171 q 513 1261 451 1261 m 513 1173 q 474 1155 490 1173 q 458 1112 458 1137 q 474 1069 458 1086 q 513 1051 491 1051 q 552 1069 535 1051 q 569 1112 569 1086 q 552 1155 569 1137 q 513 1173 536 1173 m 545 1558 l 765 1558 l 516 1293 l 384 1293 l 545 1558 "},"K":{"x_min":115,"x_max":840.046875,"ha":861,"o":"m 115 998 l 307 998 l 307 654 l 577 998 l 806 998 l 457 552 l 840 0 l 614 0 l 307 443 l 307 0 l 115 0 l 115 998 "},"7":{"x_min":83,"x_max":737,"ha":777,"o":"m 83 997 l 737 997 l 737 897 l 287 -25 l 126 52 l 500 819 l 83 819 l 83 997 "},"¨":{"x_min":100,"x_max":595,"ha":695,"o":"m 197 1067 q 266 1038 237 1067 q 295 969 295 1009 q 266 900 295 929 q 197 872 237 872 q 128 900 157 872 q 100 969 100 929 q 128 1038 100 1009 q 197 1067 157 1067 m 497 1067 q 566 1038 537 1067 q 595 969 595 1009 q 566 900 595 929 q 497 872 537 872 q 428 900 457 872 q 400 969 400 929 q 428 1038 400 1009 q 497 1067 457 1067 "},"Y":{"x_min":43.03125,"x_max":818.609375,"ha":861,"o":"m 43 998 l 247 998 l 432 639 l 617 998 l 818 998 l 527 432 l 527 0 l 336 0 l 336 432 l 43 998 "},"E":{"x_min":115,"x_max":660.046875,"ha":723,"o":"m 115 998 l 660 998 l 660 812 l 304 812 l 304 631 l 660 631 l 660 449 l 304 449 l 304 187 l 660 187 l 660 0 l 115 0 l 115 998 "},"Ô":{"x_min":65,"x_max":1101,"ha":1166,"o":"m 585 1023 q 948 869 796 1023 q 1101 495 1101 716 q 950 126 1101 277 q 586 -25 800 -25 q 213 130 361 -25 q 65 499 65 285 q 134 762 65 642 q 324 952 203 882 q 585 1023 445 1023 m 582 837 q 350 740 444 837 q 256 495 256 644 q 374 234 256 330 q 586 159 466 159 q 816 256 721 159 q 911 497 911 354 q 815 738 911 639 q 582 837 719 837 m 305 1075 l 508 1267 l 657 1267 l 859 1075 l 657 1075 l 584 1163 l 508 1075 l 305 1075 "},"‹":{"x_min":18.3125,"x_max":315.34375,"ha":333,"o":"m 142 738 l 315 738 l 189 366 l 315 0 l 142 0 l 18 366 l 142 738 "},"Ï":{"x_min":-53,"x_max":442,"ha":389,"o":"m 100 998 l 289 998 l 289 0 l 100 0 l 100 998 m 44 1269 q 113 1240 84 1269 q 142 1171 142 1211 q 113 1102 142 1131 q 44 1074 84 1074 q -24 1102 4 1074 q -53 1171 -53 1131 q -24 1240 -53 1211 q 44 1269 4 1269 m 344 1269 q 413 1240 384 1269 q 442 1171 442 1211 q 413 1102 442 1131 q 344 1074 384 1074 q 275 1102 304 1074 q 247 1171 247 1131 q 275 1240 247 1211 q 344 1269 304 1269 "},"ġ":{"x_min":61.3125,"x_max":824,"ha":918,"o":"m 639 738 l 824 738 l 824 105 q 748 -169 824 -81 q 444 -289 647 -289 q 261 -261 335 -289 q 136 -182 187 -234 q 61 -54 85 -129 l 265 -54 q 335 -101 292 -85 q 436 -117 378 -117 q 556 -93 511 -117 q 620 -34 602 -70 q 639 91 639 2 q 537 21 590 42 q 415 0 483 0 q 164 107 266 0 q 62 378 62 214 q 170 660 62 554 q 405 757 269 757 q 525 733 469 757 q 639 656 582 710 l 639 738 m 447 584 q 302 525 359 584 q 246 378 246 466 q 304 226 246 285 q 450 168 362 168 q 593 225 537 168 q 649 376 649 283 q 592 526 649 468 q 447 584 536 584 m 442 1067 q 511 1038 482 1067 q 540 969 540 1009 q 511 900 540 929 q 442 872 482 872 q 373 900 402 872 q 345 969 345 929 q 373 1038 345 1009 q 442 1067 402 1067 "},"ķ":{"x_min":95,"x_max":823.65625,"ha":806,"o":"m 95 1023 l 280 1023 l 280 433 l 553 738 l 785 738 l 467 383 l 823 0 l 593 0 l 280 339 l 280 0 l 95 0 l 95 1023 m 324 -52 q 390 -52 366 -52 q 509 -87 469 -52 q 549 -170 549 -122 q 504 -262 549 -221 q 374 -303 460 -303 q 242 -278 318 -303 l 266 -190 q 341 -201 313 -201 q 413 -152 413 -201 q 358 -114 413 -114 q 307 -117 341 -114 l 324 -52 "},"±":{"x_min":42,"x_max":719,"ha":762,"o":"m 296 732 l 296 986 l 466 986 l 466 732 l 719 732 l 719 562 l 466 562 l 466 308 l 296 308 l 296 562 l 42 562 l 42 732 l 296 732 m 42 170 l 719 170 l 719 0 l 42 0 l 42 170 "},"ì":{"x_min":-85.015625,"x_max":296.296875,"ha":333,"o":"m 73 738 l 259 738 l 259 0 l 73 0 l 73 738 m 134 1138 l 296 873 l 163 873 l -85 1138 l 134 1138 "},"|":{"x_min":363,"x_max":470,"ha":833,"o":"m 363 1023 l 470 1023 l 470 -270 l 363 -270 l 363 1023 "},"§":{"x_min":73,"x_max":702,"ha":779,"o":"m 664 781 l 489 781 q 379 872 468 872 q 323 856 343 872 q 304 817 304 840 q 319 772 304 792 q 418 694 340 747 l 548 605 q 668 489 635 545 q 702 365 702 433 q 664 239 702 294 q 556 157 626 184 q 645 53 619 104 q 672 -60 672 1 q 598 -223 672 -157 q 396 -289 524 -289 q 203 -223 275 -289 q 114 -32 130 -157 l 289 -32 q 334 -99 308 -79 q 397 -119 360 -119 q 461 -98 438 -119 q 485 -50 485 -78 q 471 -13 485 -33 q 410 37 457 5 l 223 167 q 104 283 135 229 q 73 409 73 338 q 111 542 73 485 q 207 621 149 600 q 137 706 160 659 q 114 808 114 753 q 189 973 114 905 q 386 1042 265 1042 q 582 966 501 1042 q 664 781 664 891 m 314 540 q 252 494 272 521 q 232 436 232 466 q 260 371 232 404 q 344 304 276 352 l 448 232 q 516 276 503 258 q 538 334 538 304 q 517 388 538 360 q 424 464 496 415 l 314 540 "},"q":{"x_min":60,"x_max":824,"ha":918,"o":"m 639 738 l 824 738 l 824 -270 l 639 -270 l 639 78 q 530 3 584 26 q 412 -19 475 -19 q 164 91 268 -19 q 60 367 60 202 q 161 647 60 538 q 406 757 262 757 q 531 731 473 757 q 639 656 589 706 l 639 738 m 444 586 q 301 525 358 586 q 244 369 244 464 q 302 212 244 274 q 445 151 360 151 q 590 211 532 151 q 648 370 648 272 q 590 526 648 466 q 444 586 532 586 "},"b":{"x_min":94,"x_max":857.46875,"ha":917,"o":"m 278 1023 l 278 656 q 386 731 328 706 q 511 757 444 757 q 756 647 655 757 q 857 367 857 538 q 753 91 857 202 q 505 -19 648 -19 q 387 3 442 -19 q 278 78 332 26 l 278 0 l 94 0 l 94 1023 l 278 1023 m 472 586 q 327 526 385 586 q 270 370 270 466 q 327 211 270 272 q 472 151 385 151 q 615 212 557 151 q 673 369 673 274 q 616 525 673 464 q 472 586 559 586 "},"ﬂ":{"x_min":3,"x_max":639,"ha":722,"o":"m 3 738 l 72 738 q 103 909 72 848 q 198 1006 135 971 q 355 1042 262 1042 q 515 1006 451 1042 q 609 913 579 970 q 639 738 639 856 l 639 0 l 453 0 l 453 723 q 435 844 453 815 q 356 887 410 887 q 302 871 324 887 q 268 827 279 855 q 257 738 257 799 l 365 738 l 365 582 l 257 582 l 257 0 l 72 0 l 72 582 l 3 582 l 3 738 "},"®":{"x_min":-5,"x_max":1034,"ha":1028,"o":"m 1034 512 q 964 253 1034 373 q 774 64 894 133 q 514 -5 654 -5 q 254 64 375 -5 q 64 253 134 133 q -5 513 -5 373 q 64 772 -5 652 q 254 961 134 892 q 514 1031 374 1031 q 774 961 654 1031 q 964 772 894 892 q 1034 512 1034 652 m 927 510 q 806 803 927 683 q 515 924 686 924 q 223 803 344 924 q 102 514 102 683 q 156 310 102 404 q 307 160 211 215 q 514 106 403 106 q 720 160 624 106 q 872 309 817 215 q 927 510 927 403 m 299 796 l 550 796 q 667 778 629 796 q 727 722 704 760 q 750 631 750 684 q 736 557 750 585 q 683 500 722 528 q 728 461 715 483 q 742 383 742 439 q 748 260 742 277 q 773 226 754 242 l 631 226 q 618 265 621 249 q 616 319 616 281 q 609 412 616 394 q 588 439 603 430 q 526 448 572 448 l 424 448 l 424 227 l 299 227 l 299 796 m 424 687 l 424 552 l 528 552 q 608 568 588 552 q 628 620 628 584 q 608 671 628 656 q 529 687 589 687 l 424 687 "},"₧":{"x_min":113,"x_max":1553,"ha":1605,"o":"m 708 738 l 770 738 l 770 1010 l 954 1010 l 954 738 l 1195 738 q 1292 757 1237 757 q 1539 635 1447 757 l 1425 520 q 1298 589 1358 589 q 1251 577 1271 589 q 1232 543 1232 565 q 1244 514 1232 527 q 1298 481 1257 502 l 1366 447 q 1512 340 1471 395 q 1553 211 1553 285 q 1480 46 1553 111 q 1287 -19 1407 -19 q 1029 107 1126 -19 l 1143 231 q 1212 174 1167 201 q 1297 147 1257 147 q 1355 163 1332 147 q 1379 205 1379 180 q 1298 288 1379 247 l 1236 319 q 1057 545 1057 409 q 1060 579 1057 561 l 954 579 l 954 0 l 770 0 l 770 579 l 679 579 q 303 416 605 416 l 303 0 l 113 0 l 113 998 l 344 998 q 525 977 460 998 q 645 894 591 957 q 708 738 699 830 m 303 591 q 476 620 432 591 q 521 709 521 650 q 482 789 521 766 q 351 813 443 813 l 303 813 l 303 591 "},"Ŋ":{"x_min":113,"x_max":1034,"ha":1100,"o":"m 306 892 q 590 1023 423 1023 q 905 876 776 1023 q 1034 497 1034 729 q 937 123 1034 272 q 660 -25 840 -25 q 510 6 573 -25 q 388 119 448 38 l 523 245 q 657 159 589 159 q 792 253 742 159 q 843 485 843 347 q 767 748 843 655 q 575 841 691 841 q 306 659 431 841 l 306 0 l 113 0 l 113 998 l 306 998 l 306 892 "},"Ũ":{"x_min":107,"x_max":783,"ha":889,"o":"m 107 998 l 298 998 l 298 352 q 312 233 298 268 q 360 178 327 199 q 441 158 394 158 q 527 181 491 158 q 578 239 564 204 q 592 375 592 275 l 592 998 l 783 998 l 783 403 q 766 194 783 252 q 701 81 749 135 q 590 1 653 27 q 445 -25 528 -25 q 256 24 337 -25 q 141 149 176 74 q 107 403 107 224 l 107 998 m 236 1077 l 162 1189 q 337 1257 248 1257 q 451 1233 371 1257 q 539 1219 506 1219 q 657 1254 596 1219 l 727 1148 q 562 1075 642 1075 q 459 1093 519 1075 q 398 1110 411 1107 q 356 1113 380 1113 q 236 1077 296 1113 "},"L":{"x_min":114,"x_max":580.703125,"ha":611,"o":"m 114 997 l 304 997 l 304 181 l 580 181 l 580 0 l 114 0 l 114 997 "},"ď":{"x_min":60,"x_max":1045,"ha":1002,"o":"m 639 1023 l 824 1023 l 824 0 l 639 0 l 639 78 q 530 3 584 26 q 412 -19 475 -19 q 164 91 268 -19 q 60 367 60 202 q 161 647 60 538 q 406 757 262 757 q 531 731 473 757 q 639 656 589 706 l 639 1023 m 444 586 q 301 525 358 586 q 244 369 244 464 q 302 212 244 274 q 445 151 360 151 q 590 211 532 151 q 648 370 648 272 q 590 526 648 466 q 444 586 532 586 m 874 1023 l 1045 1023 l 1045 929 q 1022 775 1045 839 q 948 642 1000 710 l 882 694 q 919 758 907 731 q 942 829 931 784 l 874 829 l 874 1023 "}," ":{"x_min":0,"x_max":0,"ha":389},"Ĭ":{"x_min":-81.75,"x_max":470.75,"ha":389,"o":"m 100 998 l 289 998 l 289 0 l 100 0 l 100 998 m -81 1266 l 68 1266 q 117 1224 85 1238 q 194 1210 148 1210 q 278 1226 240 1210 q 320 1266 302 1237 l 470 1266 q 388 1127 457 1179 q 193 1075 318 1075 q 52 1098 109 1075 q -38 1165 -3 1121 q -81 1266 -72 1208 "},"ŧ":{"x_min":5,"x_max":427,"ha":417,"o":"m 300 418 l 427 418 l 427 307 l 300 307 l 300 0 l 116 0 l 116 307 l 5 307 l 5 418 l 116 418 l 116 579 l 21 579 l 21 738 l 116 738 l 116 1010 l 300 1010 l 300 738 l 410 738 l 410 579 l 300 579 l 300 418 "},"∑":{"x_min":83,"x_max":940,"ha":990,"o":"m 94 1023 l 933 1023 l 933 912 l 262 912 l 674 386 l 234 -161 l 940 -161 l 940 -270 l 83 -270 l 83 -143 l 502 380 l 94 904 l 94 1023 "},"À":{"x_min":33.234375,"x_max":994.203125,"ha":1027,"o":"m 417 998 l 610 998 l 994 0 l 796 0 l 718 206 l 311 206 l 230 0 l 33 0 l 417 998 m 515 733 l 382 391 l 647 391 l 515 733 m 480 1341 l 642 1076 l 509 1076 l 261 1341 l 480 1341 "},"ẃ":{"x_min":11.53125,"x_max":1099.3125,"ha":1111,"o":"m 11 738 l 192 738 l 341 318 l 501 738 l 611 738 l 768 322 l 916 738 l 1099 738 l 830 0 l 712 0 l 555 420 l 393 0 l 277 0 l 11 738 m 587 1139 l 807 1139 l 558 873 l 425 873 l 587 1139 "},"+":{"x_min":78,"x_max":756,"ha":834,"o":"m 332 583 l 332 838 l 502 838 l 502 583 l 756 583 l 756 413 l 502 413 l 502 160 l 332 160 l 332 413 l 78 413 l 78 583 l 332 583 "},"½":{"x_min":62.125,"x_max":1132,"ha":1167,"o":"m 140 1010 l 321 1010 l 321 497 l 193 497 l 193 904 l 62 904 l 140 1010 m 289 -24 l 714 1023 l 830 1023 l 405 -24 l 289 -24 m 849 335 l 726 335 q 782 475 726 425 q 933 526 838 526 q 1077 475 1028 526 q 1127 370 1127 425 q 1097 272 1127 324 q 986 149 1067 220 l 938 107 l 1132 107 l 1132 0 l 708 0 l 708 59 l 892 217 q 978 305 958 273 q 999 362 999 337 q 979 403 999 387 q 926 419 960 419 q 870 397 891 419 q 849 335 849 375 "},"Ë":{"x_min":115,"x_max":660.046875,"ha":723,"o":"m 115 998 l 660 998 l 660 812 l 304 812 l 304 631 l 660 631 l 660 449 l 304 449 l 304 187 l 660 187 l 660 0 l 115 0 l 115 998 m 236 1269 q 305 1240 276 1269 q 334 1171 334 1211 q 305 1102 334 1131 q 236 1074 276 1074 q 167 1102 196 1074 q 139 1171 139 1131 q 167 1240 139 1211 q 236 1269 196 1269 m 536 1269 q 605 1240 576 1269 q 634 1171 634 1211 q 605 1102 634 1131 q 536 1074 576 1074 q 467 1102 496 1074 q 439 1171 439 1131 q 467 1240 439 1211 q 536 1269 496 1269 "},"'":{"x_min":62.390625,"x_max":242.78125,"ha":306,"o":"m 205 681 l 99 681 l 62 1023 l 242 1023 l 205 681 "},"Š":{"x_min":28.21875,"x_max":655,"ha":723,"o":"m 637 862 l 496 737 q 346 841 422 841 q 285 820 309 841 q 262 775 262 800 q 278 728 262 750 q 417 600 301 698 q 548 485 525 509 q 630 373 606 427 q 655 257 655 320 q 570 54 655 134 q 349 -25 485 -25 q 163 27 242 -25 q 28 190 84 79 l 187 287 q 353 155 259 155 q 434 183 401 155 q 468 249 468 212 q 443 317 468 283 q 332 420 418 351 q 122 626 170 553 q 75 770 75 698 q 154 948 75 874 q 349 1023 233 1023 q 491 988 423 1023 q 637 862 558 953 m 84 1266 l 288 1266 l 363 1177 l 436 1266 l 638 1266 l 436 1075 l 288 1075 l 84 1266 "},"ĳ":{"x_min":48,"x_max":635,"ha":695,"o":"m 635 923 q 600 838 635 873 q 515 804 565 804 q 431 838 466 804 q 396 923 396 873 q 431 1008 396 973 q 515 1043 466 1043 q 600 1008 565 1043 q 635 923 635 973 m 287 923 q 251 838 287 873 q 167 804 216 804 q 83 838 118 804 q 48 923 48 873 q 83 1007 48 972 q 167 1042 118 1042 q 252 1007 217 1042 q 287 923 287 972 m 74 738 l 260 738 l 260 0 l 74 0 l 74 738 m 422 738 l 608 738 l 608 -24 q 551 -238 608 -187 q 414 -289 495 -289 q 275 -261 356 -289 l 275 -115 q 351 -136 318 -136 q 403 -116 384 -136 q 422 -37 422 -97 l 422 738 "},"˛":{"x_min":109,"x_max":361.53125,"ha":472,"o":"m 229 0 l 326 0 q 232 -111 232 -56 q 251 -157 232 -139 q 302 -175 271 -175 q 361 -156 325 -175 l 361 -264 q 274 -275 314 -275 q 151 -238 194 -275 q 109 -146 109 -201 q 139 -65 109 -105 q 229 0 170 -26 "},"ð":{"x_min":59,"x_max":836,"ha":890,"o":"m 260 1022 l 440 1022 l 495 982 l 630 1022 l 664 916 l 594 893 q 773 655 710 785 q 836 394 836 525 q 723 97 836 213 q 443 -19 610 -19 q 171 94 283 -19 q 59 369 59 207 q 185 657 59 539 q 423 757 292 757 q 510 738 466 757 q 440 845 492 781 l 260 790 l 225 898 l 355 939 q 260 1022 290 999 m 445 582 q 300 522 357 582 q 244 369 244 463 q 299 212 244 272 q 442 153 355 153 q 588 213 530 153 q 647 368 647 274 q 590 521 647 461 q 445 582 533 582 "},"℮":{"x_min":61,"x_max":775,"ha":834,"o":"m 218 360 l 218 108 q 420 27 299 27 q 687 193 592 27 l 736 164 q 579 12 656 48 q 420 -23 502 -23 q 161 84 262 -23 q 61 360 61 192 q 162 637 61 531 q 421 744 264 744 q 671 647 567 744 q 775 360 775 550 l 218 360 m 622 410 l 622 611 q 418 694 537 694 q 218 611 300 694 l 218 410 l 622 410 "},"ş":{"x_min":34.875,"x_max":558,"ha":610,"o":"m 544 635 l 430 520 q 303 590 360 590 q 254 576 272 590 q 237 543 237 563 q 248 516 237 528 q 303 482 259 503 l 371 448 q 518 340 478 395 q 558 211 558 285 q 485 46 558 112 q 292 -19 413 -19 q 34 107 131 -19 l 148 231 q 225 170 181 193 q 302 146 268 146 q 361 164 339 146 q 384 205 384 181 q 303 288 384 247 l 241 319 q 62 545 62 410 q 129 695 62 633 q 301 758 196 758 q 437 726 373 758 q 544 635 500 694 m 247 11 l 361 11 l 353 -20 q 424 -59 398 -30 q 451 -124 451 -89 q 404 -218 451 -179 q 276 -258 358 -258 q 126 -226 210 -258 l 150 -139 q 246 -155 199 -155 q 298 -141 281 -155 q 315 -107 315 -128 q 302 -79 315 -89 q 261 -69 289 -69 l 223 -69 l 247 11 "},"ı":{"x_min":73,"x_max":259,"ha":333,"o":"m 73 738 l 259 738 l 259 0 l 73 0 l 73 738 "},"Ć":{"x_min":64,"x_max":1030.171875,"ha":1082,"o":"m 1030 821 l 897 694 q 592 838 761 838 q 350 740 448 838 q 253 499 253 642 q 296 322 253 399 q 419 201 339 245 q 595 157 498 157 q 746 187 678 157 q 897 300 815 218 l 1026 165 q 817 16 915 58 q 592 -25 718 -25 q 212 122 360 -25 q 64 500 64 270 q 131 765 64 649 q 324 952 198 881 q 595 1023 450 1023 q 833 970 718 1023 q 1030 821 947 918 m 606 1339 l 825 1339 l 577 1074 l 444 1074 l 606 1339 "},"ä":{"x_min":60,"x_max":824,"ha":918,"o":"m 639 738 l 824 738 l 824 0 l 639 0 l 639 78 q 530 3 584 26 q 411 -19 475 -19 q 164 91 268 -19 q 60 367 60 202 q 161 647 60 538 q 406 757 262 757 q 531 731 472 757 q 639 656 589 706 l 639 738 m 444 586 q 301 525 358 586 q 244 369 244 464 q 302 212 244 274 q 445 151 360 151 q 590 211 532 151 q 648 370 648 272 q 590 526 648 466 q 444 586 532 586 m 308 1067 q 377 1038 348 1067 q 406 969 406 1009 q 377 900 406 929 q 308 872 348 872 q 239 900 268 872 q 211 969 211 929 q 239 1038 211 1009 q 308 1067 268 1067 m 608 1067 q 677 1038 648 1067 q 706 969 706 1009 q 677 900 706 929 q 608 872 648 872 q 539 900 568 872 q 511 969 511 929 q 539 1038 511 1009 q 608 1067 568 1067 "},"¹":{"x_min":56.109375,"x_max":315,"ha":467,"o":"m 134 1010 l 315 1010 l 315 497 l 187 497 l 187 904 l 56 904 l 134 1010 "},"£":{"x_min":33.609375,"x_max":742,"ha":779,"o":"m 686 744 l 496 744 q 397 849 475 849 q 328 819 356 849 q 301 742 301 789 q 320 665 301 714 l 341 610 l 571 610 l 571 439 l 390 439 q 399 365 399 392 q 352 172 399 287 q 446 157 379 169 q 483 153 469 153 q 531 170 512 153 q 566 228 557 193 l 742 228 q 705 101 742 160 q 609 8 669 42 q 482 -25 548 -25 q 385 -15 452 -25 q 229 0 280 0 q 97 -22 162 0 l 33 138 q 141 168 91 161 q 192 278 178 233 q 206 375 206 324 q 199 439 206 403 l 37 439 l 37 610 l 141 610 q 110 746 110 678 q 143 889 110 829 q 247 986 177 949 q 400 1023 318 1023 q 548 987 482 1023 q 650 887 615 951 q 686 744 686 824 "},"ů":{"x_min":93,"x_max":741,"ha":833,"o":"m 93 738 l 280 738 l 280 382 q 294 238 280 278 q 339 175 308 198 q 417 153 371 153 q 495 175 463 153 q 543 240 527 197 q 555 376 555 272 l 555 738 l 741 738 l 741 425 q 710 160 741 231 q 600 27 673 73 q 416 -19 528 -19 q 220 35 295 -19 q 114 186 145 89 q 93 430 93 253 l 93 738 m 387 1176 q 492 1131 449 1176 q 536 1024 536 1087 q 492 917 536 961 q 387 873 448 873 q 282 917 326 873 q 239 1024 239 961 q 282 1131 239 1087 q 387 1176 325 1176 m 387 1088 q 348 1070 364 1088 q 332 1027 332 1052 q 348 984 332 1002 q 387 967 365 967 q 426 984 409 967 q 443 1027 443 1002 q 426 1070 443 1052 q 387 1088 410 1088 "},"Ō":{"x_min":65,"x_max":1101,"ha":1166,"o":"m 585 1023 q 948 869 796 1023 q 1101 495 1101 716 q 950 126 1101 277 q 586 -25 800 -25 q 213 130 361 -25 q 65 499 65 285 q 134 762 65 642 q 324 952 203 882 q 585 1023 445 1023 m 582 837 q 350 740 444 837 q 256 495 256 644 q 374 234 256 330 q 586 159 466 159 q 816 256 721 159 q 911 497 911 354 q 815 738 911 639 q 582 837 719 837 m 390 1075 l 390 1225 l 776 1225 l 776 1075 l 390 1075 "},"W":{"x_min":37.984375,"x_max":1215.28125,"ha":1250,"o":"m 37 998 l 225 998 l 368 360 l 547 998 l 705 998 l 885 360 l 1028 998 l 1215 998 l 990 0 l 808 0 l 624 645 l 444 0 l 263 0 l 37 998 "},"Ğ":{"x_min":69,"x_max":1105,"ha":1166,"o":"m 1034 834 l 900 702 q 605 837 773 837 q 359 739 458 837 q 260 502 260 641 q 362 257 260 357 q 616 157 465 157 q 782 198 715 157 q 891 328 849 239 l 602 328 l 602 506 l 1105 506 l 1105 463 q 1037 215 1105 333 q 861 36 969 98 q 609 -25 754 -25 q 332 42 453 -25 q 139 234 210 109 q 69 504 69 359 q 199 848 69 702 q 603 1023 355 1023 q 847 974 734 1023 q 1034 834 942 934 m 307 1264 l 456 1264 q 505 1222 474 1236 q 582 1209 537 1209 q 665 1225 628 1209 q 708 1264 690 1235 l 858 1264 q 776 1126 845 1178 q 582 1074 706 1074 q 441 1097 498 1074 q 350 1163 385 1120 q 307 1264 316 1207 "},"v":{"x_min":14.234375,"x_max":762.9375,"ha":778,"o":"m 14 738 l 202 738 l 389 302 l 575 738 l 762 738 l 448 0 l 328 0 l 14 738 "},">":{"x_min":78,"x_max":756,"ha":834,"o":"m 78 749 l 78 918 l 756 573 l 756 423 l 78 78 l 78 248 l 561 498 l 78 749 "},"û":{"x_min":93,"x_max":741,"ha":833,"o":"m 93 738 l 280 738 l 280 382 q 294 238 280 278 q 339 175 308 198 q 417 153 371 153 q 495 175 463 153 q 543 240 527 197 q 555 376 555 272 l 555 738 l 741 738 l 741 425 q 710 160 741 231 q 600 27 673 73 q 416 -19 528 -19 q 220 35 294 -19 q 114 186 145 89 q 93 430 93 253 l 93 738 m 139 873 l 343 1064 l 491 1064 l 693 873 l 491 873 l 418 961 l 343 873 l 139 873 "},"Ź":{"x_min":31.84375,"x_max":665.0625,"ha":695,"o":"m 61 998 l 665 998 l 308 182 l 642 182 l 642 0 l 31 0 l 386 810 l 61 810 l 61 998 m 392 1340 l 611 1340 l 363 1075 l 230 1075 l 392 1340 "},"Ų":{"x_min":107,"x_max":783,"ha":889,"o":"m 107 998 l 298 998 l 298 352 q 312 234 298 268 q 360 178 327 199 q 441 158 394 158 q 527 181 491 158 q 578 239 564 204 q 592 375 592 275 l 592 998 l 783 998 l 783 403 q 766 194 783 252 q 701 81 749 135 q 590 1 653 27 q 445 -25 528 -25 q 256 24 337 -25 q 141 149 176 74 q 107 403 107 224 l 107 998 m 456 0 l 553 0 q 459 -111 459 -56 q 478 -157 459 -139 q 529 -175 498 -175 q 588 -156 552 -175 l 588 -264 q 501 -275 541 -275 q 378 -238 421 -275 q 336 -146 336 -201 q 366 -65 336 -105 q 456 0 397 -26 "},"Ŵ":{"x_min":37.984375,"x_max":1215.28125,"ha":1250,"o":"m 37 998 l 225 998 l 368 360 l 547 998 l 705 998 l 885 360 l 1028 998 l 1215 998 l 990 0 l 808 0 l 624 645 l 444 0 l 263 0 l 37 998 m 349 1075 l 552 1267 l 701 1267 l 903 1075 l 701 1075 l 627 1163 l 552 1075 l 349 1075 "},"‛":{"x_min":113,"x_max":284,"ha":389,"o":"m 284 1023 l 113 1023 l 113 929 q 135 775 113 839 q 209 642 157 710 l 275 694 q 238 758 250 731 q 215 829 227 784 l 284 829 l 284 1023 "},"Ð":{"x_min":34,"x_max":956,"ha":1031,"o":"m 149 998 l 390 998 q 713 944 607 998 q 887 768 819 890 q 956 485 956 647 q 917 273 956 369 q 812 112 879 176 q 666 24 744 48 q 393 0 587 0 l 149 0 l 149 443 l 34 443 l 34 554 l 149 554 l 149 998 m 338 815 l 338 554 l 543 554 l 543 443 l 338 443 l 338 186 l 442 186 q 630 215 572 186 q 726 316 689 245 q 764 489 764 386 q 675 736 764 648 q 418 815 595 815 l 338 815 "},"ˉ":{"x_min":98,"x_max":484,"ha":583,"o":"m 98 873 l 98 1023 l 484 1023 l 484 873 l 98 873 "},"Ĺ":{"x_min":114,"x_max":580.703125,"ha":611,"o":"m 114 997 l 304 997 l 304 181 l 580 181 l 580 0 l 114 0 l 114 997 m 307 1340 l 526 1340 l 278 1075 l 145 1075 l 307 1340 "},"r":{"x_min":50,"x_max":446.359375,"ha":444,"o":"m 50 738 l 209 738 l 209 645 q 277 728 234 700 q 371 757 320 757 q 446 738 407 757 l 388 578 q 335 595 356 595 q 262 542 292 595 q 233 334 233 489 l 233 298 l 233 0 l 50 0 l 50 738 "},"₤":{"x_min":33.609375,"x_max":741,"ha":778,"o":"m 325 650 l 571 650 l 571 533 l 366 533 q 384 467 372 512 l 571 467 l 571 349 l 395 349 q 352 172 395 272 q 430 160 384 168 q 483 153 468 153 q 566 227 545 153 l 741 227 q 663 48 741 121 q 479 -25 585 -25 q 384 -15 452 -25 q 228 0 280 0 q 97 -22 158 0 l 33 138 q 141 167 92 162 q 202 349 202 267 l 37 349 l 37 467 l 191 467 q 168 533 186 485 l 37 533 l 37 650 l 125 650 q 110 750 110 702 q 194 951 110 879 q 400 1023 278 1023 q 602 949 518 1023 q 686 743 686 876 l 495 743 q 397 849 474 849 q 328 819 356 849 q 301 742 301 789 q 325 650 301 713 "},"Č":{"x_min":64,"x_max":1030.171875,"ha":1082,"o":"m 1030 821 l 897 694 q 592 838 761 838 q 350 740 448 838 q 253 499 253 642 q 296 322 253 399 q 419 201 339 245 q 595 157 498 157 q 746 187 678 157 q 897 300 815 218 l 1026 165 q 817 16 915 58 q 592 -25 718 -25 q 212 122 360 -25 q 64 500 64 270 q 131 765 64 649 q 324 952 198 881 q 595 1023 450 1023 q 833 970 718 1023 q 1030 821 947 918 m 313 1265 l 516 1265 l 592 1176 l 665 1265 l 867 1265 l 665 1074 l 516 1074 l 313 1265 "},"x":{"x_min":0.671875,"x_max":777.1875,"ha":778,"o":"m 27 738 l 242 738 l 386 536 l 533 738 l 745 738 l 493 388 l 777 0 l 562 0 l 386 242 l 212 0 l 0 0 l 280 388 l 27 738 "},"è":{"x_min":59,"x_max":833,"ha":889,"o":"m 833 315 l 238 315 q 306 190 250 236 q 449 144 362 144 q 628 216 553 144 l 784 143 q 644 20 725 60 q 451 -19 563 -19 q 168 90 277 -19 q 59 364 59 200 q 167 645 59 533 q 440 757 276 757 q 723 645 614 757 q 833 350 833 533 l 833 315 m 647 461 q 574 561 628 522 q 449 600 520 600 q 314 556 372 600 q 246 461 277 529 l 647 461 m 411 1138 l 573 873 l 440 873 l 192 1138 l 411 1138 "},"Ń":{"x_min":115,"x_max":915,"ha":1028,"o":"m 115 998 l 296 998 l 725 341 l 725 998 l 915 998 l 915 0 l 732 0 l 305 654 l 305 0 l 115 0 l 115 998 m 573 1341 l 792 1341 l 544 1075 l 411 1075 l 573 1341 "},"Ø":{"x_min":66,"x_max":1102,"ha":1166,"o":"m 969 848 q 1102 495 1102 700 q 951 126 1102 277 q 587 -25 801 -25 q 299 59 425 -25 l 183 -77 l 97 -5 l 212 131 q 104 298 143 203 q 66 499 66 394 q 135 762 66 642 q 325 952 204 881 q 585 1023 446 1023 q 885 924 746 1023 l 994 1053 l 1080 982 l 969 848 m 334 274 l 765 782 q 584 837 688 837 q 351 740 445 837 q 257 495 257 644 q 334 274 257 364 m 844 704 l 420 203 q 587 159 496 159 q 817 256 722 159 q 912 497 912 354 q 844 704 912 611 "},"Ỳ":{"x_min":43.03125,"x_max":818.609375,"ha":861,"o":"m 43 998 l 247 998 l 432 639 l 617 998 l 818 998 l 527 432 l 527 0 l 336 0 l 336 432 l 43 998 m 398 1341 l 560 1075 l 427 1075 l 179 1341 l 398 1341 "},"÷":{"x_min":42,"x_max":719,"ha":762,"o":"m 272 899 l 490 899 l 490 681 l 272 681 l 272 899 m 42 583 l 719 583 l 719 413 l 42 413 l 42 583 m 272 316 l 490 316 l 490 98 l 272 98 l 272 316 "},"h":{"x_min":94,"x_max":748,"ha":833,"o":"m 94 1023 l 278 1023 l 278 663 q 387 733 332 710 q 498 757 442 757 q 683 680 608 757 q 748 487 748 615 l 748 0 l 566 0 l 566 323 q 553 496 566 451 q 512 564 541 542 q 438 587 482 587 q 342 549 382 587 q 286 448 301 512 q 278 296 278 414 l 278 0 l 94 0 l 94 1023 "},".":{"x_min":88,"x_max":301,"ha":388,"o":"m 194 193 q 269 162 238 193 q 301 87 301 131 q 269 12 301 43 q 194 -19 238 -19 q 119 12 150 -19 q 88 87 88 43 q 119 162 88 131 q 194 193 150 193 "},"f":{"x_min":5,"x_max":380.78125,"ha":388,"o":"m 5 738 l 71 738 q 75 909 71 883 q 126 1006 83 970 q 250 1042 170 1042 q 380 1015 308 1042 l 380 874 q 314 886 340 886 q 267 872 282 886 q 256 830 256 862 l 256 738 l 373 738 l 373 581 l 256 581 l 256 0 l 71 0 l 71 581 l 5 581 l 5 738 "},"“":{"x_min":111,"x_max":559,"ha":668,"o":"m 282 642 l 111 642 l 111 736 q 133 890 111 825 q 207 1022 155 954 l 273 970 q 236 907 248 934 q 213 837 225 881 l 282 837 l 282 642 m 559 642 l 388 642 l 388 736 q 409 890 388 825 q 484 1022 431 954 l 550 970 q 513 907 525 934 q 490 837 502 881 l 559 837 l 559 642 "},"A":{"x_min":33.234375,"x_max":994.203125,"ha":1027,"o":"m 417 998 l 610 998 l 994 0 l 796 0 l 718 206 l 311 206 l 230 0 l 33 0 l 417 998 m 515 733 l 382 391 l 647 391 l 515 733 "},"‘":{"x_min":113,"x_max":284,"ha":388,"o":"m 284 642 l 113 642 l 113 736 q 135 890 113 825 q 209 1022 157 954 l 275 970 q 238 907 250 934 q 215 837 227 881 l 284 837 l 284 642 "},"O":{"x_min":65,"x_max":1101,"ha":1166,"o":"m 585 1023 q 948 869 796 1023 q 1101 495 1101 716 q 950 126 1101 277 q 586 -25 800 -25 q 213 130 361 -25 q 65 499 65 285 q 134 762 65 642 q 324 952 203 882 q 585 1023 445 1023 m 582 837 q 350 740 444 837 q 256 495 256 644 q 374 234 256 330 q 586 159 466 159 q 816 256 721 159 q 911 497 911 354 q 815 738 911 639 q 582 837 719 837 "},"Đ":{"x_min":34,"x_max":956,"ha":1031,"o":"m 149 998 l 390 998 q 713 944 607 998 q 887 768 819 890 q 956 485 956 647 q 917 273 956 369 q 812 112 879 176 q 666 24 744 48 q 393 0 587 0 l 149 0 l 149 443 l 34 443 l 34 554 l 149 554 l 149 998 m 338 815 l 338 554 l 543 554 l 543 443 l 338 443 l 338 186 l 442 186 q 630 215 572 186 q 726 316 689 245 q 764 489 764 386 q 675 736 764 648 q 418 815 595 815 l 338 815 "},"3":{"x_min":45.90625,"x_max":730,"ha":778,"o":"m 264 752 l 81 752 q 161 929 96 862 q 389 1023 252 1023 q 595 945 512 1023 q 679 759 679 867 q 642 638 679 693 q 536 549 606 583 q 679 455 628 522 q 730 296 730 387 q 630 68 730 161 q 376 -25 530 -25 q 138 62 230 -25 q 45 302 45 150 l 229 302 q 283 186 242 224 q 389 149 325 149 q 499 191 455 149 q 543 296 543 234 q 484 411 543 364 q 314 459 425 459 l 314 625 q 416 641 382 625 q 468 685 449 657 q 487 745 487 713 q 458 813 487 786 q 383 841 430 841 q 309 816 343 841 q 264 752 276 791 "},"9":{"x_min":83,"x_max":709,"ha":778,"o":"m 374 -25 l 213 54 l 387 394 q 171 484 260 394 q 83 710 83 575 q 174 932 83 841 q 394 1023 265 1023 q 619 929 529 1023 q 709 712 709 835 q 695 620 709 666 q 631 476 681 573 l 374 -25 m 398 574 q 487 612 451 574 q 523 708 523 651 q 485 805 523 766 q 397 845 447 845 q 306 806 344 845 q 269 708 269 767 q 305 612 269 651 q 398 574 342 574 "},"Ǿ":{"x_min":66,"x_max":1102,"ha":1166,"o":"m 969 848 q 1102 495 1102 700 q 951 126 1102 277 q 587 -25 801 -25 q 299 59 425 -25 l 183 -77 l 97 -5 l 212 131 q 104 298 143 203 q 66 499 66 394 q 135 762 66 642 q 325 952 204 881 q 585 1023 446 1023 q 885 924 746 1023 l 994 1053 l 1080 982 l 969 848 m 334 274 l 765 782 q 584 837 688 837 q 351 740 445 837 q 257 495 257 644 q 334 274 257 364 m 844 704 l 420 203 q 587 159 496 159 q 817 256 722 159 q 912 497 912 354 q 844 704 912 611 m 616 1341 l 835 1341 l 587 1075 l 454 1075 l 616 1341 "},"⅛":{"x_min":62.125,"x_max":1141,"ha":1167,"o":"m 297 -24 l 721 1022 l 836 1022 l 413 -24 l 297 -24 m 140 1010 l 321 1010 l 321 497 l 193 497 l 193 904 l 62 904 l 140 1010 m 1058 277 q 1141 146 1141 227 q 1088 35 1141 82 q 931 -12 1035 -12 q 773 29 830 -12 q 716 146 716 71 q 795 277 716 226 q 743 381 743 321 q 794 484 743 443 q 928 526 846 526 q 1061 482 1011 526 q 1112 379 1112 438 q 1058 277 1112 326 m 987 373 q 924 421 987 421 q 883 407 898 421 q 868 373 868 393 q 884 335 868 350 q 927 320 900 320 q 971 335 955 320 q 987 373 987 350 m 1013 153 q 987 200 1013 183 q 929 218 962 218 q 867 200 894 218 q 841 155 841 182 q 863 111 841 130 q 927 93 885 93 q 1013 153 1013 93 "},"l":{"x_min":74,"x_max":259,"ha":333,"o":"m 74 1023 l 259 1023 l 259 0 l 74 0 l 74 1023 "},"4":{"x_min":28,"x_max":738,"ha":777,"o":"m 458 1023 l 649 1023 l 649 381 l 738 381 l 738 205 l 649 205 l 649 0 l 463 0 l 463 205 l 28 205 l 28 381 l 458 1023 m 463 381 l 463 715 l 235 381 l 463 381 "},"Ẁ":{"x_min":37.984375,"x_max":1215.28125,"ha":1250,"o":"m 37 998 l 225 998 l 368 360 l 547 998 l 705 998 l 885 360 l 1028 998 l 1215 998 l 990 0 l 808 0 l 624 645 l 444 0 l 263 0 l 37 998 m 594 1341 l 756 1075 l 623 1075 l 375 1341 l 594 1341 "},"Ť":{"x_min":16,"x_max":570.390625,"ha":583,"o":"m 16 998 l 567 998 l 567 811 l 386 811 l 386 0 l 193 0 l 193 811 l 16 811 l 16 998 m 16 1268 l 220 1268 l 295 1178 l 369 1268 l 570 1268 l 369 1076 l 220 1076 l 16 1268 "},"Ś":{"x_min":28.21875,"x_max":655,"ha":723,"o":"m 637 862 l 496 737 q 346 841 422 841 q 285 820 309 841 q 262 775 262 800 q 278 728 262 750 q 417 600 301 698 q 548 485 525 509 q 630 373 606 427 q 655 257 655 320 q 570 54 655 134 q 349 -25 485 -25 q 163 27 242 -25 q 28 190 84 79 l 187 287 q 353 155 259 155 q 434 183 401 155 q 468 249 468 212 q 443 317 468 283 q 332 420 418 351 q 122 626 170 553 q 75 770 75 698 q 154 948 75 874 q 349 1023 233 1023 q 491 988 423 1023 q 637 862 558 953 m 345 1341 l 563 1341 l 316 1075 l 183 1075 l 345 1341 "},"Ü":{"x_min":107,"x_max":783,"ha":889,"o":"m 107 998 l 298 998 l 298 352 q 312 233 298 268 q 360 178 327 199 q 441 158 394 158 q 527 181 491 158 q 578 239 564 204 q 592 375 592 275 l 592 998 l 783 998 l 783 403 q 766 194 783 252 q 701 81 749 135 q 590 1 653 27 q 445 -25 528 -25 q 256 24 337 -25 q 141 149 176 74 q 107 403 107 224 l 107 998 m 294 1269 q 363 1240 334 1269 q 392 1171 392 1211 q 363 1102 392 1131 q 294 1074 334 1074 q 225 1102 254 1074 q 197 1171 197 1131 q 225 1240 197 1211 q 294 1269 254 1269 m 594 1269 q 663 1240 634 1269 q 692 1171 692 1211 q 663 1102 692 1131 q 594 1074 634 1074 q 525 1102 554 1074 q 497 1171 497 1131 q 525 1240 497 1211 q 594 1269 554 1269 "},"à":{"x_min":60,"x_max":824,"ha":918,"o":"m 639 738 l 824 738 l 824 0 l 639 0 l 639 78 q 530 3 584 26 q 412 -19 475 -19 q 164 91 268 -19 q 60 367 60 202 q 161 647 60 538 q 406 757 262 757 q 531 731 473 757 q 639 656 589 706 l 639 738 m 444 586 q 301 525 358 586 q 244 369 244 464 q 302 212 244 274 q 445 151 360 151 q 590 211 532 151 q 648 370 648 272 q 590 526 648 466 q 444 586 532 586 m 426 1138 l 588 873 l 455 873 l 207 1138 l 426 1138 "},"ó":{"x_min":58,"x_max":832,"ha":890,"o":"m 440 757 q 636 704 545 757 q 780 562 728 652 q 832 369 832 473 q 780 174 832 265 q 638 32 728 83 q 441 -19 549 -19 q 170 93 282 -19 q 58 368 58 206 q 184 656 58 541 q 440 757 296 757 m 443 583 q 299 522 357 583 q 242 369 242 462 q 299 213 242 272 q 442 153 355 153 q 587 213 529 153 q 645 369 645 274 q 588 523 645 464 q 443 583 531 583 m 477 1138 l 696 1138 l 448 873 l 315 873 l 477 1138 "},"ŗ":{"x_min":50,"x_max":446.671875,"ha":445,"o":"m 50 738 l 209 738 l 209 645 q 277 728 234 700 q 371 757 320 757 q 446 738 407 757 l 389 578 q 335 595 356 595 q 262 542 292 595 q 233 334 233 489 l 233 298 l 233 0 l 50 0 l 50 738 m 143 -52 q 209 -52 185 -52 q 328 -87 288 -52 q 368 -170 368 -122 q 323 -262 368 -221 q 193 -303 279 -303 q 61 -278 136 -303 l 85 -190 q 160 -201 132 -201 q 232 -152 232 -201 q 177 -114 232 -114 q 126 -117 160 -114 l 143 -52 "}}}
